<?xml version="1.0" encoding="UTF-8" standalone="no"?><svg xmlns="http://www.w3.org/2000/svg" xmlns:xlink="http://www.w3.org/1999/xlink" contentStyleType="text/css" height="547px" preserveAspectRatio="none" style="width:226px;height:547px;background:#FFFFFF;" version="1.1" viewBox="0 0 226 547" width="226px" zoomAndPan="magnify"><defs/><g><!--MD5=[10fe1d902d60fbd5b06cae160545002b]
class nz.ac.vuw.ecs.swen225.gp22.domain.Chap--><a href="Chap.html" target="_top" title="Chap.html" xlink:actuate="onRequest" xlink:href="Chap.html" xlink:show="new" xlink:title="Chap.html" xlink:type="simple"><g id="elem_nz.ac.vuw.ecs.swen225.gp22.domain.Chap"><rect codeLine="5" fill="#F1F1F1" height="417.0078" id="nz.ac.vuw.ecs.swen225.gp22.domain.Chap" rx="2.5" ry="2.5" style="stroke:#181818;stroke-width:0.5;" width="212" x="7" y="105"/><ellipse cx="22.45" cy="124.1328" fill="#ADD1B2" rx="11" ry="11" style="stroke:#181818;stroke-width:1.0;"/><path d="M24.9231,130.2759 Q24.3421,130.5747 23.7029,130.7241 Q23.0638,130.8735 22.3582,130.8735 Q19.8514,130.8735 18.5315,129.2217 Q17.2117,127.5698 17.2117,124.4487 Q17.2117,121.3193 18.5315,119.6675 Q19.8514,118.0156 22.3582,118.0156 Q23.0638,118.0156 23.7112,118.165 Q24.3587,118.3145 24.9231,118.6133 L24.9231,121.3359 Q24.2923,120.7549 23.6988,120.4851 Q23.1053,120.2153 22.4744,120.2153 Q21.1297,120.2153 20.4449,121.282 Q19.7601,122.3486 19.7601,124.4487 Q19.7601,126.5405 20.4449,127.6072 Q21.1297,128.6738 22.4744,128.6738 Q23.1053,128.6738 23.6988,128.4041 Q24.2923,128.1343 24.9231,127.5532 Z " fill="#000000"/><text fill="#000000" font-family="sans-serif" font-size="14" lengthAdjust="spacing" textLength="36" x="108.05" y="123.5352">Chap</text><text fill="#000000" font-family="sans-serif" font-size="10" lengthAdjust="spacing" textLength="179" x="36.55" y="136.1563">nz.ac.vuw.ecs.swen225.gp22.domain</text><line style="stroke:#181818;stroke-width:0.5;" x1="8" x2="218" y1="143.2656" y2="143.2656"/><ellipse cx="18" cy="157.0098" fill="none" rx="3" ry="3" style="stroke:#038048;stroke-width:1.0;"/><text fill="#000000" font-family="sans-serif" font-size="14" lengthAdjust="spacing" textLength="151" x="27" y="160.8008">chest: ArrayList&lt;Tile&gt;</text><ellipse cx="18" cy="173.498" fill="none" rx="3" ry="3" style="stroke:#038048;stroke-width:1.0;"/><text fill="#000000" font-family="sans-serif" font-size="14" lengthAdjust="spacing" textLength="93" x="27" y="177.2891">won: boolean</text><ellipse cx="18" cy="189.9863" fill="none" rx="3" ry="3" style="stroke:#038048;stroke-width:1.0;"/><text fill="#000000" font-family="sans-serif" font-size="14" lengthAdjust="spacing" textLength="70" x="27" y="193.7773">l: Location</text><ellipse cx="18" cy="206.4746" fill="none" rx="3" ry="3" style="stroke:#038048;stroke-width:1.0;"/><text fill="#000000" font-family="sans-serif" font-size="14" lengthAdjust="spacing" textLength="57" x="27" y="210.2656">m: Maze</text><ellipse cx="18" cy="222.9629" fill="none" rx="3" ry="3" style="stroke:#038048;stroke-width:1.0;"/><text fill="#000000" font-family="sans-serif" font-size="14" lengthAdjust="spacing" textLength="49" x="27" y="226.7539">s: State</text><ellipse cx="18" cy="239.4512" fill="none" rx="3" ry="3" style="stroke:#038048;stroke-width:1.0;"/><text fill="#000000" font-family="sans-serif" font-size="14" lengthAdjust="spacing" textLength="63" x="27" y="243.2422">icon: Img</text><line style="stroke:#181818;stroke-width:0.5;" x1="8" x2="218" y1="250.1953" y2="250.1953"/><ellipse cx="18" cy="263.9395" fill="#84BE84" rx="3" ry="3" style="stroke:#038048;stroke-width:1.0;"/><text fill="#000000" font-family="sans-serif" font-size="14" lengthAdjust="spacing" textLength="148" x="27" y="267.7305">Chap(Location, Maze)</text><ellipse cx="18" cy="280.4277" fill="#84BE84" rx="3" ry="3" style="stroke:#038048;stroke-width:1.0;"/><text fill="#000000" font-family="sans-serif" font-size="14" lengthAdjust="spacing" textLength="92" x="27" y="284.2188">getImg(): Img</text><ellipse cx="18" cy="296.916" fill="#84BE84" rx="3" ry="3" style="stroke:#038048;stroke-width:1.0;"/><text fill="#000000" font-family="sans-serif" font-size="14" lengthAdjust="spacing" textLength="186" x="27" y="300.707">getChest(): ArrayList&lt;Tile&gt;</text><ellipse cx="18" cy="313.4043" fill="#84BE84" rx="3" ry="3" style="stroke:#038048;stroke-width:1.0;"/><text fill="#000000" font-family="sans-serif" font-size="14" lengthAdjust="spacing" textLength="156" x="27" y="317.1953">getLocation(): Location</text><ellipse cx="18" cy="329.8926" fill="#84BE84" rx="3" ry="3" style="stroke:#038048;stroke-width:1.0;"/><text fill="#000000" font-family="sans-serif" font-size="14" lengthAdjust="spacing" textLength="143" x="27" y="333.6836">getOnInfo(): boolean</text><ellipse cx="18" cy="346.3809" fill="#84BE84" rx="3" ry="3" style="stroke:#038048;stroke-width:1.0;"/><text fill="#000000" font-family="sans-serif" font-size="14" lengthAdjust="spacing" textLength="146" x="27" y="350.1719">removeKey(Key): void</text><ellipse cx="18" cy="362.8691" fill="#84BE84" rx="3" ry="3" style="stroke:#038048;stroke-width:1.0;"/><text fill="#000000" font-family="sans-serif" font-size="14" lengthAdjust="spacing" textLength="103" x="27" y="366.6602">won(): boolean</text><ellipse cx="18" cy="379.3574" fill="#84BE84" rx="3" ry="3" style="stroke:#038048;stroke-width:1.0;"/><text fill="#000000" font-family="sans-serif" font-size="14" lengthAdjust="spacing" textLength="92" x="27" y="383.1484">setWin(): void</text><ellipse cx="18" cy="395.8457" fill="#84BE84" rx="3" ry="3" style="stroke:#038048;stroke-width:1.0;"/><text fill="#000000" font-family="sans-serif" font-size="14" lengthAdjust="spacing" textLength="139" x="27" y="399.6367">setMaze(Maze): void</text><ellipse cx="18" cy="412.334" fill="#84BE84" rx="3" ry="3" style="stroke:#038048;stroke-width:1.0;"/><text fill="#000000" font-family="sans-serif" font-size="14" lengthAdjust="spacing" textLength="103" x="27" y="416.125">moveUp(): void</text><ellipse cx="18" cy="428.8223" fill="#84BE84" rx="3" ry="3" style="stroke:#038048;stroke-width:1.0;"/><text fill="#000000" font-family="sans-serif" font-size="14" lengthAdjust="spacing" textLength="123" x="27" y="432.6133">moveDown(): void</text><ellipse cx="18" cy="445.3105" fill="#84BE84" rx="3" ry="3" style="stroke:#038048;stroke-width:1.0;"/><text fill="#000000" font-family="sans-serif" font-size="14" lengthAdjust="spacing" textLength="120" x="27" y="449.1016">moveRight(): void</text><ellipse cx="18" cy="461.7988" fill="#84BE84" rx="3" ry="3" style="stroke:#038048;stroke-width:1.0;"/><text fill="#000000" font-family="sans-serif" font-size="14" lengthAdjust="spacing" textLength="109" x="27" y="465.5898">moveLeft(): void</text><ellipse cx="18" cy="478.2871" fill="#84BE84" rx="3" ry="3" style="stroke:#038048;stroke-width:1.0;"/><text fill="#000000" font-family="sans-serif" font-size="14" lengthAdjust="spacing" textLength="165" x="27" y="482.0781">changeState(State): void</text><ellipse cx="18" cy="494.7754" fill="#84BE84" rx="3" ry="3" style="stroke:#038048;stroke-width:1.0;"/><text fill="#000000" font-family="sans-serif" font-size="14" lengthAdjust="spacing" textLength="155" x="27" y="498.5664">addToChest(Tile): void</text><ellipse cx="18" cy="511.2637" fill="#84BE84" rx="3" ry="3" style="stroke:#038048;stroke-width:1.0;"/><text fill="#000000" font-family="sans-serif" font-size="14" lengthAdjust="spacing" textLength="173" x="27" y="515.0547">removeFromChest(): void</text></g></a><!--MD5=[186e21ba2cd9930336d13f364b5bb404]
class nz.ac.vuw.ecs.swen225.gp22.domain.Tile--><a href="Tile.html" target="_top" title="Tile.html" xlink:actuate="onRequest" xlink:href="Tile.html" xlink:show="new" xlink:title="Tile.html" xlink:type="simple"><g id="elem_nz.ac.vuw.ecs.swen225.gp22.domain.Tile"><rect codeLine="30" fill="#F1F1F1" height="38.2656" id="nz.ac.vuw.ecs.swen225.gp22.domain.Tile" rx="2.5" ry="2.5" style="stroke:#181818;stroke-width:0.5;" width="211" x="7.5" y="7"/><ellipse cx="22.5" cy="26.1328" fill="#ADD1B2" rx="11" ry="11" style="stroke:#181818;stroke-width:1.0;"/><path d="M24.9731,32.2759 Q24.3921,32.5747 23.7529,32.7241 Q23.1138,32.8735 22.4082,32.8735 Q19.9014,32.8735 18.5815,31.2217 Q17.2617,29.5698 17.2617,26.4487 Q17.2617,23.3193 18.5815,21.6675 Q19.9014,20.0156 22.4082,20.0156 Q23.1138,20.0156 23.7612,20.165 Q24.4087,20.3145 24.9731,20.6133 L24.9731,23.3359 Q24.3423,22.7549 23.7488,22.4851 Q23.1553,22.2153 22.5244,22.2153 Q21.1797,22.2153 20.4949,23.282 Q19.8101,24.3486 19.8101,26.4487 Q19.8101,28.5405 20.4949,29.6072 Q21.1797,30.6738 22.5244,30.6738 Q23.1553,30.6738 23.7488,30.4041 Q24.3423,30.1343 24.9731,29.5532 Z " fill="#000000"/><text fill="#000000" font-family="sans-serif" font-size="14" lengthAdjust="spacing" textLength="25" x="113.5" y="25.5352">Tile</text><text fill="#000000" font-family="sans-serif" font-size="10" lengthAdjust="spacing" textLength="179" x="36.5" y="38.1563">nz.ac.vuw.ecs.swen225.gp22.domain</text></g></a><!--MD5=[cad22db9452786360285b359953161cc]
reverse link nz.ac.vuw.ecs.swen225.gp22.domain.Tile to nz.ac.vuw.ecs.swen225.gp22.domain.Chap--><g id="link_nz.ac.vuw.ecs.swen225.gp22.domain.Tile_nz.ac.vuw.ecs.swen225.gp22.domain.Chap"><path codeLine="32" d="M113,65.7 C113,77.1 113,90.43 113,104.89 " fill="none" id="nz.ac.vuw.ecs.swen225.gp22.domain.Tile-backto-nz.ac.vuw.ecs.swen225.gp22.domain.Chap" style="stroke:#181818;stroke-width:1.0;"/><polygon fill="none" points="106,65.29,113,45.29,120,65.29,106,65.29" style="stroke:#181818;stroke-width:1.0;"/></g><rect fill="none" height="11.7773" style="stroke:none;stroke-width:1.0;" width="182" x="15" y="528.0078"/><text fill="#888888" font-family="sans-serif" font-size="10" lengthAdjust="spacing" textLength="182" x="15" y="537.6758">UMLDoclet 2.0.19, PlantUML 1.2022.8</text><!--MD5=[589a5c7146b4690de90cffd0b82f7fd5]
@startuml
    set namespaceSeparator none
    hide empty fields
    hide empty methods

    class "<size:14>Chap\n<size:10>nz.ac.vuw.ecs.swen225.gp22.domain" as nz.ac.vuw.ecs.swen225.gp22.domain.Chap [[Chap.html]] {
        +chest: ArrayList<Tile>
        +won: boolean
        +l: Location
        +m: Maze
        +s: State
        +icon: Img
        +Chap(Location, Maze)
        +getImg(): Img
        +getChest(): ArrayList<Tile>
        +getLocation(): Location
        +getOnInfo(): boolean
        +removeKey(Key): void
        +won(): boolean
        +setWin(): void
        +setMaze(Maze): void
        +moveUp(): void
        +moveDown(): void
        +moveRight(): void
        +moveLeft(): void
        +changeState(State): void
        +addToChest(Tile): void
        +removeFromChest(): void
    }

    class "<size:14>Tile\n<size:10>nz.ac.vuw.ecs.swen225.gp22.domain" as nz.ac.vuw.ecs.swen225.gp22.domain.Tile [[Tile.html]]

    nz.ac.vuw.ecs.swen225.gp22.domain.Tile <|- - nz.ac.vuw.ecs.swen225.gp22.domain.Chap

    center footer UMLDoclet 2.0.19, PlantUML 1.2022.8
@enduml

PlantUML version 1.2022.8(Sun Sep 25 22:00:33 NZDT 2022)
(APACHE source distribution)
Java Runtime: Java(TM) SE Runtime Environment
JVM: Java HotSpot(TM) 64-Bit Server VM
Default Encoding: UTF-8
Language: en
Country: AU
--></g></svg>