<?xml version="1.0" encoding="UTF-8" standalone="no"?><svg xmlns="http://www.w3.org/2000/svg" xmlns:xlink="http://www.w3.org/1999/xlink" contentStyleType="text/css" height="250px" preserveAspectRatio="none" style="width:229px;height:250px;background:#FFFFFF;" version="1.1" viewBox="0 0 229 250" width="229px" zoomAndPan="magnify"><defs/><g><!--MD5=[a1c5a2c6632b13a22bf0ab6e00cc6658]
class nz.ac.vuw.ecs.swen225.gp22.domain.Exit--><a href="Exit.html" target="_top" title="Exit.html" xlink:actuate="onRequest" xlink:href="Exit.html" xlink:show="new" xlink:title="Exit.html" xlink:type="simple"><g id="elem_nz.ac.vuw.ecs.swen225.gp22.domain.Exit"><rect codeLine="5" fill="#F1F1F1" height="120.2188" id="nz.ac.vuw.ecs.swen225.gp22.domain.Exit" rx="2.5" ry="2.5" style="stroke:#181818;stroke-width:0.5;" width="215" x="7" y="105"/><ellipse cx="23.8" cy="124.1328" fill="#ADD1B2" rx="11" ry="11" style="stroke:#181818;stroke-width:1.0;"/><path d="M26.2731,130.2759 Q25.6921,130.5747 25.0529,130.7241 Q24.4138,130.8735 23.7082,130.8735 Q21.2014,130.8735 19.8815,129.2217 Q18.5617,127.5698 18.5617,124.4487 Q18.5617,121.3193 19.8815,119.6675 Q21.2014,118.0156 23.7082,118.0156 Q24.4138,118.0156 25.0612,118.165 Q25.7087,118.3145 26.2731,118.6133 L26.2731,121.3359 Q25.6423,120.7549 25.0488,120.4851 Q24.4553,120.2153 23.8244,120.2153 Q22.4797,120.2153 21.7949,121.282 Q21.1101,122.3486 21.1101,124.4487 Q21.1101,126.5405 21.7949,127.6072 Q22.4797,128.6738 23.8244,128.6738 Q24.4553,128.6738 25.0488,128.4041 Q25.6423,128.1343 26.2731,127.5532 Z " fill="#000000"/><text fill="#000000" font-family="sans-serif" font-size="14" lengthAdjust="spacing" textLength="26" x="114.7" y="123.5352">Exit</text><text fill="#000000" font-family="sans-serif" font-size="10" lengthAdjust="spacing" textLength="179" x="38.2" y="136.1563">nz.ac.vuw.ecs.swen225.gp22.domain</text><line style="stroke:#181818;stroke-width:0.5;" x1="8" x2="221" y1="143.2656" y2="143.2656"/><ellipse cx="18" cy="157.0098" fill="none" rx="3" ry="3" style="stroke:#038048;stroke-width:1.0;"/><text fill="#000000" font-family="sans-serif" font-size="14" lengthAdjust="spacing" textLength="63" x="27" y="160.8008">icon: Img</text><line style="stroke:#181818;stroke-width:0.5;" x1="8" x2="221" y1="167.7539" y2="167.7539"/><ellipse cx="18" cy="181.498" fill="#84BE84" rx="3" ry="3" style="stroke:#038048;stroke-width:1.0;"/><text fill="#000000" font-family="sans-serif" font-size="14" lengthAdjust="spacing" textLength="94" x="27" y="185.2891">Exit(Location)</text><ellipse cx="18" cy="197.9863" fill="#84BE84" rx="3" ry="3" style="stroke:#038048;stroke-width:1.0;"/><text fill="#000000" font-family="sans-serif" font-size="14" lengthAdjust="spacing" textLength="189" x="27" y="201.7773">CanWalkOn(Chap): boolean</text><ellipse cx="18" cy="214.4746" fill="#84BE84" rx="3" ry="3" style="stroke:#038048;stroke-width:1.0;"/><text fill="#000000" font-family="sans-serif" font-size="14" lengthAdjust="spacing" textLength="92" x="27" y="218.2656">getImg(): Img</text></g></a><!--MD5=[186e21ba2cd9930336d13f364b5bb404]
class nz.ac.vuw.ecs.swen225.gp22.domain.Tile--><a href="Tile.html" target="_top" title="Tile.html" xlink:actuate="onRequest" xlink:href="Tile.html" xlink:show="new" xlink:title="Tile.html" xlink:type="simple"><g id="elem_nz.ac.vuw.ecs.swen225.gp22.domain.Tile"><rect codeLine="12" fill="#F1F1F1" height="38.2656" id="nz.ac.vuw.ecs.swen225.gp22.domain.Tile" rx="2.5" ry="2.5" style="stroke:#181818;stroke-width:0.5;" width="211" x="9" y="7"/><ellipse cx="24" cy="26.1328" fill="#ADD1B2" rx="11" ry="11" style="stroke:#181818;stroke-width:1.0;"/><path d="M26.4731,32.2759 Q25.8921,32.5747 25.2529,32.7241 Q24.6138,32.8735 23.9082,32.8735 Q21.4014,32.8735 20.0815,31.2217 Q18.7617,29.5698 18.7617,26.4487 Q18.7617,23.3193 20.0815,21.6675 Q21.4014,20.0156 23.9082,20.0156 Q24.6138,20.0156 25.2612,20.165 Q25.9087,20.3145 26.4731,20.6133 L26.4731,23.3359 Q25.8423,22.7549 25.2488,22.4851 Q24.6553,22.2153 24.0244,22.2153 Q22.6797,22.2153 21.9949,23.282 Q21.3101,24.3486 21.3101,26.4487 Q21.3101,28.5405 21.9949,29.6072 Q22.6797,30.6738 24.0244,30.6738 Q24.6553,30.6738 25.2488,30.4041 Q25.8423,30.1343 26.4731,29.5532 Z " fill="#000000"/><text fill="#000000" font-family="sans-serif" font-size="14" lengthAdjust="spacing" textLength="25" x="115" y="25.5352">Tile</text><text fill="#000000" font-family="sans-serif" font-size="10" lengthAdjust="spacing" textLength="179" x="38" y="38.1563">nz.ac.vuw.ecs.swen225.gp22.domain</text></g></a><!--MD5=[246e6b40cdb9e1597e9fbf7cbde8f60b]
reverse link nz.ac.vuw.ecs.swen225.gp22.domain.Tile to nz.ac.vuw.ecs.swen225.gp22.domain.Exit--><g id="link_nz.ac.vuw.ecs.swen225.gp22.domain.Tile_nz.ac.vuw.ecs.swen225.gp22.domain.Exit"><path codeLine="14" d="M114.5,65.53 C114.5,77.7 114.5,91.44 114.5,104.71 " fill="none" id="nz.ac.vuw.ecs.swen225.gp22.domain.Tile-backto-nz.ac.vuw.ecs.swen225.gp22.domain.Exit" style="stroke:#181818;stroke-width:1.0;"/><polygon fill="none" points="107.5,65.19,114.5,45.19,121.5,65.19,107.5,65.19" style="stroke:#181818;stroke-width:1.0;"/></g><rect fill="none" height="11.7773" style="stroke:none;stroke-width:1.0;" width="182" x="16.5" y="231.2188"/><text fill="#888888" font-family="sans-serif" font-size="10" lengthAdjust="spacing" textLength="182" x="16.5" y="240.8867">UMLDoclet 2.0.19, PlantUML 1.2022.8</text><!--MD5=[e13ec97c4395eebcac36e65e50f6a1d1]
@startuml
    set namespaceSeparator none
    hide empty fields
    hide empty methods

    class "<size:14>Exit\n<size:10>nz.ac.vuw.ecs.swen225.gp22.domain" as nz.ac.vuw.ecs.swen225.gp22.domain.Exit [[Exit.html]] {
        +icon: Img
        +Exit(Location)
        +CanWalkOn(Chap): boolean
        +getImg(): Img
    }

    class "<size:14>Tile\n<size:10>nz.ac.vuw.ecs.swen225.gp22.domain" as nz.ac.vuw.ecs.swen225.gp22.domain.Tile [[Tile.html]]

    nz.ac.vuw.ecs.swen225.gp22.domain.Tile <|- - nz.ac.vuw.ecs.swen225.gp22.domain.Exit

    center footer UMLDoclet 2.0.19, PlantUML 1.2022.8
@enduml

PlantUML version 1.2022.8(Sun Sep 25 22:00:33 NZDT 2022)
(APACHE source distribution)
Java Runtime: Java(TM) SE Runtime Environment
JVM: Java HotSpot(TM) 64-Bit Server VM
Default Encoding: UTF-8
Language: en
Country: AU
--></g></svg>