<?xml version="1.0" encoding="UTF-8" standalone="no"?><svg xmlns="http://www.w3.org/2000/svg" xmlns:xlink="http://www.w3.org/1999/xlink" contentStyleType="text/css" height="381px" preserveAspectRatio="none" style="width:242px;height:381px;background:#FFFFFF;" version="1.1" viewBox="0 0 242 381" width="242px" zoomAndPan="magnify"><defs/><g><!--MD5=[b81c54c39d376dd6e1078b70c951983d]
class nz.ac.vuw.ecs.swen225.gp22.domain.Key--><a href="Key.html" target="_top" title="Key.html" xlink:actuate="onRequest" xlink:href="Key.html" xlink:show="new" xlink:title="Key.html" xlink:type="simple"><g id="elem_nz.ac.vuw.ecs.swen225.gp22.domain.Key"><rect codeLine="5" fill="#F1F1F1" height="153.1953" id="nz.ac.vuw.ecs.swen225.gp22.domain.Key" rx="2.5" ry="2.5" style="stroke:#181818;stroke-width:0.5;" width="228" x="7" y="105"/><ellipse cx="29.65" cy="124.1328" fill="#ADD1B2" rx="11" ry="11" style="stroke:#181818;stroke-width:1.0;"/><path d="M32.1231,130.2759 Q31.5421,130.5747 30.9029,130.7241 Q30.2638,130.8735 29.5582,130.8735 Q27.0514,130.8735 25.7315,129.2217 Q24.4117,127.5698 24.4117,124.4487 Q24.4117,121.3193 25.7315,119.6675 Q27.0514,118.0156 29.5582,118.0156 Q30.2638,118.0156 30.9112,118.165 Q31.5587,118.3145 32.1231,118.6133 L32.1231,121.3359 Q31.4923,120.7549 30.8988,120.4851 Q30.3053,120.2153 29.6744,120.2153 Q28.3297,120.2153 27.6449,121.282 Q26.9601,122.3486 26.9601,124.4487 Q26.9601,126.5405 27.6449,127.6072 Q28.3297,128.6738 29.6744,128.6738 Q30.3053,128.6738 30.8988,128.4041 Q31.4923,128.1343 32.1231,127.5532 Z " fill="#000000"/><text fill="#000000" font-family="sans-serif" font-size="14" lengthAdjust="spacing" textLength="24" x="122.85" y="123.5352">Key</text><text fill="#000000" font-family="sans-serif" font-size="10" lengthAdjust="spacing" textLength="179" x="45.35" y="136.1563">nz.ac.vuw.ecs.swen225.gp22.domain</text><line style="stroke:#181818;stroke-width:0.5;" x1="8" x2="234" y1="143.2656" y2="143.2656"/><ellipse cx="18" cy="157.0098" fill="none" rx="3" ry="3" style="stroke:#038048;stroke-width:1.0;"/><text fill="#000000" font-family="sans-serif" font-size="14" lengthAdjust="spacing" textLength="66" x="27" y="160.8008">col: Color</text><ellipse cx="18" cy="173.498" fill="none" rx="3" ry="3" style="stroke:#038048;stroke-width:1.0;"/><text fill="#000000" font-family="sans-serif" font-size="14" lengthAdjust="spacing" textLength="63" x="27" y="177.2891">icon: Img</text><line style="stroke:#181818;stroke-width:0.5;" x1="8" x2="234" y1="184.2422" y2="184.2422"/><ellipse cx="18" cy="197.9863" fill="#84BE84" rx="3" ry="3" style="stroke:#038048;stroke-width:1.0;"/><text fill="#000000" font-family="sans-serif" font-size="14" lengthAdjust="spacing" textLength="202" x="27" y="201.7773">Key(Location, Color, boolean)</text><ellipse cx="18" cy="214.4746" fill="#84BE84" rx="3" ry="3" style="stroke:#038048;stroke-width:1.0;"/><text fill="#000000" font-family="sans-serif" font-size="14" lengthAdjust="spacing" textLength="189" x="27" y="218.2656">CanWalkOn(Chap): boolean</text><ellipse cx="18" cy="230.9629" fill="#84BE84" rx="3" ry="3" style="stroke:#038048;stroke-width:1.0;"/><text fill="#000000" font-family="sans-serif" font-size="14" lengthAdjust="spacing" textLength="116" x="27" y="234.7539">getColor(): Color</text><ellipse cx="18" cy="247.4512" fill="#84BE84" rx="3" ry="3" style="stroke:#038048;stroke-width:1.0;"/><text fill="#000000" font-family="sans-serif" font-size="14" lengthAdjust="spacing" textLength="92" x="27" y="251.2422">getImg(): Img</text></g></a><!--MD5=[186e21ba2cd9930336d13f364b5bb404]
class nz.ac.vuw.ecs.swen225.gp22.domain.Tile--><a href="Tile.html" target="_top" title="Tile.html" xlink:actuate="onRequest" xlink:href="Tile.html" xlink:show="new" xlink:title="Tile.html" xlink:type="simple"><g id="elem_nz.ac.vuw.ecs.swen225.gp22.domain.Tile"><rect codeLine="14" fill="#F1F1F1" height="38.2656" id="nz.ac.vuw.ecs.swen225.gp22.domain.Tile" rx="2.5" ry="2.5" style="stroke:#181818;stroke-width:0.5;" width="211" x="15.5" y="7"/><ellipse cx="30.5" cy="26.1328" fill="#ADD1B2" rx="11" ry="11" style="stroke:#181818;stroke-width:1.0;"/><path d="M32.9731,32.2759 Q32.3921,32.5747 31.7529,32.7241 Q31.1138,32.8735 30.4082,32.8735 Q27.9014,32.8735 26.5815,31.2217 Q25.2617,29.5698 25.2617,26.4487 Q25.2617,23.3193 26.5815,21.6675 Q27.9014,20.0156 30.4082,20.0156 Q31.1138,20.0156 31.7612,20.165 Q32.4087,20.3145 32.9731,20.6133 L32.9731,23.3359 Q32.3423,22.7549 31.7488,22.4851 Q31.1553,22.2153 30.5244,22.2153 Q29.1797,22.2153 28.4949,23.282 Q27.8101,24.3486 27.8101,26.4487 Q27.8101,28.5405 28.4949,29.6072 Q29.1797,30.6738 30.5244,30.6738 Q31.1553,30.6738 31.7488,30.4041 Q32.3423,30.1343 32.9731,29.5532 Z " fill="#000000"/><text fill="#000000" font-family="sans-serif" font-size="14" lengthAdjust="spacing" textLength="25" x="121.5" y="25.5352">Tile</text><text fill="#000000" font-family="sans-serif" font-size="10" lengthAdjust="spacing" textLength="179" x="44.5" y="38.1563">nz.ac.vuw.ecs.swen225.gp22.domain</text></g></a><!--MD5=[5c50e8bf741917662dd8f1b2885660f3]
class nz.ac.vuw.ecs.swen225.gp22.domain.Key.Color--><a href="Key.Color.html" target="_top" title="Key.Color.html" xlink:actuate="onRequest" xlink:href="Key.Color.html" xlink:show="new" xlink:title="Key.Color.html" xlink:type="simple"><g id="elem_nz.ac.vuw.ecs.swen225.gp22.domain.Key.Color"><rect codeLine="15" fill="#F1F1F1" height="38.2656" id="nz.ac.vuw.ecs.swen225.gp22.domain.Key.Color" rx="2.5" ry="2.5" style="stroke:#181818;stroke-width:0.5;" width="211" x="15.5" y="318"/><ellipse cx="30.5" cy="337.1328" fill="#EB937F" rx="11" ry="11" style="stroke:#181818;stroke-width:1.0;"/><path d="M34.1143,343.6328 L26.3945,343.6328 L26.3945,331.2397 L34.1143,331.2397 L34.1143,333.3979 L28.8433,333.3979 L28.8433,336.0708 L33.6162,336.0708 L33.6162,338.229 L28.8433,338.229 L28.8433,341.4746 L34.1143,341.4746 Z " fill="#000000"/><text fill="#000000" font-family="sans-serif" font-size="14" lengthAdjust="spacing" textLength="66" x="101" y="336.5352">Key.Color</text><text fill="#000000" font-family="sans-serif" font-size="10" lengthAdjust="spacing" textLength="179" x="44.5" y="349.1563">nz.ac.vuw.ecs.swen225.gp22.domain</text></g></a><!--MD5=[1a8fd11747d62f6bfa9c19c0044cdf49]
reverse link nz.ac.vuw.ecs.swen225.gp22.domain.Tile to nz.ac.vuw.ecs.swen225.gp22.domain.Key--><g id="link_nz.ac.vuw.ecs.swen225.gp22.domain.Tile_nz.ac.vuw.ecs.swen225.gp22.domain.Key"><path codeLine="17" d="M121,65.26 C121,77.32 121,91.1 121,104.83 " fill="none" id="nz.ac.vuw.ecs.swen225.gp22.domain.Tile-backto-nz.ac.vuw.ecs.swen225.gp22.domain.Key" style="stroke:#181818;stroke-width:1.0;"/><polygon fill="none" points="114,65.21,121,45.21,128,65.21,114,65.21" style="stroke:#181818;stroke-width:1.0;"/></g><!--MD5=[237d001ebe759326445c15fe6b0678ea]
reverse link nz.ac.vuw.ecs.swen225.gp22.domain.Key to nz.ac.vuw.ecs.swen225.gp22.domain.Key.Color--><g id="link_nz.ac.vuw.ecs.swen225.gp22.domain.Key_nz.ac.vuw.ecs.swen225.gp22.domain.Key.Color"><path codeLine="18" d="M121,273.37 C121,290.29 121,306.26 121,317.83 " fill="none" id="nz.ac.vuw.ecs.swen225.gp22.domain.Key-backto-nz.ac.vuw.ecs.swen225.gp22.domain.Key.Color" style="stroke:#181818;stroke-width:1.0;"/><ellipse cx="121" cy="266.35" fill="#FFFFFF" rx="8" ry="8" style="stroke:#181818;stroke-width:1.0;"/><line style="stroke:#181818;stroke-width:1.0;" x1="121" x2="121" y1="274.35" y2="258.35"/><line style="stroke:#181818;stroke-width:1.0;" x1="113" x2="129" y1="266.35" y2="266.35"/></g><rect fill="none" height="11.7773" style="stroke:none;stroke-width:1.0;" width="182" x="23" y="361.2656"/><text fill="#888888" font-family="sans-serif" font-size="10" lengthAdjust="spacing" textLength="182" x="23" y="370.9336">UMLDoclet 2.0.19, PlantUML 1.2022.8</text><!--MD5=[efb9cca11f94f82bcba05cd0a7ba47b6]
@startuml
    set namespaceSeparator none
    hide empty fields
    hide empty methods

    class "<size:14>Key\n<size:10>nz.ac.vuw.ecs.swen225.gp22.domain" as nz.ac.vuw.ecs.swen225.gp22.domain.Key [[Key.html]] {
        +col: Color
        +icon: Img
        +Key(Location, Color, boolean)
        +CanWalkOn(Chap): boolean
        +getColor(): Color
        +getImg(): Img
    }

    class "<size:14>Tile\n<size:10>nz.ac.vuw.ecs.swen225.gp22.domain" as nz.ac.vuw.ecs.swen225.gp22.domain.Tile [[Tile.html]]
    enum "<size:14>Key.Color\n<size:10>nz.ac.vuw.ecs.swen225.gp22.domain" as nz.ac.vuw.ecs.swen225.gp22.domain.Key.Color [[Key.Color.html]]

    nz.ac.vuw.ecs.swen225.gp22.domain.Tile <|- - nz.ac.vuw.ecs.swen225.gp22.domain.Key
    nz.ac.vuw.ecs.swen225.gp22.domain.Key +- - nz.ac.vuw.ecs.swen225.gp22.domain.Key.Color

    center footer UMLDoclet 2.0.19, PlantUML 1.2022.8
@enduml

PlantUML version 1.2022.8(Sun Sep 25 22:00:33 NZDT 2022)
(APACHE source distribution)
Java Runtime: Java(TM) SE Runtime Environment
JVM: Java HotSpot(TM) 64-Bit Server VM
Default Encoding: UTF-8
Language: en
Country: AU
--></g></svg>