<?xml version="1.0" encoding="UTF-8" standalone="no"?><svg xmlns="http://www.w3.org/2000/svg" xmlns:xlink="http://www.w3.org/1999/xlink" contentStyleType="text/css" height="351px" preserveAspectRatio="none" style="width:333px;height:351px;background:#FFFFFF;" version="1.1" viewBox="0 0 333 351" width="333px" zoomAndPan="magnify"><defs/><g><!--MD5=[02e57345d016cacb810ea02e8ecd6a98]
class nz.ac.vuw.ecs.swen225.gp22.domain.Maze--><a href="Maze.html" target="_top" title="Maze.html" xlink:actuate="onRequest" xlink:href="Maze.html" xlink:show="new" xlink:title="Maze.html" xlink:type="simple"><g id="elem_nz.ac.vuw.ecs.swen225.gp22.domain.Maze"><rect codeLine="5" fill="#F1F1F1" height="318.0781" id="nz.ac.vuw.ecs.swen225.gp22.domain.Maze" rx="2.5" ry="2.5" style="stroke:#181818;stroke-width:0.5;" width="312" x="7" y="7"/><ellipse cx="69.25" cy="26.1328" fill="#ADD1B2" rx="11" ry="11" style="stroke:#181818;stroke-width:1.0;"/><path d="M71.7231,32.2759 Q71.1421,32.5747 70.5029,32.7241 Q69.8638,32.8735 69.1582,32.8735 Q66.6514,32.8735 65.3315,31.2217 Q64.0117,29.5698 64.0117,26.4487 Q64.0117,23.3193 65.3315,21.6675 Q66.6514,20.0156 69.1582,20.0156 Q69.8638,20.0156 70.5112,20.165 Q71.1587,20.3145 71.7231,20.6133 L71.7231,23.3359 Q71.0923,22.7549 70.4988,22.4851 Q69.9053,22.2153 69.2744,22.2153 Q67.9297,22.2153 67.2449,23.282 Q66.5601,24.3486 66.5601,26.4487 Q66.5601,28.5405 67.2449,29.6072 Q67.9297,30.6738 69.2744,30.6738 Q69.9053,30.6738 70.4988,30.4041 Q71.0923,30.1343 71.7231,29.5532 Z " fill="#000000"/><text fill="#000000" font-family="sans-serif" font-size="14" lengthAdjust="spacing" textLength="36" x="161.25" y="25.5352">Maze</text><text fill="#000000" font-family="sans-serif" font-size="10" lengthAdjust="spacing" textLength="179" x="89.75" y="38.1563">nz.ac.vuw.ecs.swen225.gp22.domain</text><line style="stroke:#181818;stroke-width:0.5;" x1="8" x2="318" y1="45.2656" y2="45.2656"/><ellipse cx="18" cy="59.0098" fill="none" rx="3" ry="3" style="stroke:#038048;stroke-width:1.0;"/><text fill="#000000" font-family="sans-serif" font-size="14" lengthAdjust="spacing" textLength="53" x="27" y="62.8008">lv: Level</text><ellipse cx="18" cy="75.498" fill="none" rx="3" ry="3" style="stroke:#038048;stroke-width:1.0;"/><text fill="#000000" font-family="sans-serif" font-size="14" lengthAdjust="spacing" textLength="86" x="27" y="79.2891">player: Chap</text><ellipse cx="18" cy="91.9863" fill="none" rx="3" ry="3" style="stroke:#038048;stroke-width:1.0;"/><text fill="#000000" font-family="sans-serif" font-size="14" lengthAdjust="spacing" textLength="94" x="27" y="95.7773">numItems: int</text><ellipse cx="18" cy="108.4746" fill="none" rx="3" ry="3" style="stroke:#038048;stroke-width:1.0;"/><text fill="#000000" font-family="sans-serif" font-size="14" lengthAdjust="spacing" textLength="95" x="27" y="112.2656">info: InfoField</text><ellipse cx="18" cy="124.9629" fill="none" rx="3" ry="3" style="stroke:#038048;stroke-width:1.0;"/><text fill="#000000" font-family="sans-serif" font-size="14" lengthAdjust="spacing" textLength="116" x="27" y="128.7539">infoLoc: Location</text><line style="stroke:#181818;stroke-width:0.5;" x1="8" x2="318" y1="135.707" y2="135.707"/><ellipse cx="18" cy="149.4512" fill="#84BE84" rx="3" ry="3" style="stroke:#038048;stroke-width:1.0;"/><text fill="#000000" font-family="sans-serif" font-size="14" lengthAdjust="spacing" textLength="132" x="27" y="153.2422">Maze(Level, int, int)</text><ellipse cx="18" cy="165.9395" fill="#84BE84" rx="3" ry="3" style="stroke:#038048;stroke-width:1.0;"/><text fill="#000000" font-family="sans-serif" font-size="14" lengthAdjust="spacing" textLength="181" x="27" y="169.7305">removeTile(Location): void</text><ellipse cx="18" cy="182.4277" fill="#84BE84" rx="3" ry="3" style="stroke:#038048;stroke-width:1.0;"/><text fill="#000000" font-family="sans-serif" font-size="14" lengthAdjust="spacing" textLength="104" x="27" y="186.2188">safeGrid(): void</text><ellipse cx="18" cy="198.916" fill="#84BE84" rx="3" ry="3" style="stroke:#038048;stroke-width:1.0;"/><text fill="#000000" font-family="sans-serif" font-size="14" lengthAdjust="spacing" textLength="212" x="27" y="202.707">allowAction(Location): boolean</text><ellipse cx="18" cy="215.4043" fill="#84BE84" rx="3" ry="3" style="stroke:#038048;stroke-width:1.0;"/><text fill="#000000" font-family="sans-serif" font-size="14" lengthAdjust="spacing" textLength="151" x="27" y="219.1953">numOfTreasures(): int</text><ellipse cx="18" cy="231.8926" fill="#84BE84" rx="3" ry="3" style="stroke:#038048;stroke-width:1.0;"/><text fill="#000000" font-family="sans-serif" font-size="14" lengthAdjust="spacing" textLength="104" x="27" y="235.6836">getGrid(): Tile[]</text><ellipse cx="18" cy="248.3809" fill="#84BE84" rx="3" ry="3" style="stroke:#038048;stroke-width:1.0;"/><text fill="#000000" font-family="sans-serif" font-size="14" lengthAdjust="spacing" textLength="184" x="27" y="252.1719">setChapLoc(Location): void</text><ellipse cx="18" cy="264.8691" fill="#84BE84" rx="3" ry="3" style="stroke:#038048;stroke-width:1.0;"/><text fill="#000000" font-family="sans-serif" font-size="14" lengthAdjust="spacing" textLength="286" x="27" y="268.6602">setActorLocation(Location, Location): void</text><ellipse cx="18" cy="281.3574" fill="#84BE84" rx="3" ry="3" style="stroke:#038048;stroke-width:1.0;"/><text fill="#000000" font-family="sans-serif" font-size="14" lengthAdjust="spacing" textLength="108" x="27" y="285.1484">getLevel(): Level</text><ellipse cx="18" cy="297.8457" fill="#84BE84" rx="3" ry="3" style="stroke:#038048;stroke-width:1.0;"/><text fill="#000000" font-family="sans-serif" font-size="14" lengthAdjust="spacing" textLength="112" x="27" y="301.6367">getChap(): Chap</text><ellipse cx="18" cy="314.334" fill="#84BE84" rx="3" ry="3" style="stroke:#038048;stroke-width:1.0;"/><text fill="#000000" font-family="sans-serif" font-size="14" lengthAdjust="spacing" textLength="160" x="27" y="318.125">getInfoField(): InfoField</text></g></a><rect fill="none" height="11.7773" style="stroke:none;stroke-width:1.0;" width="182" x="71.5" y="332.0781"/><text fill="#888888" font-family="sans-serif" font-size="10" lengthAdjust="spacing" textLength="182" x="71.5" y="341.7461">UMLDoclet 2.0.19, PlantUML 1.2022.8</text><!--MD5=[9c235f46cabb13f07c2252e0ef3a4af5]
@startuml
    set namespaceSeparator none
    hide empty fields
    hide empty methods

    class "<size:14>Maze\n<size:10>nz.ac.vuw.ecs.swen225.gp22.domain" as nz.ac.vuw.ecs.swen225.gp22.domain.Maze [[Maze.html]] {
        +lv: Level
        +player: Chap
        +numItems: int
        +info: InfoField
        +infoLoc: Location
        +Maze(Level, int, int)
        +removeTile(Location): void
        +safeGrid(): void
        +allowAction(Location): boolean
        +numOfTreasures(): int
        +getGrid(): Tile[]
        +setChapLoc(Location): void
        +setActorLocation(Location, Location): void
        +getLevel(): Level
        +getChap(): Chap
        +getInfoField(): InfoField
    }

    center footer UMLDoclet 2.0.19, PlantUML 1.2022.8
@enduml

PlantUML version 1.2022.8(Sun Sep 25 22:00:33 NZDT 2022)
(APACHE source distribution)
Java Runtime: Java(TM) SE Runtime Environment
JVM: Java HotSpot(TM) 64-Bit Server VM
Default Encoding: UTF-8
Language: en
Country: AU
--></g></svg>