<?xml version="1.0" encoding="UTF-8" standalone="no"?><svg xmlns="http://www.w3.org/2000/svg" xmlns:xlink="http://www.w3.org/1999/xlink" contentStyleType="text/css" height="308px" preserveAspectRatio="none" style="width:229px;height:308px;background:#FFFFFF;" version="1.1" viewBox="0 0 229 308" width="229px" zoomAndPan="magnify"><defs/><g><!--MD5=[186e21ba2cd9930336d13f364b5bb404]
class nz.ac.vuw.ecs.swen225.gp22.domain.Tile--><a href="Tile.html" target="_top" title="Tile.html" xlink:actuate="onRequest" xlink:href="Tile.html" xlink:show="new" xlink:title="Tile.html" xlink:type="simple"><g id="elem_nz.ac.vuw.ecs.swen225.gp22.domain.Tile"><rect codeLine="5" fill="#F1F1F1" height="136.707" id="nz.ac.vuw.ecs.swen225.gp22.domain.Tile" rx="2.5" ry="2.5" style="stroke:#181818;stroke-width:0.5;" width="215" x="7" y="146"/><ellipse cx="23.8" cy="165.1328" fill="#ADD1B2" rx="11" ry="11" style="stroke:#181818;stroke-width:1.0;"/><path d="M26.2731,171.2759 Q25.6921,171.5747 25.0529,171.7241 Q24.4138,171.8735 23.7082,171.8735 Q21.2014,171.8735 19.8815,170.2217 Q18.5617,168.5698 18.5617,165.4487 Q18.5617,162.3193 19.8815,160.6675 Q21.2014,159.0156 23.7082,159.0156 Q24.4138,159.0156 25.0612,159.165 Q25.7087,159.3145 26.2731,159.6133 L26.2731,162.3359 Q25.6423,161.7549 25.0488,161.4851 Q24.4553,161.2153 23.8244,161.2153 Q22.4797,161.2153 21.7949,162.282 Q21.1101,163.3486 21.1101,165.4487 Q21.1101,167.5405 21.7949,168.6072 Q22.4797,169.6738 23.8244,169.6738 Q24.4553,169.6738 25.0488,169.4041 Q25.6423,169.1343 26.2731,168.5532 Z " fill="#000000"/><text fill="#000000" font-family="sans-serif" font-size="14" lengthAdjust="spacing" textLength="25" x="115.2" y="164.5352">Tile</text><text fill="#000000" font-family="sans-serif" font-size="10" lengthAdjust="spacing" textLength="179" x="38.2" y="177.1563">nz.ac.vuw.ecs.swen225.gp22.domain</text><line style="stroke:#181818;stroke-width:0.5;" x1="8" x2="221" y1="184.2656" y2="184.2656"/><ellipse cx="18" cy="198.0098" fill="none" rx="3" ry="3" style="stroke:#038048;stroke-width:1.0;"/><text fill="#000000" font-family="sans-serif" font-size="14" lengthAdjust="spacing" textLength="70" x="27" y="201.8008">l: Location</text><line style="stroke:#181818;stroke-width:0.5;" x1="8" x2="221" y1="208.7539" y2="208.7539"/><ellipse cx="18" cy="222.498" fill="#84BE84" rx="3" ry="3" style="stroke:#038048;stroke-width:1.0;"/><text fill="#000000" font-family="sans-serif" font-size="14" lengthAdjust="spacing" textLength="93" x="27" y="226.2891">Tile(Location)</text><ellipse cx="18" cy="238.9863" fill="#84BE84" rx="3" ry="3" style="stroke:#038048;stroke-width:1.0;"/><text fill="#000000" font-family="sans-serif" font-size="14" lengthAdjust="spacing" textLength="156" x="27" y="242.7773">getLocation(): Location</text><ellipse cx="18" cy="255.4746" fill="#84BE84" rx="3" ry="3" style="stroke:#038048;stroke-width:1.0;"/><text fill="#000000" font-family="sans-serif" font-size="14" lengthAdjust="spacing" textLength="189" x="27" y="259.2656">CanWalkOn(Chap): boolean</text><ellipse cx="18" cy="271.9629" fill="#84BE84" rx="3" ry="3" style="stroke:#038048;stroke-width:1.0;"/><text fill="#000000" font-family="sans-serif" font-size="14" lengthAdjust="spacing" textLength="92" x="27" y="275.7539">getImg(): Img</text></g></a><!--MD5=[c1afd2d57aec8c90a42dc3be3bff6847]
class nz.ac.vuw.ecs.swen225.gp22.domain.Entity--><a href="Entity.html" target="_top" title="Entity.html" xlink:actuate="onRequest" xlink:href="Entity.html" xlink:show="new" xlink:title="Entity.html" xlink:type="simple"><g id="elem_nz.ac.vuw.ecs.swen225.gp22.domain.Entity"><rect codeLine="13" fill="#F1F1F1" height="79.2422" id="nz.ac.vuw.ecs.swen225.gp22.domain.Entity" rx="2.5" ry="2.5" style="stroke:#181818;stroke-width:0.5;" width="215" x="7" y="7"/><ellipse cx="23.8" cy="26.1328" fill="#B4A7E5" rx="11" ry="11" style="stroke:#181818;stroke-width:1.0;"/><path d="M20.2277,22.3979 L20.2277,20.2397 L27.6071,20.2397 L27.6071,22.3979 L25.1418,22.3979 L25.1418,30.4746 L27.6071,30.4746 L27.6071,32.6328 L20.2277,32.6328 L20.2277,30.4746 L22.6931,30.4746 L22.6931,22.3979 Z " fill="#000000"/><text fill="#000000" font-family="sans-serif" font-size="14" font-style="italic" lengthAdjust="spacing" textLength="38" x="108.7" y="25.5352">Entity</text><text fill="#000000" font-family="sans-serif" font-size="10" font-style="italic" lengthAdjust="spacing" textLength="179" x="38.2" y="38.1563">nz.ac.vuw.ecs.swen225.gp22.domain</text><line style="stroke:#181818;stroke-width:0.5;" x1="8" x2="221" y1="45.2656" y2="45.2656"/><ellipse cx="18" cy="59.0098" fill="#84BE84" rx="3" ry="3" style="stroke:#038048;stroke-width:1.0;"/><text fill="#000000" font-family="sans-serif" font-size="14" font-style="italic" lengthAdjust="spacing" textLength="156" x="27" y="62.8008">getLocation(): Location</text><ellipse cx="18" cy="75.498" fill="#84BE84" rx="3" ry="3" style="stroke:#038048;stroke-width:1.0;"/><text fill="#000000" font-family="sans-serif" font-size="14" font-style="italic" lengthAdjust="spacing" textLength="189" x="27" y="79.2891">CanWalkOn(Chap): boolean</text></g></a><!--MD5=[defda57bfcea78666c21177d16ded061]
reverse link nz.ac.vuw.ecs.swen225.gp22.domain.Entity to nz.ac.vuw.ecs.swen225.gp22.domain.Tile--><g id="link_nz.ac.vuw.ecs.swen225.gp22.domain.Entity_nz.ac.vuw.ecs.swen225.gp22.domain.Tile"><path codeLine="18" d="M114.5,106 C114.5,118.91 114.5,132.69 114.5,145.92 " fill="none" id="nz.ac.vuw.ecs.swen225.gp22.domain.Entity-backto-nz.ac.vuw.ecs.swen225.gp22.domain.Tile" style="stroke:#181818;stroke-width:1.0;stroke-dasharray:7.0,7.0;"/><polygon fill="none" points="107.5,106,114.5,86,121.5,106,107.5,106" style="stroke:#181818;stroke-width:1.0;"/></g><rect fill="none" height="11.7773" style="stroke:none;stroke-width:1.0;" width="182" x="16.5" y="288.707"/><text fill="#888888" font-family="sans-serif" font-size="10" lengthAdjust="spacing" textLength="182" x="16.5" y="298.375">UMLDoclet 2.0.19, PlantUML 1.2022.8</text><!--MD5=[163259af4baa405e5516127e0674bfb6]
@startuml
    set namespaceSeparator none
    hide empty fields
    hide empty methods

    class "<size:14>Tile\n<size:10>nz.ac.vuw.ecs.swen225.gp22.domain" as nz.ac.vuw.ecs.swen225.gp22.domain.Tile [[Tile.html]] {
        +l: Location
        +Tile(Location)
        +getLocation(): Location
        +CanWalkOn(Chap): boolean
        +getImg(): Img
    }

    interface "<size:14>Entity\n<size:10>nz.ac.vuw.ecs.swen225.gp22.domain" as nz.ac.vuw.ecs.swen225.gp22.domain.Entity [[Entity.html]] {
        {abstract} +getLocation(): Location
        {abstract} +CanWalkOn(Chap): boolean
    }

    nz.ac.vuw.ecs.swen225.gp22.domain.Entity <|.. nz.ac.vuw.ecs.swen225.gp22.domain.Tile

    center footer UMLDoclet 2.0.19, PlantUML 1.2022.8
@enduml

PlantUML version 1.2022.8(Sun Sep 25 22:00:33 NZDT 2022)
(APACHE source distribution)
Java Runtime: Java(TM) SE Runtime Environment
JVM: Java HotSpot(TM) 64-Bit Server VM
Default Encoding: UTF-8
Language: en
Country: AU
--></g></svg>