<?xml version="1.0" encoding="UTF-8" standalone="no"?><svg xmlns="http://www.w3.org/2000/svg" xmlns:xlink="http://www.w3.org/1999/xlink" contentStyleType="text/css" height="250px" preserveAspectRatio="none" style="width:233px;height:250px;background:#FFFFFF;" version="1.1" viewBox="0 0 233 250" width="233px" zoomAndPan="magnify"><defs/><g><!--MD5=[4b60da5b61a3e23fefdd3f27c344dcba]
class nz.ac.vuw.ecs.swen225.gp22.domain.Treasure--><a href="Treasure.html" target="_top" title="Treasure.html" xlink:actuate="onRequest" xlink:href="Treasure.html" xlink:show="new" xlink:title="Treasure.html" xlink:type="simple"><g id="elem_nz.ac.vuw.ecs.swen225.gp22.domain.Treasure"><rect codeLine="5" fill="#F1F1F1" height="120.2188" id="nz.ac.vuw.ecs.swen225.gp22.domain.Treasure" rx="2.5" ry="2.5" style="stroke:#181818;stroke-width:0.5;" width="219" x="7" y="105"/><ellipse cx="25.6" cy="124.1328" fill="#ADD1B2" rx="11" ry="11" style="stroke:#181818;stroke-width:1.0;"/><path d="M28.0731,130.2759 Q27.4921,130.5747 26.8529,130.7241 Q26.2138,130.8735 25.5082,130.8735 Q23.0014,130.8735 21.6815,129.2217 Q20.3617,127.5698 20.3617,124.4487 Q20.3617,121.3193 21.6815,119.6675 Q23.0014,118.0156 25.5082,118.0156 Q26.2138,118.0156 26.8612,118.165 Q27.5087,118.3145 28.0731,118.6133 L28.0731,121.3359 Q27.4423,120.7549 26.8488,120.4851 Q26.2553,120.2153 25.6244,120.2153 Q24.2797,120.2153 23.5949,121.282 Q22.9101,122.3486 22.9101,124.4487 Q22.9101,126.5405 23.5949,127.6072 Q24.2797,128.6738 25.6244,128.6738 Q26.2553,128.6738 26.8488,128.4041 Q27.4423,128.1343 28.0731,127.5532 Z " fill="#000000"/><text fill="#000000" font-family="sans-serif" font-size="14" lengthAdjust="spacing" textLength="61" x="99.4" y="123.5352">Treasure</text><text fill="#000000" font-family="sans-serif" font-size="10" lengthAdjust="spacing" textLength="179" x="40.4" y="136.1563">nz.ac.vuw.ecs.swen225.gp22.domain</text><line style="stroke:#181818;stroke-width:0.5;" x1="8" x2="225" y1="143.2656" y2="143.2656"/><ellipse cx="18" cy="157.0098" fill="none" rx="3" ry="3" style="stroke:#038048;stroke-width:1.0;"/><text fill="#000000" font-family="sans-serif" font-size="14" lengthAdjust="spacing" textLength="63" x="27" y="160.8008">icon: Img</text><line style="stroke:#181818;stroke-width:0.5;" x1="8" x2="225" y1="167.7539" y2="167.7539"/><ellipse cx="18" cy="181.498" fill="#84BE84" rx="3" ry="3" style="stroke:#038048;stroke-width:1.0;"/><text fill="#000000" font-family="sans-serif" font-size="14" lengthAdjust="spacing" textLength="193" x="27" y="185.2891">Treasure(Location, boolean)</text><ellipse cx="18" cy="197.9863" fill="#84BE84" rx="3" ry="3" style="stroke:#038048;stroke-width:1.0;"/><text fill="#000000" font-family="sans-serif" font-size="14" lengthAdjust="spacing" textLength="189" x="27" y="201.7773">CanWalkOn(Chap): boolean</text><ellipse cx="18" cy="214.4746" fill="#84BE84" rx="3" ry="3" style="stroke:#038048;stroke-width:1.0;"/><text fill="#000000" font-family="sans-serif" font-size="14" lengthAdjust="spacing" textLength="92" x="27" y="218.2656">getImg(): Img</text></g></a><!--MD5=[186e21ba2cd9930336d13f364b5bb404]
class nz.ac.vuw.ecs.swen225.gp22.domain.Tile--><a href="Tile.html" target="_top" title="Tile.html" xlink:actuate="onRequest" xlink:href="Tile.html" xlink:show="new" xlink:title="Tile.html" xlink:type="simple"><g id="elem_nz.ac.vuw.ecs.swen225.gp22.domain.Tile"><rect codeLine="12" fill="#F1F1F1" height="38.2656" id="nz.ac.vuw.ecs.swen225.gp22.domain.Tile" rx="2.5" ry="2.5" style="stroke:#181818;stroke-width:0.5;" width="211" x="11" y="7"/><ellipse cx="26" cy="26.1328" fill="#ADD1B2" rx="11" ry="11" style="stroke:#181818;stroke-width:1.0;"/><path d="M28.4731,32.2759 Q27.8921,32.5747 27.2529,32.7241 Q26.6138,32.8735 25.9082,32.8735 Q23.4014,32.8735 22.0815,31.2217 Q20.7617,29.5698 20.7617,26.4487 Q20.7617,23.3193 22.0815,21.6675 Q23.4014,20.0156 25.9082,20.0156 Q26.6138,20.0156 27.2612,20.165 Q27.9087,20.3145 28.4731,20.6133 L28.4731,23.3359 Q27.8423,22.7549 27.2488,22.4851 Q26.6553,22.2153 26.0244,22.2153 Q24.6797,22.2153 23.9949,23.282 Q23.3101,24.3486 23.3101,26.4487 Q23.3101,28.5405 23.9949,29.6072 Q24.6797,30.6738 26.0244,30.6738 Q26.6553,30.6738 27.2488,30.4041 Q27.8423,30.1343 28.4731,29.5532 Z " fill="#000000"/><text fill="#000000" font-family="sans-serif" font-size="14" lengthAdjust="spacing" textLength="25" x="117" y="25.5352">Tile</text><text fill="#000000" font-family="sans-serif" font-size="10" lengthAdjust="spacing" textLength="179" x="40" y="38.1563">nz.ac.vuw.ecs.swen225.gp22.domain</text></g></a><!--MD5=[f0b3443da3d38fae484ed5dc21fc05f4]
reverse link nz.ac.vuw.ecs.swen225.gp22.domain.Tile to nz.ac.vuw.ecs.swen225.gp22.domain.Treasure--><g id="link_nz.ac.vuw.ecs.swen225.gp22.domain.Tile_nz.ac.vuw.ecs.swen225.gp22.domain.Treasure"><path codeLine="14" d="M116.5,65.53 C116.5,77.7 116.5,91.44 116.5,104.71 " fill="none" id="nz.ac.vuw.ecs.swen225.gp22.domain.Tile-backto-nz.ac.vuw.ecs.swen225.gp22.domain.Treasure" style="stroke:#181818;stroke-width:1.0;"/><polygon fill="none" points="109.5,65.19,116.5,45.19,123.5,65.19,109.5,65.19" style="stroke:#181818;stroke-width:1.0;"/></g><rect fill="none" height="11.7773" style="stroke:none;stroke-width:1.0;" width="182" x="18.5" y="231.2188"/><text fill="#888888" font-family="sans-serif" font-size="10" lengthAdjust="spacing" textLength="182" x="18.5" y="240.8867">UMLDoclet 2.0.19, PlantUML 1.2022.8</text><!--MD5=[c627ecec546b0b9192859c13268c6ee5]
@startuml
    set namespaceSeparator none
    hide empty fields
    hide empty methods

    class "<size:14>Treasure\n<size:10>nz.ac.vuw.ecs.swen225.gp22.domain" as nz.ac.vuw.ecs.swen225.gp22.domain.Treasure [[Treasure.html]] {
        +icon: Img
        +Treasure(Location, boolean)
        +CanWalkOn(Chap): boolean
        +getImg(): Img
    }

    class "<size:14>Tile\n<size:10>nz.ac.vuw.ecs.swen225.gp22.domain" as nz.ac.vuw.ecs.swen225.gp22.domain.Tile [[Tile.html]]

    nz.ac.vuw.ecs.swen225.gp22.domain.Tile <|- - nz.ac.vuw.ecs.swen225.gp22.domain.Treasure

    center footer UMLDoclet 2.0.19, PlantUML 1.2022.8
@enduml

PlantUML version 1.2022.8(Sun Sep 25 22:00:33 NZDT 2022)
(APACHE source distribution)
Java Runtime: Java(TM) SE Runtime Environment
JVM: Java HotSpot(TM) 64-Bit Server VM
Default Encoding: UTF-8
Language: en
Country: AU
--></g></svg>