<?xml version="1.0" encoding="UTF-8" standalone="no"?><svg xmlns="http://www.w3.org/2000/svg" xmlns:xlink="http://www.w3.org/1999/xlink" contentStyleType="text/css" height="235px" preserveAspectRatio="none" style="width:406px;height:235px;background:#FFFFFF;" version="1.1" viewBox="0 0 406 235" width="406px" zoomAndPan="magnify"><defs/><g><!--MD5=[f7e4cc36282130eef4a55ab53aa82092]
class nz.ac.vuw.ecs.swen225.gp22.renderer.StartPanel--><a href="StartPanel.html" target="_top" title="StartPanel.html" xlink:actuate="onRequest" xlink:href="StartPanel.html" xlink:show="new" xlink:title="StartPanel.html" xlink:type="simple"><g id="elem_nz.ac.vuw.ecs.swen225.gp22.renderer.StartPanel"><rect codeLine="5" fill="#F1F1F1" height="79.2422" id="nz.ac.vuw.ecs.swen225.gp22.renderer.StartPanel" rx="2.5" ry="2.5" style="stroke:#181818;stroke-width:0.5;" width="268" x="24.5" y="130"/><ellipse cx="62.45" cy="149.1328" fill="#ADD1B2" rx="11" ry="11" style="stroke:#181818;stroke-width:1.0;"/><path d="M64.9231,155.2759 Q64.3421,155.5747 63.7029,155.7241 Q63.0638,155.8735 62.3582,155.8735 Q59.8514,155.8735 58.5315,154.2217 Q57.2117,152.5698 57.2117,149.4487 Q57.2117,146.3193 58.5315,144.6675 Q59.8514,143.0156 62.3582,143.0156 Q63.0638,143.0156 63.7112,143.165 Q64.3587,143.3145 64.9231,143.6133 L64.9231,146.3359 Q64.2923,145.7549 63.6988,145.4851 Q63.1053,145.2153 62.4744,145.2153 Q61.1297,145.2153 60.4449,146.282 Q59.7601,147.3486 59.7601,149.4487 Q59.7601,151.5405 60.4449,152.6072 Q61.1297,153.6738 62.4744,153.6738 Q63.1053,153.6738 63.6988,153.4041 Q64.2923,153.1343 64.9231,152.5532 Z " fill="#000000"/><text fill="#000000" font-family="sans-serif" font-size="14" lengthAdjust="spacing" textLength="69" x="139.55" y="148.5352">StartPanel</text><text fill="#000000" font-family="sans-serif" font-size="10" lengthAdjust="spacing" textLength="185" x="81.55" y="161.1563">nz.ac.vuw.ecs.swen225.gp22.renderer</text><line style="stroke:#181818;stroke-width:0.5;" x1="25.5" x2="291.5" y1="168.2656" y2="168.2656"/><ellipse cx="35.5" cy="182.0098" fill="#84BE84" rx="3" ry="3" style="stroke:#038048;stroke-width:1.0;"/><text fill="#000000" font-family="sans-serif" font-size="14" lengthAdjust="spacing" textLength="142" x="44.5" y="185.8008">paint(Graphics): void</text><ellipse cx="35.5" cy="198.498" fill="#84BE84" rx="3" ry="3" style="stroke:#038048;stroke-width:1.0;"/><text fill="#000000" font-family="sans-serif" font-size="14" lengthAdjust="spacing" textLength="242" x="44.5" y="202.2891">actionPerformed(ActionEvent): void</text></g></a><!--MD5=[9251eed55ebbbd8b0b3a23318ed1a9ff]
class javax.swing.JLabel--><g id="elem_javax.swing.JLabel"><rect codeLine="10" fill="#F1F1F1" height="38.2656" id="javax.swing.JLabel" rx="2.5" ry="2.5" style="stroke:#181818;stroke-width:0.5;" width="89" x="7" y="19.5"/><ellipse cx="22" cy="38.6328" fill="#ADD1B2" rx="11" ry="11" style="stroke:#181818;stroke-width:1.0;"/><path d="M24.4731,44.7759 Q23.8921,45.0747 23.2529,45.2241 Q22.6138,45.3735 21.9082,45.3735 Q19.4014,45.3735 18.0815,43.7217 Q16.7617,42.0698 16.7617,38.9487 Q16.7617,35.8193 18.0815,34.1675 Q19.4014,32.5156 21.9082,32.5156 Q22.6138,32.5156 23.2612,32.665 Q23.9087,32.8145 24.4731,33.1133 L24.4731,35.8359 Q23.8423,35.2549 23.2488,34.9851 Q22.6553,34.7153 22.0244,34.7153 Q20.6797,34.7153 19.9949,35.782 Q19.3101,36.8486 19.3101,38.9487 Q19.3101,41.0405 19.9949,42.1072 Q20.6797,43.1738 22.0244,43.1738 Q22.6553,43.1738 23.2488,42.9041 Q23.8423,42.6343 24.4731,42.0532 Z " fill="#000000"/><text fill="#000000" font-family="sans-serif" font-size="14" lengthAdjust="spacing" textLength="40" x="44.5" y="38.0352">JLabel</text><text fill="#000000" font-family="sans-serif" font-size="10" lengthAdjust="spacing" textLength="57" x="36" y="50.6563">javax.swing</text></g><!--MD5=[6631281fcee7fc541b441b6c950a0fa0]
class java.awt.event.ActionListener--><g id="elem_java.awt.event.ActionListener"><rect codeLine="11" fill="#F1F1F1" height="62.7539" id="java.awt.event.ActionListener" rx="2.5" ry="2.5" style="stroke:#181818;stroke-width:0.5;" width="268" x="131.5" y="7"/><ellipse cx="212.25" cy="26.1328" fill="#B4A7E5" rx="11" ry="11" style="stroke:#181818;stroke-width:1.0;"/><path d="M208.6777,22.3979 L208.6777,20.2397 L216.0571,20.2397 L216.0571,22.3979 L213.5918,22.3979 L213.5918,30.4746 L216.0571,30.4746 L216.0571,32.6328 L208.6777,32.6328 L208.6777,30.4746 L211.1431,30.4746 L211.1431,22.3979 Z " fill="#000000"/><text fill="#000000" font-family="sans-serif" font-size="14" font-style="italic" lengthAdjust="spacing" textLength="98" x="232.75" y="25.5352">ActionListener</text><text fill="#000000" font-family="sans-serif" font-size="10" font-style="italic" lengthAdjust="spacing" textLength="71" x="246.25" y="38.1563">java.awt.event</text><line style="stroke:#181818;stroke-width:0.5;" x1="132.5" x2="398.5" y1="45.2656" y2="45.2656"/><ellipse cx="142.5" cy="59.0098" fill="#84BE84" rx="3" ry="3" style="stroke:#038048;stroke-width:1.0;"/><text fill="#000000" font-family="sans-serif" font-size="14" font-style="italic" lengthAdjust="spacing" textLength="242" x="151.5" y="62.8008">actionPerformed(ActionEvent): void</text></g><!--MD5=[c250a0bff3136af32fd985c619beb55c]
reverse link javax.swing.JLabel to nz.ac.vuw.ecs.swen225.gp22.renderer.StartPanel--><g id="link_javax.swing.JLabel_nz.ac.vuw.ecs.swen225.gp22.renderer.StartPanel"><path codeLine="15" d="M79.49,73.24 C93.91,90.63 111.56,111.91 126.52,129.95 " fill="none" id="javax.swing.JLabel-backto-nz.ac.vuw.ecs.swen225.gp22.renderer.StartPanel" style="stroke:#181818;stroke-width:1.0;"/><polygon fill="none" points="73.98,77.57,66.6,57.71,84.76,68.63,73.98,77.57" style="stroke:#181818;stroke-width:1.0;"/></g><!--MD5=[13125b592ca8a6909bf883b63fdaff4e]
reverse link java.awt.event.ActionListener to nz.ac.vuw.ecs.swen225.gp22.renderer.StartPanel--><g id="link_java.awt.event.ActionListener_nz.ac.vuw.ecs.swen225.gp22.renderer.StartPanel"><path codeLine="16" d="M227.21,85.66 C215.22,100.12 202.11,115.93 190.59,129.82 " fill="none" id="java.awt.event.ActionListener-backto-nz.ac.vuw.ecs.swen225.gp22.renderer.StartPanel" style="stroke:#181818;stroke-width:1.0;stroke-dasharray:7.0,7.0;"/><polygon fill="none" points="221.99,81,240.14,70.07,232.76,89.93,221.99,81" style="stroke:#181818;stroke-width:1.0;"/></g><rect fill="none" height="11.7773" style="stroke:none;stroke-width:1.0;" width="182" x="105.25" y="215.2422"/><text fill="#888888" font-family="sans-serif" font-size="10" lengthAdjust="spacing" textLength="182" x="105.25" y="224.9102">UMLDoclet 2.0.19, PlantUML 1.2022.8</text><!--MD5=[f22507c7415228e3e8ae453c07d3c563]
@startuml
    set namespaceSeparator none
    hide empty fields
    hide empty methods

    class "<size:14>StartPanel\n<size:10>nz.ac.vuw.ecs.swen225.gp22.renderer" as nz.ac.vuw.ecs.swen225.gp22.renderer.StartPanel [[StartPanel.html]] {
        +paint(Graphics): void
        +actionPerformed(ActionEvent): void
    }

    class "<size:14>JLabel\n<size:10>javax.swing" as javax.swing.JLabel
    interface "<size:14>ActionListener\n<size:10>java.awt.event" as java.awt.event.ActionListener {
        {abstract} +actionPerformed(ActionEvent): void
    }

    javax.swing.JLabel <|- - nz.ac.vuw.ecs.swen225.gp22.renderer.StartPanel
    java.awt.event.ActionListener <|.. nz.ac.vuw.ecs.swen225.gp22.renderer.StartPanel

    center footer UMLDoclet 2.0.19, PlantUML 1.2022.8
@enduml

PlantUML version 1.2022.8(Sun Sep 25 22:00:33 NZDT 2022)
(APACHE source distribution)
Java Runtime: Java(TM) SE Runtime Environment
JVM: Java HotSpot(TM) 64-Bit Server VM
Default Encoding: UTF-8
Language: en
Country: AU
--></g></svg>