<?xml version="1.0" encoding="UTF-8" standalone="no"?><svg xmlns="http://www.w3.org/2000/svg" xmlns:xlink="http://www.w3.org/1999/xlink" contentStyleType="text/css" height="195px" preserveAspectRatio="none" style="width:443px;height:195px;background:#FFFFFF;" version="1.1" viewBox="0 0 443 195" width="443px" zoomAndPan="magnify"><defs/><g><!--MD5=[b0722890857f77b4f95c49df999dfcdb]
class nz.ac.vuw.ecs.swen225.gp22.persistency.Filewriter--><a href="Filewriter.html" target="_top" title="Filewriter.html" xlink:actuate="onRequest" xlink:href="Filewriter.html" xlink:show="new" xlink:title="Filewriter.html" xlink:type="simple"><g id="elem_nz.ac.vuw.ecs.swen225.gp22.persistency.Filewriter"><rect codeLine="5" fill="#F1F1F1" height="161.6836" id="nz.ac.vuw.ecs.swen225.gp22.persistency.Filewriter" rx="2.5" ry="2.5" style="stroke:#181818;stroke-width:0.5;" width="422" x="7" y="7"/><ellipse cx="114.75" cy="26.1328" fill="#ADD1B2" rx="11" ry="11" style="stroke:#181818;stroke-width:1.0;"/><path d="M117.2231,32.2759 Q116.6421,32.5747 116.0029,32.7241 Q115.3638,32.8735 114.6582,32.8735 Q112.1514,32.8735 110.8315,31.2217 Q109.5117,29.5698 109.5117,26.4487 Q109.5117,23.3193 110.8315,21.6675 Q112.1514,20.0156 114.6582,20.0156 Q115.3638,20.0156 116.0112,20.165 Q116.6587,20.3145 117.2231,20.6133 L117.2231,23.3359 Q116.5923,22.7549 115.9988,22.4851 Q115.4053,22.2153 114.7744,22.2153 Q113.4297,22.2153 112.7449,23.282 Q112.0601,24.3486 112.0601,26.4487 Q112.0601,28.5405 112.7449,29.6072 Q113.4297,30.6738 114.7744,30.6738 Q115.4053,30.6738 115.9988,30.4041 Q116.5923,30.1343 117.2231,29.5532 Z " fill="#000000"/><text fill="#000000" font-family="sans-serif" font-size="14" lengthAdjust="spacing" textLength="64" x="202.25" y="25.5352">Filewriter</text><text fill="#000000" font-family="sans-serif" font-size="10" lengthAdjust="spacing" textLength="198" x="135.25" y="38.1563">nz.ac.vuw.ecs.swen225.gp22.persistency</text><line style="stroke:#181818;stroke-width:0.5;" x1="8" x2="428" y1="45.2656" y2="45.2656"/><ellipse cx="18" cy="59.0098" fill="#84BE84" rx="3" ry="3" style="stroke:#038048;stroke-width:1.0;"/><text fill="#000000" font-family="sans-serif" font-size="14" lengthAdjust="spacing" textLength="134" x="27" y="62.8008">Filewriter(Level, int)</text><ellipse cx="18" cy="75.498" fill="#84BE84" rx="3" ry="3" style="stroke:#038048;stroke-width:1.0;"/><text fill="#000000" font-family="sans-serif" font-size="14" lengthAdjust="spacing" textLength="164" x="27" y="79.2891">saveToXML(String): void</text><ellipse cx="18" cy="91.9863" fill="#84BE84" rx="3" ry="3" style="stroke:#038048;stroke-width:1.0;"/><text fill="#000000" font-family="sans-serif" font-size="14" lengthAdjust="spacing" textLength="356" x="27" y="95.7773">makeTileElement(Element, Document, Tile): Element</text><ellipse cx="18" cy="108.4746" fill="#84BE84" rx="3" ry="3" style="stroke:#038048;stroke-width:1.0;"/><text fill="#000000" font-family="sans-serif" font-size="14" lengthAdjust="spacing" textLength="324" x="27" y="112.2656">makeKeyTile(Element, Document, Key): Element</text><ellipse cx="18" cy="124.9629" fill="#84BE84" rx="3" ry="3" style="stroke:#038048;stroke-width:1.0;"/><text fill="#000000" font-family="sans-serif" font-size="14" lengthAdjust="spacing" textLength="372" x="27" y="128.7539">makeLockedTile(Element, Document, Locked): Element</text><ellipse cx="18" cy="141.4512" fill="#84BE84" rx="3" ry="3" style="stroke:#038048;stroke-width:1.0;"/><text fill="#000000" font-family="sans-serif" font-size="14" lengthAdjust="spacing" textLength="396" x="27" y="145.2422">makeInfoFieldTile(Element, Document, InfoField): Element</text><ellipse cx="18" cy="157.9395" fill="#84BE84" rx="3" ry="3" style="stroke:#038048;stroke-width:1.0;"/><text fill="#000000" font-family="sans-serif" font-size="14" lengthAdjust="spacing" textLength="334" x="27" y="161.7305">makeCharTile(Element, Document, Tile): Element</text></g></a><rect fill="none" height="11.7773" style="stroke:none;stroke-width:1.0;" width="182" x="126.5" y="175.6836"/><text fill="#888888" font-family="sans-serif" font-size="10" lengthAdjust="spacing" textLength="182" x="126.5" y="185.3516">UMLDoclet 2.0.19, PlantUML 1.2022.8</text><!--MD5=[4406ca06ffc080b3aa0f89f2ceae2575]
@startuml
    set namespaceSeparator none
    hide empty fields
    hide empty methods

    class "<size:14>Filewriter\n<size:10>nz.ac.vuw.ecs.swen225.gp22.persistency" as nz.ac.vuw.ecs.swen225.gp22.persistency.Filewriter [[Filewriter.html]] {
        +Filewriter(Level, int)
        +saveToXML(String): void
        +makeTileElement(Element, Document, Tile): Element
        +makeKeyTile(Element, Document, Key): Element
        +makeLockedTile(Element, Document, Locked): Element
        +makeInfoFieldTile(Element, Document, InfoField): Element
        +makeCharTile(Element, Document, Tile): Element
    }

    center footer UMLDoclet 2.0.19, PlantUML 1.2022.8
@enduml

PlantUML version 1.2022.8(Sun Sep 25 22:00:33 NZDT 2022)
(APACHE source distribution)
Java Runtime: Java(TM) SE Runtime Environment
JVM: Java HotSpot(TM) 64-Bit Server VM
Default Encoding: UTF-8
Language: en
Country: AU
--></g></svg>