<?xml version="1.0" encoding="UTF-8" standalone="no"?><svg xmlns="http://www.w3.org/2000/svg" xmlns:xlink="http://www.w3.org/1999/xlink" contentStyleType="text/css" height="195px" preserveAspectRatio="none" style="width:302px;height:195px;background:#FFFFFF;" version="1.1" viewBox="0 0 302 195" width="302px" zoomAndPan="magnify"><defs/><g><!--MD5=[41da60ad36ef74909181ea18c74f8c2b]
class nz.ac.vuw.ecs.swen225.gp22.persistency.Filereader--><a href="Filereader.html" target="_top" title="Filereader.html" xlink:actuate="onRequest" xlink:href="Filereader.html" xlink:show="new" xlink:title="Filereader.html" xlink:type="simple"><g id="elem_nz.ac.vuw.ecs.swen225.gp22.persistency.Filereader"><rect codeLine="5" fill="#F1F1F1" height="161.6836" id="nz.ac.vuw.ecs.swen225.gp22.persistency.Filereader" rx="2.5" ry="2.5" style="stroke:#181818;stroke-width:0.5;" width="281" x="7" y="7"/><ellipse cx="44.95" cy="26.1328" fill="#ADD1B2" rx="11" ry="11" style="stroke:#181818;stroke-width:1.0;"/><path d="M47.4231,32.2759 Q46.8421,32.5747 46.2029,32.7241 Q45.5638,32.8735 44.8582,32.8735 Q42.3514,32.8735 41.0315,31.2217 Q39.7117,29.5698 39.7117,26.4487 Q39.7117,23.3193 41.0315,21.6675 Q42.3514,20.0156 44.8582,20.0156 Q45.5638,20.0156 46.2112,20.165 Q46.8587,20.3145 47.4231,20.6133 L47.4231,23.3359 Q46.7923,22.7549 46.1988,22.4851 Q45.6053,22.2153 44.9744,22.2153 Q43.6297,22.2153 42.9449,23.282 Q42.2601,24.3486 42.2601,26.4487 Q42.2601,28.5405 42.9449,29.6072 Q43.6297,30.6738 44.9744,30.6738 Q45.6053,30.6738 46.1988,30.4041 Q46.7923,30.1343 47.4231,29.5532 Z " fill="#000000"/><text fill="#000000" font-family="sans-serif" font-size="14" lengthAdjust="spacing" textLength="69" x="128.55" y="25.5352">Filereader</text><text fill="#000000" font-family="sans-serif" font-size="10" lengthAdjust="spacing" textLength="198" x="64.05" y="38.1563">nz.ac.vuw.ecs.swen225.gp22.persistency</text><line style="stroke:#181818;stroke-width:0.5;" x1="8" x2="287" y1="45.2656" y2="45.2656"/><ellipse cx="18" cy="59.0098" fill="#84BE84" rx="3" ry="3" style="stroke:#038048;stroke-width:1.0;"/><text fill="#000000" font-family="sans-serif" font-size="14" lengthAdjust="spacing" textLength="157" x="27" y="62.8008">loadLevel(String): Level</text><ellipse cx="18" cy="75.498" fill="#84BE84" rx="3" ry="3" style="stroke:#038048;stroke-width:1.0;"/><text fill="#000000" font-family="sans-serif" font-size="14" lengthAdjust="spacing" textLength="160" x="27" y="79.2891">makeTile(Element): Tile</text><ellipse cx="18" cy="91.9863" fill="#84BE84" rx="3" ry="3" style="stroke:#038048;stroke-width:1.0;"/><text fill="#000000" font-family="sans-serif" font-size="14" lengthAdjust="spacing" textLength="183" x="27" y="95.7773">makeKeyTile(Element): Key</text><ellipse cx="18" cy="108.4746" fill="#84BE84" rx="3" ry="3" style="stroke:#038048;stroke-width:1.0;"/><text fill="#000000" font-family="sans-serif" font-size="14" lengthAdjust="spacing" textLength="231" x="27" y="112.2656">makeLockedTile(Element): Locked</text><ellipse cx="18" cy="124.9629" fill="#84BE84" rx="3" ry="3" style="stroke:#038048;stroke-width:1.0;"/><text fill="#000000" font-family="sans-serif" font-size="14" lengthAdjust="spacing" textLength="255" x="27" y="128.7539">makeInfoFieldTile(Element): InfoField</text><ellipse cx="18" cy="141.4512" fill="#84BE84" rx="3" ry="3" style="stroke:#038048;stroke-width:1.0;"/><text fill="#000000" font-family="sans-serif" font-size="14" lengthAdjust="spacing" textLength="189" x="27" y="145.2422">newTile(String, int, int): Tile</text><ellipse cx="18" cy="157.9395" fill="#84BE84" rx="3" ry="3" style="stroke:#038048;stroke-width:1.0;"/><text fill="#000000" font-family="sans-serif" font-size="14" lengthAdjust="spacing" textLength="163" x="27" y="161.7305">getcolour(String): Color</text></g></a><rect fill="none" height="11.7773" style="stroke:none;stroke-width:1.0;" width="182" x="56" y="175.6836"/><text fill="#888888" font-family="sans-serif" font-size="10" lengthAdjust="spacing" textLength="182" x="56" y="185.3516">UMLDoclet 2.0.19, PlantUML 1.2022.8</text><!--MD5=[5ffb19a512278242c5cf75c45177ec01]
@startuml
    set namespaceSeparator none
    hide empty fields
    hide empty methods

    class "<size:14>Filereader\n<size:10>nz.ac.vuw.ecs.swen225.gp22.persistency" as nz.ac.vuw.ecs.swen225.gp22.persistency.Filereader [[Filereader.html]] {
        +loadLevel(String): Level
        +makeTile(Element): Tile
        +makeKeyTile(Element): Key
        +makeLockedTile(Element): Locked
        +makeInfoFieldTile(Element): InfoField
        +newTile(String, int, int): Tile
        +getcolour(String): Color
    }

    center footer UMLDoclet 2.0.19, PlantUML 1.2022.8
@enduml

PlantUML version 1.2022.8(Sun Sep 25 22:00:33 NZDT 2022)
(APACHE source distribution)
Java Runtime: Java(TM) SE Runtime Environment
JVM: Java HotSpot(TM) 64-Bit Server VM
Default Encoding: UTF-8
Language: en
Country: AU
--></g></svg>