<?xml version="1.0" encoding="UTF-8" standalone="no"?><svg xmlns="http://www.w3.org/2000/svg" xmlns:xlink="http://www.w3.org/1999/xlink" contentStyleType="text/css" height="327px" preserveAspectRatio="none" style="width:548px;height:327px;background:#FFFFFF;" version="1.1" viewBox="0 0 548 327" width="548px" zoomAndPan="magnify"><defs/><g><!--MD5=[fff0e72a59dd11beeaf7da323664b4f3]
class nz.ac.vuw.ecs.swen225.gp22.persistency.Level--><a href="Level.html" target="_top" title="Level.html" xlink:actuate="onRequest" xlink:href="Level.html" xlink:show="new" xlink:title="Level.html" xlink:type="simple"><g id="elem_nz.ac.vuw.ecs.swen225.gp22.persistency.Level"><rect codeLine="5" fill="#F1F1F1" height="293.5898" id="nz.ac.vuw.ecs.swen225.gp22.persistency.Level" rx="2.5" ry="2.5" style="stroke:#181818;stroke-width:0.5;" width="527" x="7" y="7"/><ellipse cx="167.25" cy="26.1328" fill="#ADD1B2" rx="11" ry="11" style="stroke:#181818;stroke-width:1.0;"/><path d="M169.7231,32.2759 Q169.1421,32.5747 168.5029,32.7241 Q167.8638,32.8735 167.1582,32.8735 Q164.6514,32.8735 163.3315,31.2217 Q162.0117,29.5698 162.0117,26.4487 Q162.0117,23.3193 163.3315,21.6675 Q164.6514,20.0156 167.1582,20.0156 Q167.8638,20.0156 168.5112,20.165 Q169.1587,20.3145 169.7231,20.6133 L169.7231,23.3359 Q169.0923,22.7549 168.4988,22.4851 Q167.9053,22.2153 167.2744,22.2153 Q165.9297,22.2153 165.2449,23.282 Q164.5601,24.3486 164.5601,26.4487 Q164.5601,28.5405 165.2449,29.6072 Q165.9297,30.6738 167.2744,30.6738 Q167.9053,30.6738 168.4988,30.4041 Q169.0923,30.1343 169.7231,29.5532 Z " fill="#000000"/><text fill="#000000" font-family="sans-serif" font-size="14" lengthAdjust="spacing" textLength="34" x="269.75" y="25.5352">Level</text><text fill="#000000" font-family="sans-serif" font-size="10" lengthAdjust="spacing" textLength="198" x="187.75" y="38.1563">nz.ac.vuw.ecs.swen225.gp22.persistency</text><line style="stroke:#181818;stroke-width:0.5;" x1="8" x2="533" y1="45.2656" y2="45.2656"/><ellipse cx="18" cy="59.0098" fill="#84BE84" rx="3" ry="3" style="stroke:#038048;stroke-width:1.0;"/><text fill="#000000" font-family="sans-serif" font-size="14" lengthAdjust="spacing" textLength="501" x="27" y="62.8008">Level(List&lt;Tile&gt;, List&lt;Locked&gt;, List&lt;Key&gt;, Chap, InfoField, int, int, Actor)</text><ellipse cx="18" cy="75.498" fill="#84BE84" rx="3" ry="3" style="stroke:#038048;stroke-width:1.0;"/><text fill="#000000" font-family="sans-serif" font-size="14" lengthAdjust="spacing" textLength="92" x="27" y="79.2891">getLevel(): int</text><ellipse cx="18" cy="91.9863" fill="#84BE84" rx="3" ry="3" style="stroke:#038048;stroke-width:1.0;"/><text fill="#000000" font-family="sans-serif" font-size="14" lengthAdjust="spacing" textLength="142" x="27" y="95.7773">getTiles(): List&lt;Tile&gt;</text><ellipse cx="18" cy="108.4746" fill="#84BE84" rx="3" ry="3" style="stroke:#038048;stroke-width:1.0;"/><text fill="#000000" font-family="sans-serif" font-size="14" lengthAdjust="spacing" textLength="213" x="27" y="112.2656">getLockedTiles(): List&lt;Locked&gt;</text><ellipse cx="18" cy="124.9629" fill="#84BE84" rx="3" ry="3" style="stroke:#038048;stroke-width:1.0;"/><text fill="#000000" font-family="sans-serif" font-size="14" lengthAdjust="spacing" textLength="165" x="27" y="128.7539">getKeyTiles(): List&lt;Key&gt;</text><ellipse cx="18" cy="141.4512" fill="#84BE84" rx="3" ry="3" style="stroke:#038048;stroke-width:1.0;"/><text fill="#000000" font-family="sans-serif" font-size="14" lengthAdjust="spacing" textLength="160" x="27" y="145.2422">getAllTiles(): List&lt;Tile&gt;</text><ellipse cx="18" cy="157.9395" fill="#84BE84" rx="3" ry="3" style="stroke:#038048;stroke-width:1.0;"/><text fill="#000000" font-family="sans-serif" font-size="14" lengthAdjust="spacing" textLength="112" x="27" y="161.7305">getChap(): Chap</text><ellipse cx="18" cy="174.4277" fill="#84BE84" rx="3" ry="3" style="stroke:#038048;stroke-width:1.0;"/><text fill="#000000" font-family="sans-serif" font-size="14" lengthAdjust="spacing" textLength="114" x="27" y="178.2188">getActor(): Actor</text><ellipse cx="18" cy="190.916" fill="#84BE84" rx="3" ry="3" style="stroke:#038048;stroke-width:1.0;"/><text fill="#000000" font-family="sans-serif" font-size="14" lengthAdjust="spacing" textLength="160" x="27" y="194.707">getInfoField(): InfoField</text><ellipse cx="18" cy="207.4043" fill="#84BE84" rx="3" ry="3" style="stroke:#038048;stroke-width:1.0;"/><text fill="#000000" font-family="sans-serif" font-size="14" lengthAdjust="spacing" textLength="92" x="27" y="211.1953">getTime(): int</text><ellipse cx="18" cy="223.8926" fill="#84BE84" rx="3" ry="3" style="stroke:#038048;stroke-width:1.0;"/><text fill="#000000" font-family="sans-serif" font-size="14" lengthAdjust="spacing" textLength="174" x="27" y="227.6836">getInventory(): List&lt;Tile&gt;</text><ellipse cx="18" cy="240.3809" fill="#84BE84" rx="3" ry="3" style="stroke:#038048;stroke-width:1.0;"/><text fill="#000000" font-family="sans-serif" font-size="14" lengthAdjust="spacing" textLength="171" x="27" y="244.1719">removeKeyTile(Key): void</text><ellipse cx="18" cy="256.8691" fill="#84BE84" rx="3" ry="3" style="stroke:#038048;stroke-width:1.0;"/><text fill="#000000" font-family="sans-serif" font-size="14" lengthAdjust="spacing" textLength="219" x="27" y="260.6602">removeLockedTile(Locked): void</text><ellipse cx="18" cy="273.3574" fill="#84BE84" rx="3" ry="3" style="stroke:#038048;stroke-width:1.0;"/><text fill="#000000" font-family="sans-serif" font-size="14" lengthAdjust="spacing" textLength="245" x="27" y="277.1484">removeTreasureTile(Treasure): void</text><ellipse cx="18" cy="289.8457" fill="#84BE84" rx="3" ry="3" style="stroke:#038048;stroke-width:1.0;"/><text fill="#000000" font-family="sans-serif" font-size="14" lengthAdjust="spacing" textLength="205" x="27" y="293.6367">addTileToInventory(Tile): void</text></g></a><rect fill="none" height="11.7773" style="stroke:none;stroke-width:1.0;" width="182" x="179" y="307.5898"/><text fill="#888888" font-family="sans-serif" font-size="10" lengthAdjust="spacing" textLength="182" x="179" y="317.2578">UMLDoclet 2.0.19, PlantUML 1.2022.8</text><!--MD5=[8c2a79bce8f26bbe8b7de1b795cfdfd1]
@startuml
    set namespaceSeparator none
    hide empty fields
    hide empty methods

    class "<size:14>Level\n<size:10>nz.ac.vuw.ecs.swen225.gp22.persistency" as nz.ac.vuw.ecs.swen225.gp22.persistency.Level [[Level.html]] {
        +Level(List<Tile>, List<Locked>, List<Key>, Chap, InfoField, int, int, Actor)
        +getLevel(): int
        +getTiles(): List<Tile>
        +getLockedTiles(): List<Locked>
        +getKeyTiles(): List<Key>
        +getAllTiles(): List<Tile>
        +getChap(): Chap
        +getActor(): Actor
        +getInfoField(): InfoField
        +getTime(): int
        +getInventory(): List<Tile>
        +removeKeyTile(Key): void
        +removeLockedTile(Locked): void
        +removeTreasureTile(Treasure): void
        +addTileToInventory(Tile): void
    }

    center footer UMLDoclet 2.0.19, PlantUML 1.2022.8
@enduml

PlantUML version 1.2022.8(Sun Sep 25 22:00:33 NZDT 2022)
(APACHE source distribution)
Java Runtime: Java(TM) SE Runtime Environment
JVM: Java HotSpot(TM) 64-Bit Server VM
Default Encoding: UTF-8
Language: en
Country: AU
--></g></svg>