<?xml version="1.0" encoding="UTF-8" standalone="no"?><svg xmlns="http://www.w3.org/2000/svg" xmlns:xlink="http://www.w3.org/1999/xlink" contentStyleType="text/css" height="600px" preserveAspectRatio="none" style="width:784px;height:600px;background:#FFFFFF;" version="1.1" viewBox="0 0 784 600" width="784px" zoomAndPan="magnify"><defs/><g><!--MD5=[9f52dd7ce84f1bad0dac5c49c17778b7]
cluster nz.ac.vuw.ecs.swen225.gp22.persistency--><g id="cluster_nz.ac.vuw.ecs.swen225.gp22.persistency"><path d="M8.5,6 L293.5,6 A3.75,3.75 0 0 1 296,8.5 L303,28.4883 L774.5,28.4883 A2.5,2.5 0 0 1 777,30.9883 L777,572.5 A2.5,2.5 0 0 1 774.5,575 L8.5,575 A2.5,2.5 0 0 1 6,572.5 L6,8.5 A2.5,2.5 0 0 1 8.5,6 " fill="none" style="stroke:#000000;stroke-width:1.5;"/><line style="stroke:#000000;stroke-width:1.5;" x1="6" x2="303" y1="28.4883" y2="28.4883"/><text fill="#000000" font-family="sans-serif" font-size="14" font-weight="bold" lengthAdjust="spacing" textLength="284" x="10" y="21.5352">nz.ac.vuw.ecs.swen225.gp22.persistency</text></g><!--MD5=[b0722890857f77b4f95c49df999dfcdb]
class nz.ac.vuw.ecs.swen225.gp22.persistency.Filewriter--><a href="Filewriter.html" target="_top" title="Filewriter.html" xlink:actuate="onRequest" xlink:href="Filewriter.html" xlink:show="new" xlink:title="Filewriter.html" xlink:type="simple"><g id="elem_nz.ac.vuw.ecs.swen225.gp22.persistency.Filewriter"><rect codeLine="3" fill="#F1F1F1" height="163.418" id="nz.ac.vuw.ecs.swen225.gp22.persistency.Filewriter" rx="2.5" ry="2.5" style="stroke:#181818;stroke-width:0.5;" width="422" x="22" y="41"/><ellipse cx="196.75" cy="57" fill="#ADD1B2" rx="11" ry="11" style="stroke:#181818;stroke-width:1.0;"/><path d="M199.2231,63.1431 Q198.6421,63.4419 198.0029,63.5913 Q197.3638,63.7407 196.6582,63.7407 Q194.1514,63.7407 192.8315,62.0889 Q191.5117,60.437 191.5117,57.3159 Q191.5117,54.1865 192.8315,52.5347 Q194.1514,50.8828 196.6582,50.8828 Q197.3638,50.8828 198.0112,51.0322 Q198.6587,51.1816 199.2231,51.4805 L199.2231,54.2031 Q198.5923,53.6221 197.9988,53.3523 Q197.4053,53.0825 196.7744,53.0825 Q195.4297,53.0825 194.7449,54.1492 Q194.0601,55.2158 194.0601,57.3159 Q194.0601,59.4077 194.7449,60.4744 Q195.4297,61.541 196.7744,61.541 Q197.4053,61.541 197.9988,61.2712 Q198.5923,61.0015 199.2231,60.4204 Z " fill="#000000"/><text fill="#000000" font-family="sans-serif" font-size="14" lengthAdjust="spacing" textLength="64" x="217.25" y="62.291">Filewriter</text><line style="stroke:#181818;stroke-width:0.5;" x1="23" x2="443" y1="73" y2="73"/><line style="stroke:#181818;stroke-width:0.5;" x1="23" x2="443" y1="81" y2="81"/><ellipse cx="33" cy="94.7441" fill="#84BE84" rx="3" ry="3" style="stroke:#038048;stroke-width:1.0;"/><text fill="#000000" font-family="sans-serif" font-size="14" lengthAdjust="spacing" textLength="134" x="42" y="98.5352">Filewriter(Level, int)</text><ellipse cx="33" cy="111.2324" fill="#84BE84" rx="3" ry="3" style="stroke:#038048;stroke-width:1.0;"/><text fill="#000000" font-family="sans-serif" font-size="14" lengthAdjust="spacing" textLength="164" x="42" y="115.0234">saveToXML(String): void</text><ellipse cx="33" cy="127.7207" fill="#84BE84" rx="3" ry="3" style="stroke:#038048;stroke-width:1.0;"/><text fill="#000000" font-family="sans-serif" font-size="14" lengthAdjust="spacing" textLength="356" x="42" y="131.5117">makeTileElement(Element, Document, Tile): Element</text><ellipse cx="33" cy="144.209" fill="#84BE84" rx="3" ry="3" style="stroke:#038048;stroke-width:1.0;"/><text fill="#000000" font-family="sans-serif" font-size="14" lengthAdjust="spacing" textLength="324" x="42" y="148">makeKeyTile(Element, Document, Key): Element</text><ellipse cx="33" cy="160.6973" fill="#84BE84" rx="3" ry="3" style="stroke:#038048;stroke-width:1.0;"/><text fill="#000000" font-family="sans-serif" font-size="14" lengthAdjust="spacing" textLength="372" x="42" y="164.4883">makeLockedTile(Element, Document, Locked): Element</text><ellipse cx="33" cy="177.1855" fill="#84BE84" rx="3" ry="3" style="stroke:#038048;stroke-width:1.0;"/><text fill="#000000" font-family="sans-serif" font-size="14" lengthAdjust="spacing" textLength="396" x="42" y="180.9766">makeInfoFieldTile(Element, Document, InfoField): Element</text><ellipse cx="33" cy="193.6738" fill="#84BE84" rx="3" ry="3" style="stroke:#038048;stroke-width:1.0;"/><text fill="#000000" font-family="sans-serif" font-size="14" lengthAdjust="spacing" textLength="334" x="42" y="197.4648">makeCharTile(Element, Document, Tile): Element</text></g></a><!--MD5=[41da60ad36ef74909181ea18c74f8c2b]
class nz.ac.vuw.ecs.swen225.gp22.persistency.Filereader--><a href="Filereader.html" target="_top" title="Filereader.html" xlink:actuate="onRequest" xlink:href="Filereader.html" xlink:show="new" xlink:title="Filereader.html" xlink:type="simple"><g id="elem_nz.ac.vuw.ecs.swen225.gp22.persistency.Filereader"><rect codeLine="13" fill="#F1F1F1" height="163.418" id="nz.ac.vuw.ecs.swen225.gp22.persistency.Filereader" rx="2.5" ry="2.5" style="stroke:#181818;stroke-width:0.5;" width="281" x="479.5" y="41"/><ellipse cx="581.25" cy="57" fill="#ADD1B2" rx="11" ry="11" style="stroke:#181818;stroke-width:1.0;"/><path d="M583.7231,63.1431 Q583.1421,63.4419 582.5029,63.5913 Q581.8638,63.7407 581.1582,63.7407 Q578.6514,63.7407 577.3315,62.0889 Q576.0117,60.437 576.0117,57.3159 Q576.0117,54.1865 577.3315,52.5347 Q578.6514,50.8828 581.1582,50.8828 Q581.8638,50.8828 582.5112,51.0322 Q583.1587,51.1816 583.7231,51.4805 L583.7231,54.2031 Q583.0923,53.6221 582.4988,53.3523 Q581.9053,53.0825 581.2744,53.0825 Q579.9297,53.0825 579.2449,54.1492 Q578.5601,55.2158 578.5601,57.3159 Q578.5601,59.4077 579.2449,60.4744 Q579.9297,61.541 581.2744,61.541 Q581.9053,61.541 582.4988,61.2712 Q583.0923,61.0015 583.7231,60.4204 Z " fill="#000000"/><text fill="#000000" font-family="sans-serif" font-size="14" lengthAdjust="spacing" textLength="69" x="601.75" y="62.291">Filereader</text><line style="stroke:#181818;stroke-width:0.5;" x1="480.5" x2="759.5" y1="73" y2="73"/><line style="stroke:#181818;stroke-width:0.5;" x1="480.5" x2="759.5" y1="81" y2="81"/><ellipse cx="490.5" cy="94.7441" fill="#84BE84" rx="3" ry="3" style="stroke:#038048;stroke-width:1.0;"/><text fill="#000000" font-family="sans-serif" font-size="14" lengthAdjust="spacing" textLength="157" x="499.5" y="98.5352">loadLevel(String): Level</text><ellipse cx="490.5" cy="111.2324" fill="#84BE84" rx="3" ry="3" style="stroke:#038048;stroke-width:1.0;"/><text fill="#000000" font-family="sans-serif" font-size="14" lengthAdjust="spacing" textLength="160" x="499.5" y="115.0234">makeTile(Element): Tile</text><ellipse cx="490.5" cy="127.7207" fill="#84BE84" rx="3" ry="3" style="stroke:#038048;stroke-width:1.0;"/><text fill="#000000" font-family="sans-serif" font-size="14" lengthAdjust="spacing" textLength="183" x="499.5" y="131.5117">makeKeyTile(Element): Key</text><ellipse cx="490.5" cy="144.209" fill="#84BE84" rx="3" ry="3" style="stroke:#038048;stroke-width:1.0;"/><text fill="#000000" font-family="sans-serif" font-size="14" lengthAdjust="spacing" textLength="231" x="499.5" y="148">makeLockedTile(Element): Locked</text><ellipse cx="490.5" cy="160.6973" fill="#84BE84" rx="3" ry="3" style="stroke:#038048;stroke-width:1.0;"/><text fill="#000000" font-family="sans-serif" font-size="14" lengthAdjust="spacing" textLength="255" x="499.5" y="164.4883">makeInfoFieldTile(Element): InfoField</text><ellipse cx="490.5" cy="177.1855" fill="#84BE84" rx="3" ry="3" style="stroke:#038048;stroke-width:1.0;"/><text fill="#000000" font-family="sans-serif" font-size="14" lengthAdjust="spacing" textLength="189" x="499.5" y="180.9766">newTile(String, int, int): Tile</text><ellipse cx="490.5" cy="193.6738" fill="#84BE84" rx="3" ry="3" style="stroke:#038048;stroke-width:1.0;"/><text fill="#000000" font-family="sans-serif" font-size="14" lengthAdjust="spacing" textLength="163" x="499.5" y="197.4648">getcolour(String): Color</text></g></a><!--MD5=[fff0e72a59dd11beeaf7da323664b4f3]
class nz.ac.vuw.ecs.swen225.gp22.persistency.Level--><a href="Level.html" target="_top" title="Level.html" xlink:actuate="onRequest" xlink:href="Level.html" xlink:show="new" xlink:title="Level.html" xlink:type="simple"><g id="elem_nz.ac.vuw.ecs.swen225.gp22.persistency.Level"><rect codeLine="23" fill="#F1F1F1" height="295.3242" id="nz.ac.vuw.ecs.swen225.gp22.persistency.Level" rx="2.5" ry="2.5" style="stroke:#181818;stroke-width:0.5;" width="527" x="22.5" y="264"/><ellipse cx="264.75" cy="280" fill="#ADD1B2" rx="11" ry="11" style="stroke:#181818;stroke-width:1.0;"/><path d="M267.2231,286.1431 Q266.6421,286.4419 266.0029,286.5913 Q265.3638,286.7407 264.6582,286.7407 Q262.1514,286.7407 260.8315,285.0889 Q259.5117,283.437 259.5117,280.3159 Q259.5117,277.1865 260.8315,275.5347 Q262.1514,273.8828 264.6582,273.8828 Q265.3638,273.8828 266.0112,274.0322 Q266.6587,274.1816 267.2231,274.4805 L267.2231,277.2031 Q266.5923,276.6221 265.9988,276.3523 Q265.4053,276.0825 264.7744,276.0825 Q263.4297,276.0825 262.7449,277.1492 Q262.0601,278.2158 262.0601,280.3159 Q262.0601,282.4077 262.7449,283.4744 Q263.4297,284.541 264.7744,284.541 Q265.4053,284.541 265.9988,284.2712 Q266.5923,284.0015 267.2231,283.4204 Z " fill="#000000"/><text fill="#000000" font-family="sans-serif" font-size="14" lengthAdjust="spacing" textLength="34" x="285.25" y="285.291">Level</text><line style="stroke:#181818;stroke-width:0.5;" x1="23.5" x2="548.5" y1="296" y2="296"/><line style="stroke:#181818;stroke-width:0.5;" x1="23.5" x2="548.5" y1="304" y2="304"/><ellipse cx="33.5" cy="317.7441" fill="#84BE84" rx="3" ry="3" style="stroke:#038048;stroke-width:1.0;"/><text fill="#000000" font-family="sans-serif" font-size="14" lengthAdjust="spacing" textLength="501" x="42.5" y="321.5352">Level(List&lt;Tile&gt;, List&lt;Locked&gt;, List&lt;Key&gt;, Chap, InfoField, int, int, Actor)</text><ellipse cx="33.5" cy="334.2324" fill="#84BE84" rx="3" ry="3" style="stroke:#038048;stroke-width:1.0;"/><text fill="#000000" font-family="sans-serif" font-size="14" lengthAdjust="spacing" textLength="92" x="42.5" y="338.0234">getLevel(): int</text><ellipse cx="33.5" cy="350.7207" fill="#84BE84" rx="3" ry="3" style="stroke:#038048;stroke-width:1.0;"/><text fill="#000000" font-family="sans-serif" font-size="14" lengthAdjust="spacing" textLength="142" x="42.5" y="354.5117">getTiles(): List&lt;Tile&gt;</text><ellipse cx="33.5" cy="367.209" fill="#84BE84" rx="3" ry="3" style="stroke:#038048;stroke-width:1.0;"/><text fill="#000000" font-family="sans-serif" font-size="14" lengthAdjust="spacing" textLength="213" x="42.5" y="371">getLockedTiles(): List&lt;Locked&gt;</text><ellipse cx="33.5" cy="383.6973" fill="#84BE84" rx="3" ry="3" style="stroke:#038048;stroke-width:1.0;"/><text fill="#000000" font-family="sans-serif" font-size="14" lengthAdjust="spacing" textLength="165" x="42.5" y="387.4883">getKeyTiles(): List&lt;Key&gt;</text><ellipse cx="33.5" cy="400.1855" fill="#84BE84" rx="3" ry="3" style="stroke:#038048;stroke-width:1.0;"/><text fill="#000000" font-family="sans-serif" font-size="14" lengthAdjust="spacing" textLength="160" x="42.5" y="403.9766">getAllTiles(): List&lt;Tile&gt;</text><ellipse cx="33.5" cy="416.6738" fill="#84BE84" rx="3" ry="3" style="stroke:#038048;stroke-width:1.0;"/><text fill="#000000" font-family="sans-serif" font-size="14" lengthAdjust="spacing" textLength="112" x="42.5" y="420.4648">getChap(): Chap</text><ellipse cx="33.5" cy="433.1621" fill="#84BE84" rx="3" ry="3" style="stroke:#038048;stroke-width:1.0;"/><text fill="#000000" font-family="sans-serif" font-size="14" lengthAdjust="spacing" textLength="114" x="42.5" y="436.9531">getActor(): Actor</text><ellipse cx="33.5" cy="449.6504" fill="#84BE84" rx="3" ry="3" style="stroke:#038048;stroke-width:1.0;"/><text fill="#000000" font-family="sans-serif" font-size="14" lengthAdjust="spacing" textLength="160" x="42.5" y="453.4414">getInfoField(): InfoField</text><ellipse cx="33.5" cy="466.1387" fill="#84BE84" rx="3" ry="3" style="stroke:#038048;stroke-width:1.0;"/><text fill="#000000" font-family="sans-serif" font-size="14" lengthAdjust="spacing" textLength="92" x="42.5" y="469.9297">getTime(): int</text><ellipse cx="33.5" cy="482.627" fill="#84BE84" rx="3" ry="3" style="stroke:#038048;stroke-width:1.0;"/><text fill="#000000" font-family="sans-serif" font-size="14" lengthAdjust="spacing" textLength="174" x="42.5" y="486.418">getInventory(): List&lt;Tile&gt;</text><ellipse cx="33.5" cy="499.1152" fill="#84BE84" rx="3" ry="3" style="stroke:#038048;stroke-width:1.0;"/><text fill="#000000" font-family="sans-serif" font-size="14" lengthAdjust="spacing" textLength="171" x="42.5" y="502.9063">removeKeyTile(Key): void</text><ellipse cx="33.5" cy="515.6035" fill="#84BE84" rx="3" ry="3" style="stroke:#038048;stroke-width:1.0;"/><text fill="#000000" font-family="sans-serif" font-size="14" lengthAdjust="spacing" textLength="219" x="42.5" y="519.3945">removeLockedTile(Locked): void</text><ellipse cx="33.5" cy="532.0918" fill="#84BE84" rx="3" ry="3" style="stroke:#038048;stroke-width:1.0;"/><text fill="#000000" font-family="sans-serif" font-size="14" lengthAdjust="spacing" textLength="245" x="42.5" y="535.8828">removeTreasureTile(Treasure): void</text><ellipse cx="33.5" cy="548.5801" fill="#84BE84" rx="3" ry="3" style="stroke:#038048;stroke-width:1.0;"/><text fill="#000000" font-family="sans-serif" font-size="14" lengthAdjust="spacing" textLength="205" x="42.5" y="552.3711">addTileToInventory(Tile): void</text></g></a><rect fill="none" height="11.7773" style="stroke:none;stroke-width:1.0;" width="182" x="294" y="581"/><text fill="#888888" font-family="sans-serif" font-size="10" lengthAdjust="spacing" textLength="182" x="294" y="590.668">UMLDoclet 2.0.19, PlantUML 1.2022.8</text><!--MD5=[55cecf308b9c9ea9bfa6d3c3af036cad]
@startuml
    namespace nz.ac.vuw.ecs.swen225.gp22.persistency {

        class Filewriter [[Filewriter.html]] {
            +Filewriter(Level, int)
            +saveToXML(String): void
            +makeTileElement(Element, Document, Tile): Element
            +makeKeyTile(Element, Document, Key): Element
            +makeLockedTile(Element, Document, Locked): Element
            +makeInfoFieldTile(Element, Document, InfoField): Element
            +makeCharTile(Element, Document, Tile): Element
        }

        class Filereader [[Filereader.html]] {
            +loadLevel(String): Level
            +makeTile(Element): Tile
            +makeKeyTile(Element): Key
            +makeLockedTile(Element): Locked
            +makeInfoFieldTile(Element): InfoField
            +newTile(String, int, int): Tile
            +getcolour(String): Color
        }

        class Level [[Level.html]] {
            +Level(List<Tile>, List<Locked>, List<Key>, Chap, InfoField, int, int, Actor)
            +getLevel(): int
            +getTiles(): List<Tile>
            +getLockedTiles(): List<Locked>
            +getKeyTiles(): List<Key>
            +getAllTiles(): List<Tile>
            +getChap(): Chap
            +getActor(): Actor
            +getInfoField(): InfoField
            +getTime(): int
            +getInventory(): List<Tile>
            +removeKeyTile(Key): void
            +removeLockedTile(Locked): void
            +removeTreasureTile(Treasure): void
            +addTileToInventory(Tile): void
        }

    }

    center footer UMLDoclet 2.0.19, PlantUML 1.2022.8
@enduml

PlantUML version 1.2022.8(Sun Sep 25 22:00:33 NZDT 2022)
(APACHE source distribution)
Java Runtime: Java(TM) SE Runtime Environment
JVM: Java HotSpot(TM) 64-Bit Server VM
Default Encoding: UTF-8
Language: en
Country: AU
--></g></svg>