<?xml version="1.0" encoding="UTF-8" standalone="no"?><svg xmlns="http://www.w3.org/2000/svg" xmlns:xlink="http://www.w3.org/1999/xlink" contentStyleType="text/css" height="294px" preserveAspectRatio="none" style="width:407px;height:294px;background:#FFFFFF;" version="1.1" viewBox="0 0 407 294" width="407px" zoomAndPan="magnify"><defs/><g><!--MD5=[d7d310a737464954c340fc8126000c28]
class nz.ac.vuw.ecs.swen225.gp22.fuzz.FuzzTest--><a href="FuzzTest.html" target="_top" title="FuzzTest.html" xlink:actuate="onRequest" xlink:href="FuzzTest.html" xlink:show="new" xlink:title="FuzzTest.html" xlink:type="simple"><g id="elem_nz.ac.vuw.ecs.swen225.gp22.fuzz.FuzzTest"><rect codeLine="5" fill="#F1F1F1" height="260.6133" id="nz.ac.vuw.ecs.swen225.gp22.fuzz.FuzzTest" rx="2.5" ry="2.5" style="stroke:#181818;stroke-width:0.5;" width="386" x="7" y="7"/><ellipse cx="113.25" cy="26.1328" fill="#ADD1B2" rx="11" ry="11" style="stroke:#181818;stroke-width:1.0;"/><path d="M115.7231,32.2759 Q115.1421,32.5747 114.5029,32.7241 Q113.8638,32.8735 113.1582,32.8735 Q110.6514,32.8735 109.3315,31.2217 Q108.0117,29.5698 108.0117,26.4487 Q108.0117,23.3193 109.3315,21.6675 Q110.6514,20.0156 113.1582,20.0156 Q113.8638,20.0156 114.5112,20.165 Q115.1587,20.3145 115.7231,20.6133 L115.7231,23.3359 Q115.0923,22.7549 114.4988,22.4851 Q113.9053,22.2153 113.2744,22.2153 Q111.9297,22.2153 111.2449,23.282 Q110.5601,24.3486 110.5601,26.4487 Q110.5601,28.5405 111.2449,29.6072 Q111.9297,30.6738 113.2744,30.6738 Q113.9053,30.6738 114.4988,30.4041 Q115.0923,30.1343 115.7231,29.5532 Z " fill="#000000"/><text fill="#000000" font-family="sans-serif" font-size="14" lengthAdjust="spacing" textLength="62" x="185.25" y="25.5352">FuzzTest</text><text fill="#000000" font-family="sans-serif" font-size="10" lengthAdjust="spacing" textLength="165" x="133.75" y="38.1563">nz.ac.vuw.ecs.swen225.gp22.fuzz</text><line style="stroke:#181818;stroke-width:0.5;" x1="8" x2="392" y1="45.2656" y2="45.2656"/><ellipse cx="18" cy="59.0098" fill="#84BE84" rx="3" ry="3" style="stroke:#038048;stroke-width:1.0;"/><text fill="#000000" font-family="sans-serif" font-size="14" lengthAdjust="spacing" textLength="115" x="27" y="62.8008">fuzzTest1(): void</text><ellipse cx="18" cy="75.498" fill="#84BE84" rx="3" ry="3" style="stroke:#038048;stroke-width:1.0;"/><text fill="#000000" font-family="sans-serif" font-size="14" lengthAdjust="spacing" textLength="115" x="27" y="79.2891">fuzzTest2(): void</text><ellipse cx="18" cy="91.9863" fill="#84BE84" rx="3" ry="3" style="stroke:#038048;stroke-width:1.0;"/><text fill="#000000" font-family="sans-serif" font-size="14" lengthAdjust="spacing" textLength="360" x="27" y="95.7773">makeStrategyBoardL1(): HashMap&lt;String, Integer&gt;[]</text><ellipse cx="18" cy="108.4746" fill="#84BE84" rx="3" ry="3" style="stroke:#038048;stroke-width:1.0;"/><text fill="#000000" font-family="sans-serif" font-size="14" lengthAdjust="spacing" textLength="195" x="27" y="112.2656">makeStrategyBoardL2(): int[]</text><ellipse cx="18" cy="124.9629" fill="#84BE84" rx="3" ry="3" style="stroke:#038048;stroke-width:1.0;"/><text fill="#000000" font-family="sans-serif" font-size="14" lengthAdjust="spacing" textLength="193" x="27" y="128.7539">intelligence(App, long): void</text><ellipse cx="18" cy="141.4512" fill="#84BE84" rx="3" ry="3" style="stroke:#038048;stroke-width:1.0;"/><text fill="#000000" font-family="sans-serif" font-size="14" lengthAdjust="spacing" textLength="136" x="27" y="145.2422">findAdjX(String): int</text><ellipse cx="18" cy="157.9395" fill="#84BE84" rx="3" ry="3" style="stroke:#038048;stroke-width:1.0;"/><text fill="#000000" font-family="sans-serif" font-size="14" lengthAdjust="spacing" textLength="136" x="27" y="161.7305">findAdjY(String): int</text><ellipse cx="18" cy="174.4277" fill="#84BE84" rx="3" ry="3" style="stroke:#038048;stroke-width:1.0;"/><text fill="#000000" font-family="sans-serif" font-size="14" lengthAdjust="spacing" textLength="267" x="27" y="178.2188">possibleDirections(): ArrayList&lt;String&gt;</text><ellipse cx="18" cy="190.916" fill="#84BE84" rx="3" ry="3" style="stroke:#038048;stroke-width:1.0;"/><text fill="#000000" font-family="sans-serif" font-size="14" lengthAdjust="spacing" textLength="142" x="27" y="194.707">pickDirectionL1(): int</text><ellipse cx="18" cy="207.4043" fill="#84BE84" rx="3" ry="3" style="stroke:#038048;stroke-width:1.0;"/><text fill="#000000" font-family="sans-serif" font-size="14" lengthAdjust="spacing" textLength="142" x="27" y="211.1953">pickDirectionL2(): int</text><ellipse cx="18" cy="223.8926" fill="#84BE84" rx="3" ry="3" style="stroke:#038048;stroke-width:1.0;"/><text fill="#000000" font-family="sans-serif" font-size="14" lengthAdjust="spacing" textLength="142" x="27" y="227.6836">pause(App, int): void</text><ellipse cx="18" cy="240.3809" fill="#84BE84" rx="3" ry="3" style="stroke:#038048;stroke-width:1.0;"/><text fill="#000000" font-family="sans-serif" font-size="14" lengthAdjust="spacing" textLength="184" x="27" y="244.1719">checkTimer(long): boolean</text><ellipse cx="18" cy="256.8691" fill="#84BE84" rx="3" ry="3" style="stroke:#038048;stroke-width:1.0;"/><text fill="#000000" font-family="sans-serif" font-size="14" lengthAdjust="spacing" textLength="195" x="27" y="260.6602">generateKeycode(String): int</text></g></a><rect fill="none" height="11.7773" style="stroke:none;stroke-width:1.0;" width="182" x="108.5" y="274.6133"/><text fill="#888888" font-family="sans-serif" font-size="10" lengthAdjust="spacing" textLength="182" x="108.5" y="284.2813">UMLDoclet 2.0.19, PlantUML 1.2022.8</text><!--MD5=[4897dae4cca8ab6530866e22a3be6004]
@startuml
    set namespaceSeparator none
    hide empty fields
    hide empty methods

    class "<size:14>FuzzTest\n<size:10>nz.ac.vuw.ecs.swen225.gp22.fuzz" as nz.ac.vuw.ecs.swen225.gp22.fuzz.FuzzTest [[FuzzTest.html]] {
        +fuzzTest1(): void
        +fuzzTest2(): void
        +makeStrategyBoardL1(): HashMap<String, Integer>[]
        +makeStrategyBoardL2(): int[]
        +intelligence(App, long): void
        +findAdjX(String): int
        +findAdjY(String): int
        +possibleDirections(): ArrayList<String>
        +pickDirectionL1(): int
        +pickDirectionL2(): int
        +pause(App, int): void
        +checkTimer(long): boolean
        +generateKeycode(String): int
    }

    center footer UMLDoclet 2.0.19, PlantUML 1.2022.8
@enduml

PlantUML version 1.2022.8(Sun Sep 25 22:00:33 NZDT 2022)
(APACHE source distribution)
Java Runtime: Java(TM) SE Runtime Environment
JVM: Java HotSpot(TM) 64-Bit Server VM
Default Encoding: UTF-8
Language: en
Country: AU
--></g></svg>