<?xml version="1.0" encoding="UTF-8" standalone="no"?><svg xmlns="http://www.w3.org/2000/svg" xmlns:xlink="http://www.w3.org/1999/xlink" contentStyleType="text/css" height="696px" preserveAspectRatio="none" style="width:364px;height:696px;background:#FFFFFF;" version="1.1" viewBox="0 0 364 696" width="364px" zoomAndPan="magnify"><defs/><g><!--MD5=[eddf5876533f66e37afa5b3ab048c7b1]
class nz.ac.vuw.ecs.swen225.gp22.app.App--><a href="App.html" target="_top" title="App.html" xlink:actuate="onRequest" xlink:href="App.html" xlink:show="new" xlink:title="App.html" xlink:type="simple"><g id="elem_nz.ac.vuw.ecs.swen225.gp22.app.App"><rect codeLine="5" fill="#F1F1F1" height="565.4023" id="nz.ac.vuw.ecs.swen225.gp22.app.App" rx="2.5" ry="2.5" style="stroke:#181818;stroke-width:0.5;" width="350" x="7" y="105"/><ellipse cx="97.25" cy="124.1328" fill="#ADD1B2" rx="11" ry="11" style="stroke:#181818;stroke-width:1.0;"/><path d="M99.7231,130.2759 Q99.1421,130.5747 98.5029,130.7241 Q97.8638,130.8735 97.1582,130.8735 Q94.6514,130.8735 93.3315,129.2217 Q92.0117,127.5698 92.0117,124.4487 Q92.0117,121.3193 93.3315,119.6675 Q94.6514,118.0156 97.1582,118.0156 Q97.8638,118.0156 98.5112,118.165 Q99.1587,118.3145 99.7231,118.6133 L99.7231,121.3359 Q99.0923,120.7549 98.4988,120.4851 Q97.9053,120.2153 97.2744,120.2153 Q95.9297,120.2153 95.2449,121.282 Q94.5601,122.3486 94.5601,124.4487 Q94.5601,126.5405 95.2449,127.6072 Q95.9297,128.6738 97.2744,128.6738 Q97.9053,128.6738 98.4988,128.4041 Q99.0923,128.1343 99.7231,127.5532 Z " fill="#000000"/><text fill="#000000" font-family="sans-serif" font-size="14" lengthAdjust="spacing" textLength="28" x="184.25" y="123.5352">App</text><text fill="#000000" font-family="sans-serif" font-size="10" lengthAdjust="spacing" textLength="161" x="117.75" y="136.1563">nz.ac.vuw.ecs.swen225.gp22.app</text><line style="stroke:#181818;stroke-width:0.5;" x1="8" x2="356" y1="143.2656" y2="143.2656"/><ellipse cx="18" cy="157.0098" fill="none" rx="3" ry="3" style="stroke:#038048;stroke-width:1.0;"/><text fill="#000000" font-family="sans-serif" font-size="14" lengthAdjust="spacing" text-decoration="underline" textLength="71" x="27" y="160.8008">WIDTH: int</text><ellipse cx="18" cy="173.498" fill="none" rx="3" ry="3" style="stroke:#038048;stroke-width:1.0;"/><text fill="#000000" font-family="sans-serif" font-size="14" lengthAdjust="spacing" text-decoration="underline" textLength="77" x="27" y="177.2891">HEIGHT: int</text><ellipse cx="18" cy="189.9863" fill="none" rx="3" ry="3" style="stroke:#038048;stroke-width:1.0;"/><text fill="#000000" font-family="sans-serif" font-size="14" lengthAdjust="spacing" text-decoration="underline" textLength="131" x="27" y="193.7773">TIMELIMIT_ONE: int</text><ellipse cx="18" cy="206.4746" fill="none" rx="3" ry="3" style="stroke:#038048;stroke-width:1.0;"/><text fill="#000000" font-family="sans-serif" font-size="14" lengthAdjust="spacing" text-decoration="underline" textLength="134" x="27" y="210.2656">TIMELIMIT_TWO: int</text><ellipse cx="18" cy="222.9629" fill="none" rx="3" ry="3" style="stroke:#038048;stroke-width:1.0;"/><text fill="#000000" font-family="sans-serif" font-size="14" lengthAdjust="spacing" textLength="158" x="27" y="226.7539">runningGame: boolean</text><line style="stroke:#181818;stroke-width:0.5;" x1="8" x2="356" y1="233.707" y2="233.707"/><ellipse cx="18" cy="247.4512" fill="#84BE84" rx="3" ry="3" style="stroke:#038048;stroke-width:1.0;"/><text fill="#000000" font-family="sans-serif" font-size="14" lengthAdjust="spacing" text-decoration="underline" textLength="125" x="27" y="251.2422">getInstance(): App</text><ellipse cx="18" cy="263.9395" fill="#84BE84" rx="3" ry="3" style="stroke:#038048;stroke-width:1.0;"/><text fill="#000000" font-family="sans-serif" font-size="14" lengthAdjust="spacing" textLength="105" x="27" y="267.7305">initialize(): void</text><ellipse cx="18" cy="280.4277" fill="#84BE84" rx="3" ry="3" style="stroke:#038048;stroke-width:1.0;"/><text fill="#000000" font-family="sans-serif" font-size="14" lengthAdjust="spacing" textLength="199" x="27" y="284.2188">prepareDialogWindow(): void</text><ellipse cx="18" cy="296.916" fill="#84BE84" rx="3" ry="3" style="stroke:#038048;stroke-width:1.0;"/><text fill="#000000" font-family="sans-serif" font-size="14" lengthAdjust="spacing" textLength="324" x="27" y="300.707">addAButton(String, Runnable, int, JDialog): void</text><ellipse cx="18" cy="313.4043" fill="#84BE84" rx="3" ry="3" style="stroke:#038048;stroke-width:1.0;"/><text fill="#000000" font-family="sans-serif" font-size="14" lengthAdjust="spacing" textLength="123" x="27" y="317.1953">menuItems(): void</text><ellipse cx="18" cy="329.8926" fill="#84BE84" rx="3" ry="3" style="stroke:#038048;stroke-width:1.0;"/><text fill="#000000" font-family="sans-serif" font-size="14" lengthAdjust="spacing" textLength="154" x="27" y="333.6836">mainMenu(): JMenuBar</text><ellipse cx="18" cy="346.3809" fill="#84BE84" rx="3" ry="3" style="stroke:#038048;stroke-width:1.0;"/><text fill="#000000" font-family="sans-serif" font-size="14" lengthAdjust="spacing" textLength="86" x="27" y="350.1719">home(): void</text><ellipse cx="18" cy="362.8691" fill="#84BE84" rx="3" ry="3" style="stroke:#038048;stroke-width:1.0;"/><text fill="#000000" font-family="sans-serif" font-size="14" lengthAdjust="spacing" textLength="97" x="27" y="366.6602">tutorial(): void</text><ellipse cx="18" cy="379.3574" fill="#84BE84" rx="3" ry="3" style="stroke:#038048;stroke-width:1.0;"/><text fill="#000000" font-family="sans-serif" font-size="14" lengthAdjust="spacing" textLength="145" x="27" y="383.1484">recorderGame(): void</text><ellipse cx="18" cy="395.8457" fill="#84BE84" rx="3" ry="3" style="stroke:#038048;stroke-width:1.0;"/><text fill="#000000" font-family="sans-serif" font-size="14" lengthAdjust="spacing" textLength="147" x="27" y="399.6367">loadRecording(): void</text><ellipse cx="18" cy="412.334" fill="#84BE84" rx="3" ry="3" style="stroke:#038048;stroke-width:1.0;"/><text fill="#000000" font-family="sans-serif" font-size="14" lengthAdjust="spacing" textLength="163" x="27" y="416.125">playRecording(int): void</text><ellipse cx="18" cy="428.8223" fill="#84BE84" rx="3" ry="3" style="stroke:#038048;stroke-width:1.0;"/><text fill="#000000" font-family="sans-serif" font-size="14" lengthAdjust="spacing" textLength="173" x="27" y="432.6133">setPhase(Phase, int): void</text><ellipse cx="18" cy="445.3105" fill="#84BE84" rx="3" ry="3" style="stroke:#038048;stroke-width:1.0;"/><text fill="#000000" font-family="sans-serif" font-size="14" lengthAdjust="spacing" textLength="131" x="27" y="449.1016">confirmSave(): void</text><ellipse cx="18" cy="461.7988" fill="#84BE84" rx="3" ry="3" style="stroke:#038048;stroke-width:1.0;"/><text fill="#000000" font-family="sans-serif" font-size="14" lengthAdjust="spacing" textLength="116" x="27" y="465.5898">phaseOne(): void</text><ellipse cx="18" cy="478.2871" fill="#84BE84" rx="3" ry="3" style="stroke:#038048;stroke-width:1.0;"/><text fill="#000000" font-family="sans-serif" font-size="14" lengthAdjust="spacing" textLength="117" x="27" y="482.0781">phaseTwo(): void</text><ellipse cx="18" cy="494.7754" fill="#84BE84" rx="3" ry="3" style="stroke:#038048;stroke-width:1.0;"/><text fill="#000000" font-family="sans-serif" font-size="14" lengthAdjust="spacing" textLength="116" x="27" y="498.5664">saveGame(): void</text><ellipse cx="18" cy="511.2637" fill="#84BE84" rx="3" ry="3" style="stroke:#038048;stroke-width:1.0;"/><text fill="#000000" font-family="sans-serif" font-size="14" lengthAdjust="spacing" textLength="137" x="27" y="515.0547">resumeGame(): void</text><ellipse cx="18" cy="527.752" fill="#84BE84" rx="3" ry="3" style="stroke:#038048;stroke-width:1.0;"/><text fill="#000000" font-family="sans-serif" font-size="14" lengthAdjust="spacing" textLength="242" x="27" y="531.543">loadSavedGame(JFileChooser): void</text><ellipse cx="18" cy="544.2402" fill="#84BE84" rx="3" ry="3" style="stroke:#038048;stroke-width:1.0;"/><text fill="#000000" font-family="sans-serif" font-size="14" lengthAdjust="spacing" textLength="190" x="27" y="548.0313">setPhaseRunnable(int): void</text><ellipse cx="18" cy="560.7285" fill="#84BE84" rx="3" ry="3" style="stroke:#038048;stroke-width:1.0;"/><text fill="#000000" font-family="sans-serif" font-size="14" lengthAdjust="spacing" textLength="120" x="27" y="564.5195">getPhase(): Phase</text><ellipse cx="18" cy="577.2168" fill="#84BE84" rx="3" ry="3" style="stroke:#038048;stroke-width:1.0;"/><text fill="#000000" font-family="sans-serif" font-size="14" lengthAdjust="spacing" textLength="253" x="27" y="581.0078">changeKeyListener(KeyListener): void</text><ellipse cx="18" cy="593.7051" fill="#84BE84" rx="3" ry="3" style="stroke:#038048;stroke-width:1.0;"/><text fill="#000000" font-family="sans-serif" font-size="14" lengthAdjust="spacing" textLength="153" x="27" y="597.4961">fuzzStarted(): boolean</text><ellipse cx="18" cy="610.1934" fill="#84BE84" rx="3" ry="3" style="stroke:#038048;stroke-width:1.0;"/><text fill="#000000" font-family="sans-serif" font-size="14" lengthAdjust="spacing" textLength="168" x="27" y="613.9844">initializeDone(): boolean</text><ellipse cx="18" cy="626.6816" fill="#84BE84" rx="3" ry="3" style="stroke:#038048;stroke-width:1.0;"/><text fill="#000000" font-family="sans-serif" font-size="14" lengthAdjust="spacing" textLength="151" x="27" y="630.4727">updateLocationX(): int</text><ellipse cx="18" cy="643.1699" fill="#84BE84" rx="3" ry="3" style="stroke:#038048;stroke-width:1.0;"/><text fill="#000000" font-family="sans-serif" font-size="14" lengthAdjust="spacing" textLength="151" x="27" y="646.9609">updateLocationY(): int</text><ellipse cx="18" cy="659.6582" fill="#84BE84" rx="3" ry="3" style="stroke:#038048;stroke-width:1.0;"/><text fill="#000000" font-family="sans-serif" font-size="14" lengthAdjust="spacing" textLength="157" x="27" y="663.4492">isWall(int, int): boolean</text></g></a><!--MD5=[18a7562403221f513ca44e0f82c4c17a]
class javax.swing.JFrame--><g id="elem_javax.swing.JFrame"><rect codeLine="39" fill="#F1F1F1" height="38.2656" id="javax.swing.JFrame" rx="2.5" ry="2.5" style="stroke:#181818;stroke-width:0.5;" width="89" x="137.5" y="7"/><ellipse cx="152.5" cy="26.1328" fill="#ADD1B2" rx="11" ry="11" style="stroke:#181818;stroke-width:1.0;"/><path d="M154.9731,32.2759 Q154.3921,32.5747 153.7529,32.7241 Q153.1138,32.8735 152.4082,32.8735 Q149.9014,32.8735 148.5815,31.2217 Q147.2617,29.5698 147.2617,26.4487 Q147.2617,23.3193 148.5815,21.6675 Q149.9014,20.0156 152.4082,20.0156 Q153.1138,20.0156 153.7612,20.165 Q154.4087,20.3145 154.9731,20.6133 L154.9731,23.3359 Q154.3423,22.7549 153.7488,22.4851 Q153.1553,22.2153 152.5244,22.2153 Q151.1797,22.2153 150.4949,23.282 Q149.8101,24.3486 149.8101,26.4487 Q149.8101,28.5405 150.4949,29.6072 Q151.1797,30.6738 152.5244,30.6738 Q153.1553,30.6738 153.7488,30.4041 Q154.3423,30.1343 154.9731,29.5532 Z " fill="#000000"/><text fill="#000000" font-family="sans-serif" font-size="14" lengthAdjust="spacing" textLength="47" x="171.5" y="25.5352">JFrame</text><text fill="#000000" font-family="sans-serif" font-size="10" lengthAdjust="spacing" textLength="57" x="166.5" y="38.1563">javax.swing</text></g><!--MD5=[51c36962e29644d77dc98068282f9dbb]
reverse link javax.swing.JFrame to nz.ac.vuw.ecs.swen225.gp22.app.App--><g id="link_javax.swing.JFrame_nz.ac.vuw.ecs.swen225.gp22.app.App"><path codeLine="41" d="M182,65.49 C182,76.79 182,90.1 182,104.77 " fill="none" id="javax.swing.JFrame-backto-nz.ac.vuw.ecs.swen225.gp22.app.App" style="stroke:#181818;stroke-width:1.0;"/><polygon fill="none" points="175,65.32,182,45.32,189,65.32,175,65.32" style="stroke:#181818;stroke-width:1.0;"/></g><rect fill="none" height="11.7773" style="stroke:none;stroke-width:1.0;" width="182" x="84" y="676.4023"/><text fill="#888888" font-family="sans-serif" font-size="10" lengthAdjust="spacing" textLength="182" x="84" y="686.0703">UMLDoclet 2.0.19, PlantUML 1.2022.8</text><!--MD5=[53264a89c921fff3b27344baac76b66e]
@startuml
    set namespaceSeparator none
    hide empty fields
    hide empty methods

    class "<size:14>App\n<size:10>nz.ac.vuw.ecs.swen225.gp22.app" as nz.ac.vuw.ecs.swen225.gp22.app.App [[App.html]] {
        {static} +WIDTH: int
        {static} +HEIGHT: int
        {static} +TIMELIMIT_ONE: int
        {static} +TIMELIMIT_TWO: int
        +runningGame: boolean
        {static} +getInstance(): App
        +initialize(): void
        +prepareDialogWindow(): void
        +addAButton(String, Runnable, int, JDialog): void
        +menuItems(): void
        +mainMenu(): JMenuBar
        +home(): void
        +tutorial(): void
        +recorderGame(): void
        +loadRecording(): void
        +playRecording(int): void
        +setPhase(Phase, int): void
        +confirmSave(): void
        +phaseOne(): void
        +phaseTwo(): void
        +saveGame(): void
        +resumeGame(): void
        +loadSavedGame(JFileChooser): void
        +setPhaseRunnable(int): void
        +getPhase(): Phase
        +changeKeyListener(KeyListener): void
        +fuzzStarted(): boolean
        +initializeDone(): boolean
        +updateLocationX(): int
        +updateLocationY(): int
        +isWall(int, int): boolean
    }

    class "<size:14>JFrame\n<size:10>javax.swing" as javax.swing.JFrame

    javax.swing.JFrame <|- - nz.ac.vuw.ecs.swen225.gp22.app.App

    center footer UMLDoclet 2.0.19, PlantUML 1.2022.8
@enduml

PlantUML version 1.2022.8(Sun Sep 25 22:00:33 NZDT 2022)
(APACHE source distribution)
Java Runtime: Java(TM) SE Runtime Environment
JVM: Java HotSpot(TM) 64-Bit Server VM
Default Encoding: UTF-8
Language: en
Country: AU
--></g></svg>