<?xml version="1.0" encoding="UTF-8" standalone="no"?><svg xmlns="http://www.w3.org/2000/svg" xmlns:xlink="http://www.w3.org/1999/xlink" contentStyleType="text/css" height="210px" preserveAspectRatio="none" style="width:207px;height:210px;background:#FFFFFF;" version="1.1" viewBox="0 0 207 210" width="207px" zoomAndPan="magnify"><defs/><g><!--MD5=[77734aabbbe4a3c01e2c775b8d910cd1]
class nz.ac.vuw.ecs.swen225.gp22.app.Game--><a href="Game.html" target="_top" title="Game.html" xlink:actuate="onRequest" xlink:href="Game.html" xlink:show="new" xlink:title="Game.html" xlink:type="simple"><g id="elem_nz.ac.vuw.ecs.swen225.gp22.app.Game"><rect codeLine="5" fill="#F1F1F1" height="79.2422" id="nz.ac.vuw.ecs.swen225.gp22.app.Game" rx="2.5" ry="2.5" style="stroke:#181818;stroke-width:0.5;" width="193" x="7" y="105"/><ellipse cx="22" cy="124.1328" fill="#ADD1B2" rx="11" ry="11" style="stroke:#181818;stroke-width:1.0;"/><path d="M24.4731,130.2759 Q23.8921,130.5747 23.2529,130.7241 Q22.6138,130.8735 21.9082,130.8735 Q19.4014,130.8735 18.0815,129.2217 Q16.7617,127.5698 16.7617,124.4487 Q16.7617,121.3193 18.0815,119.6675 Q19.4014,118.0156 21.9082,118.0156 Q22.6138,118.0156 23.2612,118.165 Q23.9087,118.3145 24.4731,118.6133 L24.4731,121.3359 Q23.8423,120.7549 23.2488,120.4851 Q22.6553,120.2153 22.0244,120.2153 Q20.6797,120.2153 19.9949,121.282 Q19.3101,122.3486 19.3101,124.4487 Q19.3101,126.5405 19.9949,127.6072 Q20.6797,128.6738 22.0244,128.6738 Q22.6553,128.6738 23.2488,128.4041 Q23.8423,128.1343 24.4731,127.5532 Z " fill="#000000"/><text fill="#000000" font-family="sans-serif" font-size="14" lengthAdjust="spacing" textLength="39" x="97" y="123.5352">Game</text><text fill="#000000" font-family="sans-serif" font-size="10" lengthAdjust="spacing" textLength="161" x="36" y="136.1563">nz.ac.vuw.ecs.swen225.gp22.app</text><line style="stroke:#181818;stroke-width:0.5;" x1="8" x2="199" y1="143.2656" y2="143.2656"/><ellipse cx="18" cy="157.0098" fill="#84BE84" rx="3" ry="3" style="stroke:#038048;stroke-width:1.0;"/><text fill="#000000" font-family="sans-serif" font-size="14" lengthAdjust="spacing" textLength="125" x="27" y="160.8008">Game(Phase, App)</text><ellipse cx="18" cy="173.498" fill="#84BE84" rx="3" ry="3" style="stroke:#038048;stroke-width:1.0;"/><text fill="#000000" font-family="sans-serif" font-size="14" lengthAdjust="spacing" textLength="112" x="27" y="177.2891">sidePanel(): void</text></g></a><!--MD5=[56a185cb33bdc7c23303e5865f20a19b]
class javax.swing.JPanel--><g id="elem_javax.swing.JPanel"><rect codeLine="10" fill="#F1F1F1" height="38.2656" id="javax.swing.JPanel" rx="2.5" ry="2.5" style="stroke:#181818;stroke-width:0.5;" width="89" x="59" y="7"/><ellipse cx="74" cy="26.1328" fill="#ADD1B2" rx="11" ry="11" style="stroke:#181818;stroke-width:1.0;"/><path d="M76.4731,32.2759 Q75.8921,32.5747 75.2529,32.7241 Q74.6138,32.8735 73.9082,32.8735 Q71.4014,32.8735 70.0815,31.2217 Q68.7617,29.5698 68.7617,26.4487 Q68.7617,23.3193 70.0815,21.6675 Q71.4014,20.0156 73.9082,20.0156 Q74.6138,20.0156 75.2612,20.165 Q75.9087,20.3145 76.4731,20.6133 L76.4731,23.3359 Q75.8423,22.7549 75.2488,22.4851 Q74.6553,22.2153 74.0244,22.2153 Q72.6797,22.2153 71.9949,23.282 Q71.3101,24.3486 71.3101,26.4487 Q71.3101,28.5405 71.9949,29.6072 Q72.6797,30.6738 74.0244,30.6738 Q74.6553,30.6738 75.2488,30.4041 Q75.8423,30.1343 76.4731,29.5532 Z " fill="#000000"/><text fill="#000000" font-family="sans-serif" font-size="14" lengthAdjust="spacing" textLength="41" x="96" y="25.5352">JPanel</text><text fill="#000000" font-family="sans-serif" font-size="10" lengthAdjust="spacing" textLength="57" x="88" y="38.1563">javax.swing</text></g><!--MD5=[779db498fad39625fffec738d0c222a5]
reverse link javax.swing.JPanel to nz.ac.vuw.ecs.swen225.gp22.app.Game--><g id="link_javax.swing.JPanel_nz.ac.vuw.ecs.swen225.gp22.app.Game"><path codeLine="12" d="M103.5,65.24 C103.5,77.9 103.5,92 103.5,104.71 " fill="none" id="javax.swing.JPanel-backto-nz.ac.vuw.ecs.swen225.gp22.app.Game" style="stroke:#181818;stroke-width:1.0;"/><polygon fill="none" points="96.5,65.2,103.5,45.2,110.5,65.2,96.5,65.2" style="stroke:#181818;stroke-width:1.0;"/></g><rect fill="none" height="11.7773" style="stroke:none;stroke-width:1.0;" width="182" x="5.5" y="190.2422"/><text fill="#888888" font-family="sans-serif" font-size="10" lengthAdjust="spacing" textLength="182" x="5.5" y="199.9102">UMLDoclet 2.0.19, PlantUML 1.2022.8</text><!--MD5=[e7b21f3c3189bea90b5376c198bc278f]
@startuml
    set namespaceSeparator none
    hide empty fields
    hide empty methods

    class "<size:14>Game\n<size:10>nz.ac.vuw.ecs.swen225.gp22.app" as nz.ac.vuw.ecs.swen225.gp22.app.Game [[Game.html]] {
        +Game(Phase, App)
        +sidePanel(): void
    }

    class "<size:14>JPanel\n<size:10>javax.swing" as javax.swing.JPanel

    javax.swing.JPanel <|- - nz.ac.vuw.ecs.swen225.gp22.app.Game

    center footer UMLDoclet 2.0.19, PlantUML 1.2022.8
@enduml

PlantUML version 1.2022.8(Sun Sep 25 22:00:33 NZDT 2022)
(APACHE source distribution)
Java Runtime: Java(TM) SE Runtime Environment
JVM: Java HotSpot(TM) 64-Bit Server VM
Default Encoding: UTF-8
Language: en
Country: AU
--></g></svg>