<?xml version="1.0" encoding="UTF-8" standalone="no"?><svg xmlns="http://www.w3.org/2000/svg" xmlns:xlink="http://www.w3.org/1999/xlink" contentStyleType="text/css" height="1270px" preserveAspectRatio="none" style="width:956px;height:1270px;background:#FFFFFF;" version="1.1" viewBox="0 0 956 1270" width="956px" zoomAndPan="magnify"><defs/><g><!--MD5=[52976c862519184f821fcadd77b8b983]
cluster nz.ac.vuw.ecs.swen225.gp22.app--><g id="cluster_nz.ac.vuw.ecs.swen225.gp22.app"><path d="M8.5,187 L237.5,187 A3.75,3.75 0 0 1 240,189.5 L247,209.4883 L707.5,209.4883 A2.5,2.5 0 0 1 710,211.9883 L710,1242.5 A2.5,2.5 0 0 1 707.5,1245 L8.5,1245 A2.5,2.5 0 0 1 6,1242.5 L6,189.5 A2.5,2.5 0 0 1 8.5,187 " fill="none" style="stroke:#000000;stroke-width:1.5;"/><line style="stroke:#000000;stroke-width:1.5;" x1="6" x2="247" y1="209.4883" y2="209.4883"/><text fill="#000000" font-family="sans-serif" font-size="14" font-weight="bold" lengthAdjust="spacing" textLength="228" x="10" y="202.5352">nz.ac.vuw.ecs.swen225.gp22.app</text></g><!--MD5=[aa8f7b917213fcc1c2766e2d59b49067]
cluster java.lang--><g id="cluster_java.lang"><path d="M736.5,658.5 L800.5,658.5 A3.75,3.75 0 0 1 803,661 L810,680.9883 L843.5,680.9883 A2.5,2.5 0 0 1 846,683.4883 L846,755 A2.5,2.5 0 0 1 843.5,757.5 L736.5,757.5 A2.5,2.5 0 0 1 734,755 L734,661 A2.5,2.5 0 0 1 736.5,658.5 " fill="none" style="stroke:#000000;stroke-width:1.5;"/><line style="stroke:#000000;stroke-width:1.5;" x1="734" x2="810" y1="680.9883" y2="680.9883"/><text fill="#000000" font-family="sans-serif" font-size="14" font-weight="bold" lengthAdjust="spacing" textLength="63" x="738" y="674.0352">java.lang</text></g><!--MD5=[d63c23c2d4b14118d71bd46d55a646bd]
cluster java.awt.event--><g id="cluster_java.awt.event"><path d="M238.5,6 L339.5,6 A3.75,3.75 0 0 1 342,8.5 L349,28.4883 L483.5,28.4883 A2.5,2.5 0 0 1 486,30.9883 L486,151.5 A2.5,2.5 0 0 1 483.5,154 L238.5,154 A2.5,2.5 0 0 1 236,151.5 L236,8.5 A2.5,2.5 0 0 1 238.5,6 " fill="none" style="stroke:#000000;stroke-width:1.5;"/><line style="stroke:#000000;stroke-width:1.5;" x1="236" x2="349" y1="28.4883" y2="28.4883"/><text fill="#000000" font-family="sans-serif" font-size="14" font-weight="bold" lengthAdjust="spacing" textLength="100" x="240" y="21.5352">java.awt.event</text></g><!--MD5=[535aab4de90d4dfa371a9b40d5438fc3]
cluster javax.swing--><g id="cluster_javax.swing"><path d="M526.5,6 L610.5,6 A3.75,3.75 0 0 1 613,8.5 L620,28.4883 L946.5,28.4883 A2.5,2.5 0 0 1 949,30.9883 L949,151.5 A2.5,2.5 0 0 1 946.5,154 L526.5,154 A2.5,2.5 0 0 1 524,151.5 L524,8.5 A2.5,2.5 0 0 1 526.5,6 " fill="none" style="stroke:#000000;stroke-width:1.5;"/><line style="stroke:#000000;stroke-width:1.5;" x1="524" x2="620" y1="28.4883" y2="28.4883"/><text fill="#000000" font-family="sans-serif" font-size="14" font-weight="bold" lengthAdjust="spacing" textLength="83" x="528" y="21.5352">javax.swing</text></g><!--MD5=[d0b1d8d3dec61a0fbfd2100f853b0bd1]
class nz.ac.vuw.ecs.swen225.gp22.app.Phase--><a href="Phase.html" target="_top" title="Phase.html" xlink:actuate="onRequest" xlink:href="Phase.html" xlink:show="new" xlink:title="Phase.html" xlink:type="simple"><g id="elem_nz.ac.vuw.ecs.swen225.gp22.app.Phase"><rect codeLine="3" fill="#F1F1F1" height="163.418" id="nz.ac.vuw.ecs.swen225.gp22.app.Phase" rx="2.5" ry="2.5" style="stroke:#181818;stroke-width:0.5;" width="303" x="379.5" y="1066"/><ellipse cx="506.75" cy="1082" fill="#ADD1B2" rx="11" ry="11" style="stroke:#181818;stroke-width:1.0;"/><path d="M509.2231,1088.1431 Q508.6421,1088.4419 508.0029,1088.5913 Q507.3638,1088.7407 506.6582,1088.7407 Q504.1514,1088.7407 502.8315,1087.0889 Q501.5117,1085.437 501.5117,1082.3159 Q501.5117,1079.1865 502.8315,1077.5347 Q504.1514,1075.8828 506.6582,1075.8828 Q507.3638,1075.8828 508.0112,1076.0322 Q508.6587,1076.1816 509.2231,1076.4805 L509.2231,1079.2031 Q508.5923,1078.6221 507.9988,1078.3523 Q507.4053,1078.0825 506.7744,1078.0825 Q505.4297,1078.0825 504.7449,1079.1492 Q504.0601,1080.2158 504.0601,1082.3159 Q504.0601,1084.4077 504.7449,1085.4744 Q505.4297,1086.541 506.7744,1086.541 Q507.4053,1086.541 507.9988,1086.2712 Q508.5923,1086.0015 509.2231,1085.4204 Z " fill="#000000"/><text fill="#000000" font-family="sans-serif" font-size="14" lengthAdjust="spacing" textLength="40" x="527.25" y="1087.291">Phase</text><line style="stroke:#181818;stroke-width:0.5;" x1="380.5" x2="681.5" y1="1098" y2="1098"/><line style="stroke:#181818;stroke-width:0.5;" x1="380.5" x2="681.5" y1="1106" y2="1106"/><ellipse cx="390.5" cy="1119.7441" fill="#84BE84" rx="3" ry="3" style="stroke:#038048;stroke-width:1.0;"/><text fill="#000000" font-family="sans-serif" font-size="14" lengthAdjust="spacing" textLength="164" x="399.5" y="1123.5352">Phase(Maze, Controller)</text><ellipse cx="390.5" cy="1136.2324" fill="#84BE84" rx="3" ry="3" style="stroke:#038048;stroke-width:1.0;"/><text fill="#000000" font-family="sans-serif" font-size="14" lengthAdjust="spacing" text-decoration="underline" textLength="255" x="399.5" y="1140.0234">levelOne(Runnable, Runnable): Phase</text><ellipse cx="390.5" cy="1152.7207" fill="#84BE84" rx="3" ry="3" style="stroke:#038048;stroke-width:1.0;"/><text fill="#000000" font-family="sans-serif" font-size="14" lengthAdjust="spacing" text-decoration="underline" textLength="256" x="399.5" y="1156.5117">levelTwo(Runnable, Runnable): Phase</text><ellipse cx="390.5" cy="1169.209" fill="#84BE84" rx="3" ry="3" style="stroke:#038048;stroke-width:1.0;"/><text fill="#000000" font-family="sans-serif" font-size="14" lengthAdjust="spacing" text-decoration="underline" textLength="158" x="399.5" y="1173">replayPhase(int): Phase</text><ellipse cx="390.5" cy="1185.6973" fill="#84BE84" rx="3" ry="3" style="stroke:#038048;stroke-width:1.0;"/><text fill="#000000" font-family="sans-serif" font-size="14" lengthAdjust="spacing" text-decoration="underline" textLength="277" x="399.5" y="1189.4883">setNextPhase(Runnable, Runnable): void</text><ellipse cx="390.5" cy="1202.1855" fill="#84BE84" rx="3" ry="3" style="stroke:#038048;stroke-width:1.0;"/><text fill="#000000" font-family="sans-serif" font-size="14" lengthAdjust="spacing" textLength="91" x="399.5" y="1205.9766">maze(): Maze</text><ellipse cx="390.5" cy="1218.6738" fill="#84BE84" rx="3" ry="3" style="stroke:#038048;stroke-width:1.0;"/><text fill="#000000" font-family="sans-serif" font-size="14" lengthAdjust="spacing" textLength="155" x="399.5" y="1222.4648">controller(): Controller</text></g></a><!--MD5=[ca93240e9cc5af109d49ef8be679bab9]
class nz.ac.vuw.ecs.swen225.gp22.app.KeyStroke--><a href="KeyStroke.html" target="_top" title="KeyStroke.html" xlink:actuate="onRequest" xlink:href="KeyStroke.html" xlink:show="new" xlink:title="KeyStroke.html" xlink:type="simple"><g id="elem_nz.ac.vuw.ecs.swen225.gp22.app.KeyStroke"><rect codeLine="13" fill="#F1F1F1" height="146.9297" id="nz.ac.vuw.ecs.swen225.gp22.app.KeyStroke" rx="2.5" ry="2.5" style="stroke:#181818;stroke-width:0.5;" width="292" x="215" y="222"/><ellipse cx="322.75" cy="238" fill="#ADD1B2" rx="11" ry="11" style="stroke:#181818;stroke-width:1.0;"/><path d="M325.2231,244.1431 Q324.6421,244.4419 324.0029,244.5913 Q323.3638,244.7407 322.6582,244.7407 Q320.1514,244.7407 318.8315,243.0889 Q317.5117,241.437 317.5117,238.3159 Q317.5117,235.1865 318.8315,233.5347 Q320.1514,231.8828 322.6582,231.8828 Q323.3638,231.8828 324.0112,232.0322 Q324.6587,232.1816 325.2231,232.4805 L325.2231,235.2031 Q324.5923,234.6221 323.9988,234.3523 Q323.4053,234.0825 322.7744,234.0825 Q321.4297,234.0825 320.7449,235.1492 Q320.0601,236.2158 320.0601,238.3159 Q320.0601,240.4077 320.7449,241.4744 Q321.4297,242.541 322.7744,242.541 Q323.4053,242.541 323.9988,242.2712 Q324.5923,242.0015 325.2231,241.4204 Z " fill="#000000"/><text fill="#000000" font-family="sans-serif" font-size="14" lengthAdjust="spacing" textLength="68" x="343.25" y="243.291">KeyStroke</text><line style="stroke:#181818;stroke-width:0.5;" x1="216" x2="506" y1="254" y2="254"/><line style="stroke:#181818;stroke-width:0.5;" x1="216" x2="506" y1="262" y2="262"/><ellipse cx="226" cy="275.7441" fill="#84BE84" rx="3" ry="3" style="stroke:#038048;stroke-width:1.0;"/><text fill="#000000" font-family="sans-serif" font-size="14" lengthAdjust="spacing" textLength="266" x="235" y="279.5352">setAction(int, Runnable, boolean): void</text><ellipse cx="226" cy="292.2324" fill="#84BE84" rx="3" ry="3" style="stroke:#038048;stroke-width:1.0;"/><text fill="#000000" font-family="sans-serif" font-size="14" lengthAdjust="spacing" textLength="134" x="235" y="296.0234">clearKeyBind(): void</text><ellipse cx="226" cy="308.7207" fill="#84BE84" rx="3" ry="3" style="stroke:#038048;stroke-width:1.0;"/><text fill="#000000" font-family="sans-serif" font-size="14" lengthAdjust="spacing" textLength="184" x="235" y="312.5117">keyPressed(KeyEvent): void</text><ellipse cx="226" cy="325.209" fill="#84BE84" rx="3" ry="3" style="stroke:#038048;stroke-width:1.0;"/><text fill="#000000" font-family="sans-serif" font-size="14" lengthAdjust="spacing" textLength="141" x="235" y="329">keyPressed(int): void</text><ellipse cx="226" cy="341.6973" fill="#84BE84" rx="3" ry="3" style="stroke:#038048;stroke-width:1.0;"/><text fill="#000000" font-family="sans-serif" font-size="14" lengthAdjust="spacing" textLength="192" x="235" y="345.4883">keyReleased(KeyEvent): void</text><ellipse cx="226" cy="358.1855" fill="#84BE84" rx="3" ry="3" style="stroke:#038048;stroke-width:1.0;"/><text fill="#000000" font-family="sans-serif" font-size="14" lengthAdjust="spacing" textLength="173" x="235" y="361.9766">keyTyped(KeyEvent): void</text></g></a><!--MD5=[68d3cef38b0407db7ac5f85b61c55e8e]
class nz.ac.vuw.ecs.swen225.gp22.app.Controller--><a href="Controller.html" target="_top" title="Controller.html" xlink:actuate="onRequest" xlink:href="Controller.html" xlink:show="new" xlink:title="Controller.html" xlink:type="simple"><g id="elem_nz.ac.vuw.ecs.swen225.gp22.app.Controller"><rect codeLine="22" fill="#F1F1F1" height="97.4648" id="nz.ac.vuw.ecs.swen225.gp22.app.Controller" rx="2.5" ry="2.5" style="stroke:#181818;stroke-width:0.5;" width="157" x="151.5" y="669"/><ellipse cx="191.25" cy="685" fill="#ADD1B2" rx="11" ry="11" style="stroke:#181818;stroke-width:1.0;"/><path d="M193.7231,691.1431 Q193.1421,691.4419 192.5029,691.5913 Q191.8638,691.7407 191.1582,691.7407 Q188.6514,691.7407 187.3315,690.0889 Q186.0117,688.437 186.0117,685.3159 Q186.0117,682.1865 187.3315,680.5347 Q188.6514,678.8828 191.1582,678.8828 Q191.8638,678.8828 192.5112,679.0322 Q193.1587,679.1816 193.7231,679.4805 L193.7231,682.2031 Q193.0923,681.6221 192.4988,681.3523 Q191.9053,681.0825 191.2744,681.0825 Q189.9297,681.0825 189.2449,682.1492 Q188.5601,683.2158 188.5601,685.3159 Q188.5601,687.4077 189.2449,688.4744 Q189.9297,689.541 191.2744,689.541 Q191.9053,689.541 192.4988,689.2712 Q193.0923,689.0015 193.7231,688.4204 Z " fill="#000000"/><text fill="#000000" font-family="sans-serif" font-size="14" lengthAdjust="spacing" textLength="70" x="210.75" y="690.291">Controller</text><line style="stroke:#181818;stroke-width:0.5;" x1="152.5" x2="307.5" y1="701" y2="701"/><line style="stroke:#181818;stroke-width:0.5;" x1="152.5" x2="307.5" y1="709" y2="709"/><ellipse cx="162.5" cy="722.7441" fill="#84BE84" rx="3" ry="3" style="stroke:#038048;stroke-width:1.0;"/><text fill="#000000" font-family="sans-serif" font-size="14" lengthAdjust="spacing" textLength="116" x="171.5" y="726.5352">setCtrlKey(): void</text><ellipse cx="162.5" cy="739.2324" fill="#84BE84" rx="3" ry="3" style="stroke:#038048;stroke-width:1.0;"/><text fill="#000000" font-family="sans-serif" font-size="14" lengthAdjust="spacing" textLength="131" x="171.5" y="743.0234">setPauseKey(): void</text><ellipse cx="162.5" cy="755.7207" fill="#84BE84" rx="3" ry="3" style="stroke:#038048;stroke-width:1.0;"/><text fill="#000000" font-family="sans-serif" font-size="14" lengthAdjust="spacing" textLength="127" x="171.5" y="759.5117">setChapKey(): void</text></g></a><!--MD5=[77734aabbbe4a3c01e2c775b8d910cd1]
class nz.ac.vuw.ecs.swen225.gp22.app.Game--><a href="Game.html" target="_top" title="Game.html" xlink:actuate="onRequest" xlink:href="Game.html" xlink:show="new" xlink:title="Game.html" xlink:type="simple"><g id="elem_nz.ac.vuw.ecs.swen225.gp22.app.Game"><rect codeLine="28" fill="#F1F1F1" height="80.9766" id="nz.ac.vuw.ecs.swen225.gp22.app.Game" rx="2.5" ry="2.5" style="stroke:#181818;stroke-width:0.5;" width="151" x="542.5" y="255"/><ellipse cx="594.25" cy="271" fill="#ADD1B2" rx="11" ry="11" style="stroke:#181818;stroke-width:1.0;"/><path d="M596.7231,277.1431 Q596.1421,277.4419 595.5029,277.5913 Q594.8638,277.7407 594.1582,277.7407 Q591.6514,277.7407 590.3315,276.0889 Q589.0117,274.437 589.0117,271.3159 Q589.0117,268.1865 590.3315,266.5347 Q591.6514,264.8828 594.1582,264.8828 Q594.8638,264.8828 595.5112,265.0322 Q596.1587,265.1816 596.7231,265.4805 L596.7231,268.2031 Q596.0923,267.6221 595.4988,267.3523 Q594.9053,267.0825 594.2744,267.0825 Q592.9297,267.0825 592.2449,268.1492 Q591.5601,269.2158 591.5601,271.3159 Q591.5601,273.4077 592.2449,274.4744 Q592.9297,275.541 594.2744,275.541 Q594.9053,275.541 595.4988,275.2712 Q596.0923,275.0015 596.7231,274.4204 Z " fill="#000000"/><text fill="#000000" font-family="sans-serif" font-size="14" lengthAdjust="spacing" textLength="39" x="614.75" y="276.291">Game</text><line style="stroke:#181818;stroke-width:0.5;" x1="543.5" x2="692.5" y1="287" y2="287"/><line style="stroke:#181818;stroke-width:0.5;" x1="543.5" x2="692.5" y1="295" y2="295"/><ellipse cx="553.5" cy="308.7441" fill="#84BE84" rx="3" ry="3" style="stroke:#038048;stroke-width:1.0;"/><text fill="#000000" font-family="sans-serif" font-size="14" lengthAdjust="spacing" textLength="125" x="562.5" y="312.5352">Game(Phase, App)</text><ellipse cx="553.5" cy="325.2324" fill="#84BE84" rx="3" ry="3" style="stroke:#038048;stroke-width:1.0;"/><text fill="#000000" font-family="sans-serif" font-size="14" lengthAdjust="spacing" textLength="112" x="562.5" y="329.0234">sidePanel(): void</text></g></a><!--MD5=[977d3d20510a40db2430d6193efd3856]
class nz.ac.vuw.ecs.swen225.gp22.app.Main--><a href="Main.html" target="_top" title="Main.html" xlink:actuate="onRequest" xlink:href="Main.html" xlink:show="new" xlink:title="Main.html" xlink:type="simple"><g id="elem_nz.ac.vuw.ecs.swen225.gp22.app.Main"><rect codeLine="33" fill="#F1F1F1" height="64.4883" id="nz.ac.vuw.ecs.swen225.gp22.app.Main" rx="2.5" ry="2.5" style="stroke:#181818;stroke-width:0.5;" width="158" x="22" y="263.5"/><ellipse cx="80.25" cy="279.5" fill="#ADD1B2" rx="11" ry="11" style="stroke:#181818;stroke-width:1.0;"/><path d="M82.7231,285.6431 Q82.1421,285.9419 81.5029,286.0913 Q80.8638,286.2407 80.1582,286.2407 Q77.6514,286.2407 76.3315,284.5889 Q75.0117,282.937 75.0117,279.8159 Q75.0117,276.6865 76.3315,275.0347 Q77.6514,273.3828 80.1582,273.3828 Q80.8638,273.3828 81.5112,273.5322 Q82.1587,273.6816 82.7231,273.9805 L82.7231,276.7031 Q82.0923,276.1221 81.4988,275.8523 Q80.9053,275.5825 80.2744,275.5825 Q78.9297,275.5825 78.2449,276.6492 Q77.5601,277.7158 77.5601,279.8159 Q77.5601,281.9077 78.2449,282.9744 Q78.9297,284.041 80.2744,284.041 Q80.9053,284.041 81.4988,283.7712 Q82.0923,283.5015 82.7231,282.9204 Z " fill="#000000"/><text fill="#000000" font-family="sans-serif" font-size="14" lengthAdjust="spacing" textLength="33" x="100.75" y="284.791">Main</text><line style="stroke:#181818;stroke-width:0.5;" x1="23" x2="179" y1="295.5" y2="295.5"/><line style="stroke:#181818;stroke-width:0.5;" x1="23" x2="179" y1="303.5" y2="303.5"/><ellipse cx="33" cy="317.2441" fill="#84BE84" rx="3" ry="3" style="stroke:#038048;stroke-width:1.0;"/><text fill="#000000" font-family="sans-serif" font-size="14" lengthAdjust="spacing" text-decoration="underline" textLength="132" x="42" y="321.0352">main(String[]): void</text></g></a><!--MD5=[eddf5876533f66e37afa5b3ab048c7b1]
class nz.ac.vuw.ecs.swen225.gp22.app.App--><a href="App.html" target="_top" title="App.html" xlink:actuate="onRequest" xlink:href="App.html" xlink:show="new" xlink:title="App.html" xlink:type="simple"><g id="elem_nz.ac.vuw.ecs.swen225.gp22.app.App"><rect codeLine="37" fill="#F1F1F1" height="542.6484" id="nz.ac.vuw.ecs.swen225.gp22.app.App" rx="2.5" ry="2.5" style="stroke:#181818;stroke-width:0.5;" width="350" x="344" y="446"/><ellipse cx="500.75" cy="462" fill="#ADD1B2" rx="11" ry="11" style="stroke:#181818;stroke-width:1.0;"/><path d="M503.2231,468.1431 Q502.6421,468.4419 502.0029,468.5913 Q501.3638,468.7407 500.6582,468.7407 Q498.1514,468.7407 496.8315,467.0889 Q495.5117,465.437 495.5117,462.3159 Q495.5117,459.1865 496.8315,457.5347 Q498.1514,455.8828 500.6582,455.8828 Q501.3638,455.8828 502.0112,456.0322 Q502.6587,456.1816 503.2231,456.4805 L503.2231,459.2031 Q502.5923,458.6221 501.9988,458.3523 Q501.4053,458.0825 500.7744,458.0825 Q499.4297,458.0825 498.7449,459.1492 Q498.0601,460.2158 498.0601,462.3159 Q498.0601,464.4077 498.7449,465.4744 Q499.4297,466.541 500.7744,466.541 Q501.4053,466.541 501.9988,466.2712 Q502.5923,466.0015 503.2231,465.4204 Z " fill="#000000"/><text fill="#000000" font-family="sans-serif" font-size="14" lengthAdjust="spacing" textLength="28" x="521.25" y="467.291">App</text><line style="stroke:#181818;stroke-width:0.5;" x1="345" x2="693" y1="478" y2="478"/><ellipse cx="355" cy="491.7441" fill="none" rx="3" ry="3" style="stroke:#038048;stroke-width:1.0;"/><text fill="#000000" font-family="sans-serif" font-size="14" lengthAdjust="spacing" text-decoration="underline" textLength="71" x="364" y="495.5352">WIDTH: int</text><ellipse cx="355" cy="508.2324" fill="none" rx="3" ry="3" style="stroke:#038048;stroke-width:1.0;"/><text fill="#000000" font-family="sans-serif" font-size="14" lengthAdjust="spacing" text-decoration="underline" textLength="77" x="364" y="512.0234">HEIGHT: int</text><ellipse cx="355" cy="524.7207" fill="none" rx="3" ry="3" style="stroke:#038048;stroke-width:1.0;"/><text fill="#000000" font-family="sans-serif" font-size="14" lengthAdjust="spacing" text-decoration="underline" textLength="131" x="364" y="528.5117">TIMELIMIT_ONE: int</text><ellipse cx="355" cy="541.209" fill="none" rx="3" ry="3" style="stroke:#038048;stroke-width:1.0;"/><text fill="#000000" font-family="sans-serif" font-size="14" lengthAdjust="spacing" text-decoration="underline" textLength="134" x="364" y="545">TIMELIMIT_TWO: int</text><ellipse cx="355" cy="557.6973" fill="none" rx="3" ry="3" style="stroke:#038048;stroke-width:1.0;"/><text fill="#000000" font-family="sans-serif" font-size="14" lengthAdjust="spacing" textLength="158" x="364" y="561.4883">runningGame: boolean</text><line style="stroke:#181818;stroke-width:0.5;" x1="345" x2="693" y1="568.4414" y2="568.4414"/><ellipse cx="355" cy="582.1855" fill="#84BE84" rx="3" ry="3" style="stroke:#038048;stroke-width:1.0;"/><text fill="#000000" font-family="sans-serif" font-size="14" lengthAdjust="spacing" text-decoration="underline" textLength="125" x="364" y="585.9766">getInstance(): App</text><ellipse cx="355" cy="598.6738" fill="#84BE84" rx="3" ry="3" style="stroke:#038048;stroke-width:1.0;"/><text fill="#000000" font-family="sans-serif" font-size="14" lengthAdjust="spacing" textLength="105" x="364" y="602.4648">initialize(): void</text><ellipse cx="355" cy="615.1621" fill="#84BE84" rx="3" ry="3" style="stroke:#038048;stroke-width:1.0;"/><text fill="#000000" font-family="sans-serif" font-size="14" lengthAdjust="spacing" textLength="199" x="364" y="618.9531">prepareDialogWindow(): void</text><ellipse cx="355" cy="631.6504" fill="#84BE84" rx="3" ry="3" style="stroke:#038048;stroke-width:1.0;"/><text fill="#000000" font-family="sans-serif" font-size="14" lengthAdjust="spacing" textLength="324" x="364" y="635.4414">addAButton(String, Runnable, int, JDialog): void</text><ellipse cx="355" cy="648.1387" fill="#84BE84" rx="3" ry="3" style="stroke:#038048;stroke-width:1.0;"/><text fill="#000000" font-family="sans-serif" font-size="14" lengthAdjust="spacing" textLength="123" x="364" y="651.9297">menuItems(): void</text><ellipse cx="355" cy="664.627" fill="#84BE84" rx="3" ry="3" style="stroke:#038048;stroke-width:1.0;"/><text fill="#000000" font-family="sans-serif" font-size="14" lengthAdjust="spacing" textLength="154" x="364" y="668.418">mainMenu(): JMenuBar</text><ellipse cx="355" cy="681.1152" fill="#84BE84" rx="3" ry="3" style="stroke:#038048;stroke-width:1.0;"/><text fill="#000000" font-family="sans-serif" font-size="14" lengthAdjust="spacing" textLength="86" x="364" y="684.9063">home(): void</text><ellipse cx="355" cy="697.6035" fill="#84BE84" rx="3" ry="3" style="stroke:#038048;stroke-width:1.0;"/><text fill="#000000" font-family="sans-serif" font-size="14" lengthAdjust="spacing" textLength="97" x="364" y="701.3945">tutorial(): void</text><ellipse cx="355" cy="714.0918" fill="#84BE84" rx="3" ry="3" style="stroke:#038048;stroke-width:1.0;"/><text fill="#000000" font-family="sans-serif" font-size="14" lengthAdjust="spacing" textLength="145" x="364" y="717.8828">recorderGame(): void</text><ellipse cx="355" cy="730.5801" fill="#84BE84" rx="3" ry="3" style="stroke:#038048;stroke-width:1.0;"/><text fill="#000000" font-family="sans-serif" font-size="14" lengthAdjust="spacing" textLength="147" x="364" y="734.3711">loadRecording(): void</text><ellipse cx="355" cy="747.0684" fill="#84BE84" rx="3" ry="3" style="stroke:#038048;stroke-width:1.0;"/><text fill="#000000" font-family="sans-serif" font-size="14" lengthAdjust="spacing" textLength="163" x="364" y="750.8594">playRecording(int): void</text><ellipse cx="355" cy="763.5566" fill="#84BE84" rx="3" ry="3" style="stroke:#038048;stroke-width:1.0;"/><text fill="#000000" font-family="sans-serif" font-size="14" lengthAdjust="spacing" textLength="173" x="364" y="767.3477">setPhase(Phase, int): void</text><ellipse cx="355" cy="780.0449" fill="#84BE84" rx="3" ry="3" style="stroke:#038048;stroke-width:1.0;"/><text fill="#000000" font-family="sans-serif" font-size="14" lengthAdjust="spacing" textLength="131" x="364" y="783.8359">confirmSave(): void</text><ellipse cx="355" cy="796.5332" fill="#84BE84" rx="3" ry="3" style="stroke:#038048;stroke-width:1.0;"/><text fill="#000000" font-family="sans-serif" font-size="14" lengthAdjust="spacing" textLength="116" x="364" y="800.3242">phaseOne(): void</text><ellipse cx="355" cy="813.0215" fill="#84BE84" rx="3" ry="3" style="stroke:#038048;stroke-width:1.0;"/><text fill="#000000" font-family="sans-serif" font-size="14" lengthAdjust="spacing" textLength="117" x="364" y="816.8125">phaseTwo(): void</text><ellipse cx="355" cy="829.5098" fill="#84BE84" rx="3" ry="3" style="stroke:#038048;stroke-width:1.0;"/><text fill="#000000" font-family="sans-serif" font-size="14" lengthAdjust="spacing" textLength="116" x="364" y="833.3008">saveGame(): void</text><ellipse cx="355" cy="845.998" fill="#84BE84" rx="3" ry="3" style="stroke:#038048;stroke-width:1.0;"/><text fill="#000000" font-family="sans-serif" font-size="14" lengthAdjust="spacing" textLength="137" x="364" y="849.7891">resumeGame(): void</text><ellipse cx="355" cy="862.4863" fill="#84BE84" rx="3" ry="3" style="stroke:#038048;stroke-width:1.0;"/><text fill="#000000" font-family="sans-serif" font-size="14" lengthAdjust="spacing" textLength="242" x="364" y="866.2773">loadSavedGame(JFileChooser): void</text><ellipse cx="355" cy="878.9746" fill="#84BE84" rx="3" ry="3" style="stroke:#038048;stroke-width:1.0;"/><text fill="#000000" font-family="sans-serif" font-size="14" lengthAdjust="spacing" textLength="190" x="364" y="882.7656">setPhaseRunnable(int): void</text><ellipse cx="355" cy="895.4629" fill="#84BE84" rx="3" ry="3" style="stroke:#038048;stroke-width:1.0;"/><text fill="#000000" font-family="sans-serif" font-size="14" lengthAdjust="spacing" textLength="253" x="364" y="899.2539">changeKeyListener(KeyListener): void</text><ellipse cx="355" cy="911.9512" fill="#84BE84" rx="3" ry="3" style="stroke:#038048;stroke-width:1.0;"/><text fill="#000000" font-family="sans-serif" font-size="14" lengthAdjust="spacing" textLength="153" x="364" y="915.7422">fuzzStarted(): boolean</text><ellipse cx="355" cy="928.4395" fill="#84BE84" rx="3" ry="3" style="stroke:#038048;stroke-width:1.0;"/><text fill="#000000" font-family="sans-serif" font-size="14" lengthAdjust="spacing" textLength="168" x="364" y="932.2305">initializeDone(): boolean</text><ellipse cx="355" cy="944.9277" fill="#84BE84" rx="3" ry="3" style="stroke:#038048;stroke-width:1.0;"/><text fill="#000000" font-family="sans-serif" font-size="14" lengthAdjust="spacing" textLength="151" x="364" y="948.7188">updateLocationX(): int</text><ellipse cx="355" cy="961.416" fill="#84BE84" rx="3" ry="3" style="stroke:#038048;stroke-width:1.0;"/><text fill="#000000" font-family="sans-serif" font-size="14" lengthAdjust="spacing" textLength="151" x="364" y="965.207">updateLocationY(): int</text><ellipse cx="355" cy="977.9043" fill="#84BE84" rx="3" ry="3" style="stroke:#038048;stroke-width:1.0;"/><text fill="#000000" font-family="sans-serif" font-size="14" lengthAdjust="spacing" textLength="157" x="364" y="981.6953">isWall(int, int): boolean</text></g></a><!--MD5=[aeced6b90a5f9cea7e9b0d4e8b5a9b7c]
class java.lang.Record--><g id="elem_java.lang.Record"><rect codeLine="80" fill="#F1F1F1" height="48" id="java.lang.Record" rx="2.5" ry="2.5" style="stroke:#181818;stroke-width:0.5;" width="80" x="750" y="693.5"/><ellipse cx="765" cy="709.5" fill="#A9DCDF" rx="11" ry="11" style="stroke:#181818;stroke-width:1.0;"/><path d="M764.8633,704.8481 L763.7095,709.9199 L766.0254,709.9199 Z M763.3691,702.6069 L766.3657,702.6069 L769.7109,715 L767.2622,715 L766.4985,711.937 L763.2197,711.937 L762.4727,715 L760.0239,715 Z " fill="#000000"/><text fill="#000000" font-family="sans-serif" font-size="14" font-style="italic" lengthAdjust="spacing" textLength="48" x="779" y="714.791">Record</text><line style="stroke:#181818;stroke-width:0.5;" x1="751" x2="829" y1="725.5" y2="725.5"/><line style="stroke:#181818;stroke-width:0.5;" x1="751" x2="829" y1="733.5" y2="733.5"/></g><!--MD5=[3eb55d915ce4c988cc6fe2a782a0fcdf]
class java.awt.event.KeyListener--><g id="elem_java.awt.event.KeyListener"><rect codeLine="84" fill="#F1F1F1" height="97.4648" id="java.awt.event.KeyListener" rx="2.5" ry="2.5" style="stroke:#181818;stroke-width:0.5;" width="218" x="252" y="41"/><ellipse cx="317.75" cy="57" fill="#B4A7E5" rx="11" ry="11" style="stroke:#181818;stroke-width:1.0;"/><path d="M314.1777,53.2651 L314.1777,51.1069 L321.5571,51.1069 L321.5571,53.2651 L319.0918,53.2651 L319.0918,61.3418 L321.5571,61.3418 L321.5571,63.5 L314.1777,63.5 L314.1777,61.3418 L316.6431,61.3418 L316.6431,53.2651 Z " fill="#000000"/><text fill="#000000" font-family="sans-serif" font-size="14" font-style="italic" lengthAdjust="spacing" textLength="78" x="338.25" y="62.291">KeyListener</text><line style="stroke:#181818;stroke-width:0.5;" x1="253" x2="469" y1="73" y2="73"/><line style="stroke:#181818;stroke-width:0.5;" x1="253" x2="469" y1="81" y2="81"/><ellipse cx="263" cy="94.7441" fill="#84BE84" rx="3" ry="3" style="stroke:#038048;stroke-width:1.0;"/><text fill="#000000" font-family="sans-serif" font-size="14" font-style="italic" lengthAdjust="spacing" textLength="173" x="272" y="98.5352">keyTyped(KeyEvent): void</text><ellipse cx="263" cy="111.2324" fill="#84BE84" rx="3" ry="3" style="stroke:#038048;stroke-width:1.0;"/><text fill="#000000" font-family="sans-serif" font-size="14" font-style="italic" lengthAdjust="spacing" textLength="184" x="272" y="115.0234">keyPressed(KeyEvent): void</text><ellipse cx="263" cy="127.7207" fill="#84BE84" rx="3" ry="3" style="stroke:#038048;stroke-width:1.0;"/><text fill="#000000" font-family="sans-serif" font-size="14" font-style="italic" lengthAdjust="spacing" textLength="192" x="272" y="131.5117">keyReleased(KeyEvent): void</text></g><!--MD5=[56a185cb33bdc7c23303e5865f20a19b]
class javax.swing.JPanel--><g id="elem_javax.swing.JPanel"><rect codeLine="92" fill="#F1F1F1" height="48" id="javax.swing.JPanel" rx="2.5" ry="2.5" style="stroke:#181818;stroke-width:0.5;" width="73" x="540.5" y="65.5"/><ellipse cx="555.5" cy="81.5" fill="#ADD1B2" rx="11" ry="11" style="stroke:#181818;stroke-width:1.0;"/><path d="M557.9731,87.6431 Q557.3921,87.9419 556.7529,88.0913 Q556.1138,88.2407 555.4082,88.2407 Q552.9014,88.2407 551.5815,86.5889 Q550.2617,84.937 550.2617,81.8159 Q550.2617,78.6865 551.5815,77.0347 Q552.9014,75.3828 555.4082,75.3828 Q556.1138,75.3828 556.7612,75.5322 Q557.4087,75.6816 557.9731,75.9805 L557.9731,78.7031 Q557.3423,78.1221 556.7488,77.8523 Q556.1553,77.5825 555.5244,77.5825 Q554.1797,77.5825 553.4949,78.6492 Q552.8101,79.7158 552.8101,81.8159 Q552.8101,83.9077 553.4949,84.9744 Q554.1797,86.041 555.5244,86.041 Q556.1553,86.041 556.7488,85.7712 Q557.3423,85.5015 557.9731,84.9204 Z " fill="#000000"/><text fill="#000000" font-family="sans-serif" font-size="14" lengthAdjust="spacing" textLength="41" x="569.5" y="86.791">JPanel</text><line style="stroke:#181818;stroke-width:0.5;" x1="541.5" x2="612.5" y1="97.5" y2="97.5"/><line style="stroke:#181818;stroke-width:0.5;" x1="541.5" x2="612.5" y1="105.5" y2="105.5"/></g><!--MD5=[18a7562403221f513ca44e0f82c4c17a]
class javax.swing.JFrame--><g id="elem_javax.swing.JFrame"><rect codeLine="94" fill="#F1F1F1" height="97.4648" id="javax.swing.JFrame" rx="2.5" ry="2.5" style="stroke:#181818;stroke-width:0.5;" width="284" x="649" y="41"/><ellipse cx="763.25" cy="57" fill="#ADD1B2" rx="11" ry="11" style="stroke:#181818;stroke-width:1.0;"/><path d="M765.7231,63.1431 Q765.1421,63.4419 764.5029,63.5913 Q763.8638,63.7407 763.1582,63.7407 Q760.6514,63.7407 759.3315,62.0889 Q758.0117,60.437 758.0117,57.3159 Q758.0117,54.1865 759.3315,52.5347 Q760.6514,50.8828 763.1582,50.8828 Q763.8638,50.8828 764.5112,51.0322 Q765.1587,51.1816 765.7231,51.4805 L765.7231,54.2031 Q765.0923,53.6221 764.4988,53.3523 Q763.9053,53.0825 763.2744,53.0825 Q761.9297,53.0825 761.2449,54.1492 Q760.5601,55.2158 760.5601,57.3159 Q760.5601,59.4077 761.2449,60.4744 Q761.9297,61.541 763.2744,61.541 Q763.9053,61.541 764.4988,61.2712 Q765.0923,61.0015 765.7231,60.4204 Z " fill="#000000"/><text fill="#000000" font-family="sans-serif" font-size="14" lengthAdjust="spacing" textLength="47" x="783.75" y="62.291">JFrame</text><line style="stroke:#181818;stroke-width:0.5;" x1="650" x2="932" y1="73" y2="73"/><polygon fill="none" points="660,81.7441,664,85.7441,660,89.7441,656,85.7441" style="stroke:#B38D22;stroke-width:1.0;"/><text fill="#000000" font-family="sans-serif" font-size="14" lengthAdjust="spacing" textLength="139" x="669" y="90.5352">rootPane: JRootPane</text><polygon fill="none" points="660,98.2324,664,102.2324,660,106.2324,656,102.2324" style="stroke:#B38D22;stroke-width:1.0;"/><text fill="#000000" font-family="sans-serif" font-size="14" lengthAdjust="spacing" textLength="245" x="669" y="107.0234">rootPaneCheckingEnabled: boolean</text><polygon fill="none" points="660,114.7207,664,118.7207,660,122.7207,656,118.7207" style="stroke:#B38D22;stroke-width:1.0;"/><text fill="#000000" font-family="sans-serif" font-size="14" lengthAdjust="spacing" textLength="258" x="669" y="123.5117">accessibleContext: AccessibleContext</text><line style="stroke:#181818;stroke-width:0.5;" x1="650" x2="932" y1="130.4648" y2="130.4648"/></g><!--MD5=[9e89ba0a17210aa2e9b3ec19694357bd]
reverse link java.lang.Record to nz.ac.vuw.ecs.swen225.gp22.app.Phase--><g id="link_java.lang.Record_nz.ac.vuw.ecs.swen225.gp22.app.Phase"><path codeLine="70" d="M784.8,761.53 C776.43,817.62 755.96,917.04 710,989 C691.95,1017.26 667.41,1043.4 642.28,1065.94 " fill="none" id="java.lang.Record-backto-nz.ac.vuw.ecs.swen225.gp22.app.Phase" style="stroke:#181818;stroke-width:1.0;"/><polygon fill="none" points="777.88,760.51,787.53,741.65,791.75,762.42,777.88,760.51" style="stroke:#181818;stroke-width:1.0;"/></g><!--MD5=[2b075f5707dbf95c32121f26b8d6d041]
reverse link java.awt.event.KeyListener to nz.ac.vuw.ecs.swen225.gp22.app.KeyStroke--><g id="link_java.awt.event.KeyListener_nz.ac.vuw.ecs.swen225.gp22.app.KeyStroke"><path codeLine="71" d="M361,158.34 C361,178.65 361,201.01 361,221.63 " fill="none" id="java.awt.event.KeyListener-backto-nz.ac.vuw.ecs.swen225.gp22.app.KeyStroke" style="stroke:#181818;stroke-width:1.0;stroke-dasharray:7.0,7.0;"/><polygon fill="none" points="354,158.07,361,138.07,368,158.07,354,158.07" style="stroke:#181818;stroke-width:1.0;"/></g><!--MD5=[4f14967df5e8cf09a709cb9b7a977e71]
link nz.ac.vuw.ecs.swen225.gp22.app.KeyStroke to nz.ac.vuw.ecs.swen225.gp22.app.App--><g id="link_nz.ac.vuw.ecs.swen225.gp22.app.KeyStroke_nz.ac.vuw.ecs.swen225.gp22.app.App"><path codeLine="72" d="M388.34,369.18 C396.32,390.4 405.56,414.95 415.36,440.99 " fill="none" id="nz.ac.vuw.ecs.swen225.gp22.app.KeyStroke-to-nz.ac.vuw.ecs.swen225.gp22.app.App" style="stroke:#181818;stroke-width:1.0;"/><polygon fill="#181818" points="417.19,445.87,417.749,436.037,415.4219,441.1931,410.2658,438.866,417.19,445.87" style="stroke:#181818;stroke-width:1.0;"/><text fill="#000000" font-family="sans-serif" font-size="13" lengthAdjust="spacing" textLength="23" x="404" y="412.5684">app</text></g><!--MD5=[b9d589167933810499e23c2d9cfceec8]
reverse link nz.ac.vuw.ecs.swen225.gp22.app.KeyStroke to nz.ac.vuw.ecs.swen225.gp22.app.Controller--><g id="link_nz.ac.vuw.ecs.swen225.gp22.app.KeyStroke_nz.ac.vuw.ecs.swen225.gp22.app.Controller"><path codeLine="73" d="M332.35,388.35 C305.38,474.81 266.06,600.88 244.86,668.84 " fill="none" id="nz.ac.vuw.ecs.swen225.gp22.app.KeyStroke-backto-nz.ac.vuw.ecs.swen225.gp22.app.Controller" style="stroke:#181818;stroke-width:1.0;"/><polygon fill="none" points="325.69,386.19,338.33,369.18,339.06,390.36,325.69,386.19" style="stroke:#181818;stroke-width:1.0;"/></g><!--MD5=[779db498fad39625fffec738d0c222a5]
reverse link javax.swing.JPanel to nz.ac.vuw.ecs.swen225.gp22.app.Game--><g id="link_javax.swing.JPanel_nz.ac.vuw.ecs.swen225.gp22.app.Game"><path codeLine="74" d="M585.57,133.12 C592.77,168.96 602.99,219.81 610.02,254.8 " fill="none" id="javax.swing.JPanel-backto-nz.ac.vuw.ecs.swen225.gp22.app.Game" style="stroke:#181818;stroke-width:1.0;"/><polygon fill="none" points="578.7,134.49,581.62,113.5,592.43,131.73,578.7,134.49" style="stroke:#181818;stroke-width:1.0;"/></g><!--MD5=[51c36962e29644d77dc98068282f9dbb]
reverse link javax.swing.JFrame to nz.ac.vuw.ecs.swen225.gp22.app.App--><g id="link_javax.swing.JFrame_nz.ac.vuw.ecs.swen225.gp22.app.App"><path codeLine="75" d="M776.13,158 C762.44,215.31 739.9,299.14 711,369 C700.53,394.32 688.68,420.15 676.13,445.73 " fill="none" id="javax.swing.JFrame-backto-nz.ac.vuw.ecs.swen225.gp22.app.App" style="stroke:#181818;stroke-width:1.0;"/><polygon fill="none" points="769.4,156.05,780.76,138.16,783.03,159.23,769.4,156.05" style="stroke:#181818;stroke-width:1.0;"/></g><!--MD5=[895462f4193a11c29ccc169369f33655]
link nz.ac.vuw.ecs.swen225.gp22.app.App to nz.ac.vuw.ecs.swen225.gp22.app.Phase--><g id="link_nz.ac.vuw.ecs.swen225.gp22.app.App_nz.ac.vuw.ecs.swen225.gp22.app.Phase"><path codeLine="76" d="M526.59,989.26 C527.31,1014.79 527.99,1039.16 528.6,1060.77 " fill="none" id="nz.ac.vuw.ecs.swen225.gp22.app.App-to-nz.ac.vuw.ecs.swen225.gp22.app.Phase" style="stroke:#181818;stroke-width:1.0;"/><polygon fill="#181818" points="528.74,1065.91,532.5073,1056.8102,528.6115,1060.9117,524.51,1057.0158,528.74,1065.91" style="stroke:#181818;stroke-width:1.0;"/><text fill="#000000" font-family="sans-serif" font-size="13" lengthAdjust="spacing" textLength="37" x="528" y="1032.5684">phase</text></g><rect fill="none" height="11.7773" style="stroke:none;stroke-width:1.0;" width="182" x="380" y="1251"/><text fill="#888888" font-family="sans-serif" font-size="10" lengthAdjust="spacing" textLength="182" x="380" y="1260.668">UMLDoclet 2.0.19, PlantUML 1.2022.8</text><!--MD5=[b0ac98d1faa1433e344fb313a9816266]
@startuml
    namespace nz.ac.vuw.ecs.swen225.gp22.app {

        class Phase [[Phase.html]] {
            +Phase(Maze, Controller)
            {static} +levelOne(Runnable, Runnable): Phase
            {static} +levelTwo(Runnable, Runnable): Phase
            {static} +replayPhase(int): Phase
            {static} +setNextPhase(Runnable, Runnable): void
            +maze(): Maze
            +controller(): Controller
        }

        class KeyStroke [[KeyStroke.html]] {
            +setAction(int, Runnable, boolean): void
            +clearKeyBind(): void
            +keyPressed(KeyEvent): void
            +keyPressed(int): void
            +keyReleased(KeyEvent): void
            +keyTyped(KeyEvent): void
        }

        class Controller [[Controller.html]] {
            +setCtrlKey(): void
            +setPauseKey(): void
            +setChapKey(): void
        }

        class Game [[Game.html]] {
            +Game(Phase, App)
            +sidePanel(): void
        }

        class Main [[Main.html]] {
            {static} +main(String[]): void
        }

        class App [[App.html]] {
            {static} +WIDTH: int
            {static} +HEIGHT: int
            {static} +TIMELIMIT_ONE: int
            {static} +TIMELIMIT_TWO: int
            +runningGame: boolean
            {static} +getInstance(): App
            +initialize(): void
            +prepareDialogWindow(): void
            +addAButton(String, Runnable, int, JDialog): void
            +menuItems(): void
            +mainMenu(): JMenuBar
            +home(): void
            +tutorial(): void
            +recorderGame(): void
            +loadRecording(): void
            +playRecording(int): void
            +setPhase(Phase, int): void
            +confirmSave(): void
            +phaseOne(): void
            +phaseTwo(): void
            +saveGame(): void
            +resumeGame(): void
            +loadSavedGame(JFileChooser): void
            +setPhaseRunnable(int): void
            +changeKeyListener(KeyListener): void
            +fuzzStarted(): boolean
            +initializeDone(): boolean
            +updateLocationX(): int
            +updateLocationY(): int
            +isWall(int, int): boolean
        }

        java.lang.Record <|- - Phase
        java.awt.event.KeyListener <|.. KeyStroke
        KeyStroke - -> App: app
        KeyStroke <|- - Controller
        javax.swing.JPanel <|- - Game
        javax.swing.JFrame <|- - App
        App - -> Phase: phase
    }

    namespace java.lang {
        abstract class Record
    }

    namespace java.awt.event {
        interface KeyListener {
            {abstract} +keyTyped(KeyEvent): void
            {abstract} +keyPressed(KeyEvent): void
            {abstract} +keyReleased(KeyEvent): void
        }
    }

    namespace javax.swing {
        class JPanel {
        }
        class JFrame {
            #rootPane: JRootPane
            #rootPaneCheckingEnabled: boolean
            #accessibleContext: AccessibleContext
        }
    }

    center footer UMLDoclet 2.0.19, PlantUML 1.2022.8
@enduml

PlantUML version 1.2022.8(Sun Sep 25 22:00:33 NZDT 2022)
(APACHE source distribution)
Java Runtime: Java(TM) SE Runtime Environment
JVM: Java HotSpot(TM) 64-Bit Server VM
Default Encoding: UTF-8
Language: en
Country: AU
--></g></svg>