<?xml version="1.0" encoding="UTF-8" standalone="no"?><svg xmlns="http://www.w3.org/2000/svg" xmlns:xlink="http://www.w3.org/1999/xlink" contentStyleType="text/css" height="292px" preserveAspectRatio="none" style="width:317px;height:292px;background:#FFFFFF;" version="1.1" viewBox="0 0 317 292" width="317px" zoomAndPan="magnify"><defs/><g><!--MD5=[d0b1d8d3dec61a0fbfd2100f853b0bd1]
class nz.ac.vuw.ecs.swen225.gp22.app.Phase--><a href="Phase.html" target="_top" title="Phase.html" xlink:actuate="onRequest" xlink:href="Phase.html" xlink:show="new" xlink:title="Phase.html" xlink:type="simple"><g id="elem_nz.ac.vuw.ecs.swen225.gp22.app.Phase"><rect codeLine="5" fill="#F1F1F1" height="161.6836" id="nz.ac.vuw.ecs.swen225.gp22.app.Phase" rx="2.5" ry="2.5" style="stroke:#181818;stroke-width:0.5;" width="303" x="7" y="105"/><ellipse cx="73.75" cy="124.1328" fill="#ADD1B2" rx="11" ry="11" style="stroke:#181818;stroke-width:1.0;"/><path d="M76.2231,130.2759 Q75.6421,130.5747 75.0029,130.7241 Q74.3638,130.8735 73.6582,130.8735 Q71.1514,130.8735 69.8315,129.2217 Q68.5117,127.5698 68.5117,124.4487 Q68.5117,121.3193 69.8315,119.6675 Q71.1514,118.0156 73.6582,118.0156 Q74.3638,118.0156 75.0112,118.165 Q75.6587,118.3145 76.2231,118.6133 L76.2231,121.3359 Q75.5923,120.7549 74.9988,120.4851 Q74.4053,120.2153 73.7744,120.2153 Q72.4297,120.2153 71.7449,121.282 Q71.0601,122.3486 71.0601,124.4487 Q71.0601,126.5405 71.7449,127.6072 Q72.4297,128.6738 73.7744,128.6738 Q74.4053,128.6738 74.9988,128.4041 Q75.5923,128.1343 76.2231,127.5532 Z " fill="#000000"/><text fill="#000000" font-family="sans-serif" font-size="14" lengthAdjust="spacing" textLength="40" x="154.75" y="123.5352">Phase</text><text fill="#000000" font-family="sans-serif" font-size="10" lengthAdjust="spacing" textLength="161" x="94.25" y="136.1563">nz.ac.vuw.ecs.swen225.gp22.app</text><line style="stroke:#181818;stroke-width:0.5;" x1="8" x2="309" y1="143.2656" y2="143.2656"/><ellipse cx="18" cy="157.0098" fill="#84BE84" rx="3" ry="3" style="stroke:#038048;stroke-width:1.0;"/><text fill="#000000" font-family="sans-serif" font-size="14" lengthAdjust="spacing" textLength="164" x="27" y="160.8008">Phase(Maze, Controller)</text><ellipse cx="18" cy="173.498" fill="#84BE84" rx="3" ry="3" style="stroke:#038048;stroke-width:1.0;"/><text fill="#000000" font-family="sans-serif" font-size="14" lengthAdjust="spacing" text-decoration="underline" textLength="255" x="27" y="177.2891">levelOne(Runnable, Runnable): Phase</text><ellipse cx="18" cy="189.9863" fill="#84BE84" rx="3" ry="3" style="stroke:#038048;stroke-width:1.0;"/><text fill="#000000" font-family="sans-serif" font-size="14" lengthAdjust="spacing" text-decoration="underline" textLength="256" x="27" y="193.7773">levelTwo(Runnable, Runnable): Phase</text><ellipse cx="18" cy="206.4746" fill="#84BE84" rx="3" ry="3" style="stroke:#038048;stroke-width:1.0;"/><text fill="#000000" font-family="sans-serif" font-size="14" lengthAdjust="spacing" text-decoration="underline" textLength="158" x="27" y="210.2656">replayPhase(int): Phase</text><ellipse cx="18" cy="222.9629" fill="#84BE84" rx="3" ry="3" style="stroke:#038048;stroke-width:1.0;"/><text fill="#000000" font-family="sans-serif" font-size="14" lengthAdjust="spacing" text-decoration="underline" textLength="277" x="27" y="226.7539">setNextPhase(Runnable, Runnable): void</text><ellipse cx="18" cy="239.4512" fill="#84BE84" rx="3" ry="3" style="stroke:#038048;stroke-width:1.0;"/><text fill="#000000" font-family="sans-serif" font-size="14" lengthAdjust="spacing" textLength="91" x="27" y="243.2422">maze(): Maze</text><ellipse cx="18" cy="255.9395" fill="#84BE84" rx="3" ry="3" style="stroke:#038048;stroke-width:1.0;"/><text fill="#000000" font-family="sans-serif" font-size="14" lengthAdjust="spacing" textLength="155" x="27" y="259.7305">controller(): Controller</text></g></a><!--MD5=[aeced6b90a5f9cea7e9b0d4e8b5a9b7c]
class java.lang.Record--><g id="elem_java.lang.Record"><rect codeLine="15" fill="#F1F1F1" height="38.2656" id="java.lang.Record" rx="2.5" ry="2.5" style="stroke:#181818;stroke-width:0.5;" width="80" x="118.5" y="7"/><ellipse cx="133.5" cy="26.1328" fill="#A9DCDF" rx="11" ry="11" style="stroke:#181818;stroke-width:1.0;"/><path d="M133.3633,21.481 L132.2095,26.5527 L134.5254,26.5527 Z M131.8691,19.2397 L134.8657,19.2397 L138.2109,31.6328 L135.7622,31.6328 L134.9985,28.5698 L131.7197,28.5698 L130.9727,31.6328 L128.5239,31.6328 Z " fill="#000000"/><text fill="#000000" font-family="sans-serif" font-size="14" font-style="italic" lengthAdjust="spacing" textLength="48" x="147.5" y="25.5352">Record</text><text fill="#000000" font-family="sans-serif" font-size="10" font-style="italic" lengthAdjust="spacing" textLength="44" x="149.5" y="38.1563">java.lang</text></g><!--MD5=[9e89ba0a17210aa2e9b3ec19694357bd]
reverse link java.lang.Record to nz.ac.vuw.ecs.swen225.gp22.app.Phase--><g id="link_java.lang.Record_nz.ac.vuw.ecs.swen225.gp22.app.Phase"><path codeLine="17" d="M158.5,65.54 C158.5,77.45 158.5,91.05 158.5,104.7 " fill="none" id="java.lang.Record-backto-nz.ac.vuw.ecs.swen225.gp22.app.Phase" style="stroke:#181818;stroke-width:1.0;"/><polygon fill="none" points="151.5,65.12,158.5,45.12,165.5,65.12,151.5,65.12" style="stroke:#181818;stroke-width:1.0;"/></g><rect fill="none" height="11.7773" style="stroke:none;stroke-width:1.0;" width="182" x="60.5" y="272.6836"/><text fill="#888888" font-family="sans-serif" font-size="10" lengthAdjust="spacing" textLength="182" x="60.5" y="282.3516">UMLDoclet 2.0.19, PlantUML 1.2022.8</text><!--MD5=[5f45a12e760630de747070fe11b0887a]
@startuml
    set namespaceSeparator none
    hide empty fields
    hide empty methods

    class "<size:14>Phase\n<size:10>nz.ac.vuw.ecs.swen225.gp22.app" as nz.ac.vuw.ecs.swen225.gp22.app.Phase [[Phase.html]] {
        +Phase(Maze, Controller)
        {static} +levelOne(Runnable, Runnable): Phase
        {static} +levelTwo(Runnable, Runnable): Phase
        {static} +replayPhase(int): Phase
        {static} +setNextPhase(Runnable, Runnable): void
        +maze(): Maze
        +controller(): Controller
    }

    abstract class "<size:14>Record\n<size:10>java.lang" as java.lang.Record

    java.lang.Record <|- - nz.ac.vuw.ecs.swen225.gp22.app.Phase

    center footer UMLDoclet 2.0.19, PlantUML 1.2022.8
@enduml

PlantUML version 1.2022.8(Sun Sep 25 22:00:33 NZDT 2022)
(APACHE source distribution)
Java Runtime: Java(TM) SE Runtime Environment
JVM: Java HotSpot(TM) 64-Bit Server VM
Default Encoding: UTF-8
Language: en
Country: AU
--></g></svg>