<?xml version="1.0" encoding="UTF-8" standalone="no"?><svg xmlns="http://www.w3.org/2000/svg" xmlns:xlink="http://www.w3.org/1999/xlink" contentStyleType="text/css" height="418px" preserveAspectRatio="none" style="width:454px;height:418px;background:#FFFFFF;" version="1.1" viewBox="0 0 454 418" width="454px" zoomAndPan="magnify"><defs/><g><!--MD5=[f3a2970e40106f4032c6f6bc951c7db3]
cluster nz.ac.vuw.ecs.swen225.gp22.Recorder--><g id="cluster_nz.ac.vuw.ecs.swen225.gp22.Recorder"><path d="M8.5,6 L274.5,6 A3.75,3.75 0 0 1 277,8.5 L284,28.4883 L444.5,28.4883 A2.5,2.5 0 0 1 447,30.9883 L447,390.5 A2.5,2.5 0 0 1 444.5,393 L8.5,393 A2.5,2.5 0 0 1 6,390.5 L6,8.5 A2.5,2.5 0 0 1 8.5,6 " fill="none" style="stroke:#000000;stroke-width:1.5;"/><line style="stroke:#000000;stroke-width:1.5;" x1="6" x2="284" y1="28.4883" y2="28.4883"/><text fill="#000000" font-family="sans-serif" font-size="14" font-weight="bold" lengthAdjust="spacing" textLength="265" x="10" y="21.5352">nz.ac.vuw.ecs.swen225.gp22.Recorder</text></g><!--MD5=[549e0b626900ad2871b9915d3cba858c]
class nz.ac.vuw.ecs.swen225.gp22.Recorder.RecordLoad--><a href="RecordLoad.html" target="_top" title="RecordLoad.html" xlink:actuate="onRequest" xlink:href="RecordLoad.html" xlink:show="new" xlink:title="RecordLoad.html" xlink:type="simple"><g id="elem_nz.ac.vuw.ecs.swen225.gp22.Recorder.RecordLoad"><rect codeLine="3" fill="#F1F1F1" height="80.9766" id="nz.ac.vuw.ecs.swen225.gp22.Recorder.RecordLoad" rx="2.5" ry="2.5" style="stroke:#181818;stroke-width:0.5;" width="141" x="289.5" y="57.5"/><ellipse cx="317.1" cy="73.5" fill="#ADD1B2" rx="11" ry="11" style="stroke:#181818;stroke-width:1.0;"/><path d="M319.5731,79.6431 Q318.9921,79.9419 318.3529,80.0913 Q317.7138,80.2407 317.0082,80.2407 Q314.5014,80.2407 313.1815,78.5889 Q311.8617,76.937 311.8617,73.8159 Q311.8617,70.6865 313.1815,69.0347 Q314.5014,67.3828 317.0082,67.3828 Q317.7138,67.3828 318.3612,67.5322 Q319.0087,67.6816 319.5731,67.9805 L319.5731,70.7031 Q318.9423,70.1221 318.3488,69.8523 Q317.7553,69.5825 317.1244,69.5825 Q315.7797,69.5825 315.0949,70.6492 Q314.4101,71.7158 314.4101,73.8159 Q314.4101,75.9077 315.0949,76.9744 Q315.7797,78.041 317.1244,78.041 Q317.7553,78.041 318.3488,77.7712 Q318.9423,77.5015 319.5731,76.9204 Z " fill="#000000"/><text fill="#000000" font-family="sans-serif" font-size="14" lengthAdjust="spacing" textLength="81" x="333.9" y="78.791">RecordLoad</text><line style="stroke:#181818;stroke-width:0.5;" x1="290.5" x2="429.5" y1="89.5" y2="89.5"/><line style="stroke:#181818;stroke-width:0.5;" x1="290.5" x2="429.5" y1="97.5" y2="97.5"/><ellipse cx="300.5" cy="111.2441" fill="#84BE84" rx="3" ry="3" style="stroke:#038048;stroke-width:1.0;"/><text fill="#000000" font-family="sans-serif" font-size="14" lengthAdjust="spacing" textLength="115" x="309.5" y="115.0352">RecordLoad(File)</text><ellipse cx="300.5" cy="127.7324" fill="#84BE84" rx="3" ry="3" style="stroke:#038048;stroke-width:1.0;"/><text fill="#000000" font-family="sans-serif" font-size="14" lengthAdjust="spacing" textLength="67" x="309.5" y="131.5234">level(): int</text></g></a><!--MD5=[05fd43b54d799ffa140f1f34263bb69e]
class nz.ac.vuw.ecs.swen225.gp22.Recorder.directionMove--><a href="directionMove.html" target="_top" title="directionMove.html" xlink:actuate="onRequest" xlink:href="directionMove.html" xlink:show="new" xlink:title="directionMove.html" xlink:type="simple"><g id="elem_nz.ac.vuw.ecs.swen225.gp22.Recorder.directionMove"><rect codeLine="8" fill="#F1F1F1" height="130.4414" id="nz.ac.vuw.ecs.swen225.gp22.Recorder.directionMove" rx="2.5" ry="2.5" style="stroke:#181818;stroke-width:0.5;" width="151" x="147.5" y="247"/><ellipse cx="172.4" cy="263" fill="#ADD1B2" rx="11" ry="11" style="stroke:#181818;stroke-width:1.0;"/><path d="M174.8731,269.1431 Q174.2921,269.4419 173.6529,269.5913 Q173.0138,269.7407 172.3082,269.7407 Q169.8014,269.7407 168.4815,268.0889 Q167.1617,266.437 167.1617,263.3159 Q167.1617,260.1865 168.4815,258.5347 Q169.8014,256.8828 172.3082,256.8828 Q173.0138,256.8828 173.6612,257.0322 Q174.3087,257.1816 174.8731,257.4805 L174.8731,260.2031 Q174.2423,259.6221 173.6488,259.3523 Q173.0553,259.0825 172.4244,259.0825 Q171.0797,259.0825 170.3949,260.1492 Q169.7101,261.2158 169.7101,263.3159 Q169.7101,265.4077 170.3949,266.4744 Q171.0797,267.541 172.4244,267.541 Q173.0553,267.541 173.6488,267.2712 Q174.2423,267.0015 174.8731,266.4204 Z " fill="#000000"/><text fill="#000000" font-family="sans-serif" font-size="14" lengthAdjust="spacing" textLength="97" x="188.6" y="268.291">directionMove</text><line style="stroke:#181818;stroke-width:0.5;" x1="148.5" x2="297.5" y1="279" y2="279"/><ellipse cx="158.5" cy="292.7441" fill="none" rx="3" ry="3" style="stroke:#038048;stroke-width:1.0;"/><text fill="#000000" font-family="sans-serif" font-size="14" lengthAdjust="spacing" textLength="85" x="167.5" y="296.5352">keyCode: int</text><line style="stroke:#181818;stroke-width:0.5;" x1="148.5" x2="297.5" y1="303.4883" y2="303.4883"/><ellipse cx="158.5" cy="317.2324" fill="#84BE84" rx="3" ry="3" style="stroke:#038048;stroke-width:1.0;"/><text fill="#000000" font-family="sans-serif" font-size="14" lengthAdjust="spacing" textLength="125" x="167.5" y="321.0234">directionMove(int)</text><ellipse cx="158.5" cy="333.7207" fill="#84BE84" rx="3" ry="3" style="stroke:#038048;stroke-width:1.0;"/><text fill="#000000" font-family="sans-serif" font-size="14" lengthAdjust="spacing" textLength="84" x="167.5" y="337.5117">move(): void</text><ellipse cx="158.5" cy="350.209" fill="#84BE84" rx="3" ry="3" style="stroke:#038048;stroke-width:1.0;"/><text fill="#000000" font-family="sans-serif" font-size="14" lengthAdjust="spacing" textLength="118" x="167.5" y="354">getKeyCode(): int</text><ellipse cx="158.5" cy="366.6973" fill="#84BE84" rx="3" ry="3" style="stroke:#038048;stroke-width:1.0;"/><text fill="#000000" font-family="sans-serif" font-size="14" lengthAdjust="spacing" textLength="96" x="167.5" y="370.4883">getApp(): App</text></g></a><!--MD5=[a3214b065a24035d78762390b7674218]
class nz.ac.vuw.ecs.swen225.gp22.Recorder.Recorder--><a href="Recorder.html" target="_top" title="Recorder.html" xlink:actuate="onRequest" xlink:href="Recorder.html" xlink:show="new" xlink:title="Recorder.html" xlink:type="simple"><g id="elem_nz.ac.vuw.ecs.swen225.gp22.Recorder.Recorder"><rect codeLine="16" fill="#F1F1F1" height="113.9531" id="nz.ac.vuw.ecs.swen225.gp22.Recorder.Recorder" rx="2.5" ry="2.5" style="stroke:#181818;stroke-width:0.5;" width="232" x="22" y="41"/><ellipse cx="102.75" cy="57" fill="#ADD1B2" rx="11" ry="11" style="stroke:#181818;stroke-width:1.0;"/><path d="M105.2231,63.1431 Q104.6421,63.4419 104.0029,63.5913 Q103.3638,63.7407 102.6582,63.7407 Q100.1514,63.7407 98.8315,62.0889 Q97.5117,60.437 97.5117,57.3159 Q97.5117,54.1865 98.8315,52.5347 Q100.1514,50.8828 102.6582,50.8828 Q103.3638,50.8828 104.0112,51.0322 Q104.6587,51.1816 105.2231,51.4805 L105.2231,54.2031 Q104.5923,53.6221 103.9988,53.3523 Q103.4053,53.0825 102.7744,53.0825 Q101.4297,53.0825 100.7449,54.1492 Q100.0601,55.2158 100.0601,57.3159 Q100.0601,59.4077 100.7449,60.4744 Q101.4297,61.541 102.7744,61.541 Q103.4053,61.541 103.9988,61.2712 Q104.5923,61.0015 105.2231,60.4204 Z " fill="#000000"/><text fill="#000000" font-family="sans-serif" font-size="14" lengthAdjust="spacing" textLength="62" x="123.25" y="62.291">Recorder</text><line style="stroke:#181818;stroke-width:0.5;" x1="23" x2="253" y1="73" y2="73"/><line style="stroke:#181818;stroke-width:0.5;" x1="23" x2="253" y1="81" y2="81"/><ellipse cx="33" cy="94.7441" fill="#84BE84" rx="3" ry="3" style="stroke:#038048;stroke-width:1.0;"/><text fill="#000000" font-family="sans-serif" font-size="14" lengthAdjust="spacing" textLength="90" x="42" y="98.5352">Recorder(int)</text><ellipse cx="33" cy="111.2324" fill="#84BE84" rx="3" ry="3" style="stroke:#038048;stroke-width:1.0;"/><text fill="#000000" font-family="sans-serif" font-size="14" lengthAdjust="spacing" textLength="72" x="42" y="115.0234">Recorder()</text><ellipse cx="33" cy="127.7207" fill="#84BE84" rx="3" ry="3" style="stroke:#038048;stroke-width:1.0;"/><text fill="#000000" font-family="sans-serif" font-size="14" lengthAdjust="spacing" textLength="113" x="42" y="131.5117">saveMove(): void</text><ellipse cx="33" cy="144.209" fill="#84BE84" rx="3" ry="3" style="stroke:#038048;stroke-width:1.0;"/><text fill="#000000" font-family="sans-serif" font-size="14" lengthAdjust="spacing" textLength="206" x="42" y="148">addMove(directionMove): void</text></g></a><!--MD5=[67376b4e2f40c48c9dfddf0fd669954d]
link nz.ac.vuw.ecs.swen225.gp22.Recorder.RecordLoad to nz.ac.vuw.ecs.swen225.gp22.Recorder.directionMove--><g id="link_nz.ac.vuw.ecs.swen225.gp22.Recorder.RecordLoad_nz.ac.vuw.ecs.swen225.gp22.Recorder.directionMove"><path codeLine="23" d="M334.23,138.88 C315.46,167.92 289.57,207.99 267.49,242.16 " fill="none" id="nz.ac.vuw.ecs.swen225.gp22.Recorder.RecordLoad-to-nz.ac.vuw.ecs.swen225.gp22.Recorder.directionMove" style="stroke:#181818;stroke-width:1.0;"/><polygon fill="#181818" points="264.54,246.72,272.7845,241.3322,267.2539,242.5206,266.0655,236.99,264.54,246.72" style="stroke:#181818;stroke-width:1.0;"/><text fill="#000000" font-family="sans-serif" font-size="13" lengthAdjust="spacing" textLength="67" x="304" y="198.5684">loadMoves</text><text fill="#000000" font-family="sans-serif" font-size="13" lengthAdjust="spacing" textLength="41" x="317" y="213.8789">moves</text><text fill="#000000" font-family="sans-serif" font-size="13" lengthAdjust="spacing" textLength="6" x="262.7553" y="236.3209">*</text></g><!--MD5=[f94908e6a97a9c8b85a400b2ad255f25]
link nz.ac.vuw.ecs.swen225.gp22.Recorder.Recorder to nz.ac.vuw.ecs.swen225.gp22.Recorder.directionMove--><g id="link_nz.ac.vuw.ecs.swen225.gp22.Recorder.Recorder_nz.ac.vuw.ecs.swen225.gp22.Recorder.directionMove"><path codeLine="24" d="M160.56,155.26 C171.25,181.93 184.12,214.03 195.39,242.14 " fill="none" id="nz.ac.vuw.ecs.swen225.gp22.Recorder.Recorder-to-nz.ac.vuw.ecs.swen225.gp22.Recorder.directionMove" style="stroke:#181818;stroke-width:1.0;"/><polygon fill="#181818" points="197.33,246.98,197.7014,237.1381,195.473,242.3376,190.2736,240.1093,197.33,246.98" style="stroke:#181818;stroke-width:1.0;"/><text fill="#000000" font-family="sans-serif" font-size="13" lengthAdjust="spacing" textLength="78" x="184" y="198.5684">RecorderList</text><text fill="#000000" font-family="sans-serif" font-size="13" lengthAdjust="spacing" textLength="34" x="206" y="213.8789">move</text><text fill="#000000" font-family="sans-serif" font-size="13" lengthAdjust="spacing" textLength="6" x="188.015" y="236.1557">*</text></g><rect fill="none" height="11.7773" style="stroke:none;stroke-width:1.0;" width="182" x="129" y="399"/><text fill="#888888" font-family="sans-serif" font-size="10" lengthAdjust="spacing" textLength="182" x="129" y="408.668">UMLDoclet 2.0.19, PlantUML 1.2022.8</text><!--MD5=[1bba508e7aa22d914be4cef434aab85a]
@startuml
    namespace nz.ac.vuw.ecs.swen225.gp22.Recorder {

        class RecordLoad [[RecordLoad.html]] {
            +RecordLoad(File)
            +level(): int
        }

        class directionMove [[directionMove.html]] {
            +keyCode: int
            +directionMove(int)
            +move(): void
            +getKeyCode(): int
            +getApp(): App
        }

        class Recorder [[Recorder.html]] {
            +Recorder(int)
            +Recorder()
            +saveMove(): void
            +addMove(directionMove): void
        }

        RecordLoad - -> "*" directionMove: loadMoves\nmoves
        Recorder - -> "*" directionMove: RecorderList\nmove
    }

    center footer UMLDoclet 2.0.19, PlantUML 1.2022.8
@enduml

PlantUML version 1.2022.8(Sun Sep 25 22:00:33 NZDT 2022)
(APACHE source distribution)
Java Runtime: Java(TM) SE Runtime Environment
JVM: Java HotSpot(TM) 64-Bit Server VM
Default Encoding: UTF-8
Language: en
Country: AU
--></g></svg>