<?xml version="1.0" encoding="UTF-8" standalone="no"?><svg xmlns="http://www.w3.org/2000/svg" xmlns:xlink="http://www.w3.org/1999/xlink" contentStyleType="text/css" height="153px" preserveAspectRatio="none" style="width:317px;height:153px;background:#FFFFFF;" version="1.1" viewBox="0 0 317 153" width="317px" zoomAndPan="magnify"><defs/><g><!--MD5=[549e0b626900ad2871b9915d3cba858c]
class nz.ac.vuw.ecs.swen225.gp22.Recorder.RecordLoad--><a href="RecordLoad.html" target="_top" title="RecordLoad.html" xlink:actuate="onRequest" xlink:href="RecordLoad.html" xlink:show="new" xlink:title="RecordLoad.html" xlink:type="simple"><g id="elem_nz.ac.vuw.ecs.swen225.gp22.Recorder.RecordLoad"><rect codeLine="5" fill="#F1F1F1" height="120.2188" id="nz.ac.vuw.ecs.swen225.gp22.Recorder.RecordLoad" rx="2.5" ry="2.5" style="stroke:#181818;stroke-width:0.5;" width="296" x="7" y="7"/><ellipse cx="57.75" cy="26.1328" fill="#ADD1B2" rx="11" ry="11" style="stroke:#181818;stroke-width:1.0;"/><path d="M60.2231,32.2759 Q59.6421,32.5747 59.0029,32.7241 Q58.3638,32.8735 57.6582,32.8735 Q55.1514,32.8735 53.8315,31.2217 Q52.5117,29.5698 52.5117,26.4487 Q52.5117,23.3193 53.8315,21.6675 Q55.1514,20.0156 57.6582,20.0156 Q58.3638,20.0156 59.0112,20.165 Q59.6587,20.3145 60.2231,20.6133 L60.2231,23.3359 Q59.5923,22.7549 58.9988,22.4851 Q58.4053,22.2153 57.7744,22.2153 Q56.4297,22.2153 55.7449,23.282 Q55.0601,24.3486 55.0601,26.4487 Q55.0601,28.5405 55.7449,29.6072 Q56.4297,30.6738 57.7744,30.6738 Q58.4053,30.6738 58.9988,30.4041 Q59.5923,30.1343 60.2231,29.5532 Z " fill="#000000"/><text fill="#000000" font-family="sans-serif" font-size="14" lengthAdjust="spacing" textLength="81" x="130.75" y="25.5352">RecordLoad</text><text fill="#000000" font-family="sans-serif" font-size="10" lengthAdjust="spacing" textLength="186" x="78.25" y="38.1563">nz.ac.vuw.ecs.swen225.gp22.Recorder</text><line style="stroke:#181818;stroke-width:0.5;" x1="8" x2="302" y1="45.2656" y2="45.2656"/><ellipse cx="18" cy="59.0098" fill="none" rx="3" ry="3" style="stroke:#038048;stroke-width:1.0;"/><text fill="#000000" font-family="sans-serif" font-size="14" lengthAdjust="spacing" textLength="268" x="27" y="62.8008">loadMoves: LinkedList&lt;directionMove&gt;</text><line style="stroke:#181818;stroke-width:0.5;" x1="8" x2="302" y1="69.7539" y2="69.7539"/><ellipse cx="18" cy="83.498" fill="#84BE84" rx="3" ry="3" style="stroke:#038048;stroke-width:1.0;"/><text fill="#000000" font-family="sans-serif" font-size="14" lengthAdjust="spacing" textLength="115" x="27" y="87.2891">RecordLoad(File)</text><ellipse cx="18" cy="99.9863" fill="#84BE84" rx="3" ry="3" style="stroke:#038048;stroke-width:1.0;"/><text fill="#000000" font-family="sans-serif" font-size="14" lengthAdjust="spacing" textLength="270" x="27" y="103.7773">getMoves(): LinkedList&lt;directionMove&gt;</text><ellipse cx="18" cy="116.4746" fill="#84BE84" rx="3" ry="3" style="stroke:#038048;stroke-width:1.0;"/><text fill="#000000" font-family="sans-serif" font-size="14" lengthAdjust="spacing" textLength="67" x="27" y="120.2656">level(): int</text></g></a><rect fill="none" height="11.7773" style="stroke:none;stroke-width:1.0;" width="182" x="63.5" y="134.2188"/><text fill="#888888" font-family="sans-serif" font-size="10" lengthAdjust="spacing" textLength="182" x="63.5" y="143.8867">UMLDoclet 2.0.19, PlantUML 1.2022.8</text><!--MD5=[4c5da7e8fd05a08f4fc1db87e67e222f]
@startuml
    set namespaceSeparator none
    hide empty fields
    hide empty methods

    class "<size:14>RecordLoad\n<size:10>nz.ac.vuw.ecs.swen225.gp22.Recorder" as nz.ac.vuw.ecs.swen225.gp22.Recorder.RecordLoad [[RecordLoad.html]] {
        +loadMoves: LinkedList<directionMove>
        +RecordLoad(File)
        +getMoves(): LinkedList<directionMove>
        +level(): int
    }

    center footer UMLDoclet 2.0.19, PlantUML 1.2022.8
@enduml

PlantUML version 1.2022.8(Sun Sep 25 22:00:33 NZDT 2022)
(APACHE source distribution)
Java Runtime: Java(TM) SE Runtime Environment
JVM: Java HotSpot(TM) 64-Bit Server VM
Default Encoding: UTF-8
Language: en
Country: AU
--></g></svg>